<?xml version="1.0" standalone="no"?>
<!DOCTYPE svg PUBLIC "-//W3C//DTD SVG 20010904//EN"
 "http://www.w3.org/TR/2001/REC-SVG-20010904/DTD/svg10.dtd">
<svg version="1.0" xmlns="http://www.w3.org/2000/svg"
 width="1024.000000pt" height="1024.000000pt" viewBox="0 0 1024.000000 1024.000000"
 preserveAspectRatio="xMidYMid meet">

<g transform="translate(0.000000,1024.000000) scale(0.100000,-0.100000)"
fill="currentColor" stroke="none">
<path d="M3770 9712 c0 -4 -2 -851 -5 -1883 l-6 -1876 60 -2 c44 -1 61 2 61
11 0 11 2 11 8 0 5 -7 25 -15 45 -19 l37 -6 1 59 c0 33 0 106 -1 164 0 58 -2
833 -3 1723 l-2 1617 1443 0 1442 0 0 -795 0 -795 100 0 100 0 -2 903 -3 902
-1637 2 c-901 2 -1638 0 -1638 -5z m2210 -26 c0 -3 -4 -8 -10 -11 -5 -3 -10
-1 -10 4 0 6 5 11 10 11 6 0 10 -2 10 -4z m-480 -80 c0 -3 -4 -8 -10 -11 -5
-3 -10 -1 -10 4 0 6 5 11 10 11 6 0 10 -2 10 -4z m-1680 -196 c0 -5 -2 -10 -4
-10 -3 0 -8 5 -11 10 -3 6 -1 10 4 10 6 0 11 -4 11 -10z m3134 -48 c2 -4 -4
-9 -15 -9 -11 -1 -17 2 -14 8 7 11 22 12 29 1z m-57 -8 c-3 -3 -12 -4 -19 -1
-8 3 -5 6 6 6 11 1 17 -2 13 -5z m-2970 -56 c-3 -7 -5 -2 -5 12 0 14 2 19 5
13 2 -7 2 -19 0 -25z m3018 -28 c3 -5 1 -10 -4 -10 -6 0 -11 5 -11 10 0 6 2
10 4 10 3 0 8 -4 11 -10z m45 -80 c0 -5 -2 -10 -4 -10 -3 0 -8 5 -11 10 -3 6
-1 10 4 10 6 0 11 -4 11 -10z m-40 -10 c0 -5 -5 -10 -11 -10 -5 0 -7 5 -4 10
3 6 8 10 11 10 2 0 4 -4 4 -10z m40 -310 c0 -5 -4 -10 -10 -10 -5 0 -10 5 -10
10 0 6 5 10 10 10 6 0 10 -4 10 -10z m-3090 -150 c0 -5 -8 -10 -17 -10 -15 0
-16 2 -3 10 19 12 20 12 20 0z m3045 -80 c3 -5 -1 -10 -9 -10 -9 0 -16 5 -16
10 0 6 4 10 9 10 6 0 13 -4 16 -10z m-3085 -170 c0 -5 -5 -10 -11 -10 -5 0 -7
5 -4 10 3 6 8 10 11 10 2 0 4 -4 4 -10z m80 -404 c0 -2 -7 -7 -16 -10 -8 -3
-12 -2 -9 4 6 10 25 14 25 6z m-80 -346 c0 -5 -5 -10 -11 -10 -5 0 -7 5 -4 10
3 6 8 10 11 10 2 0 4 -4 4 -10z m37 -126 c-3 -3 -12 -4 -19 -1 -8 3 -5 6 6 6
11 1 17 -2 13 -5z m37 -499 c-4 -8 -8 -15 -10 -15 -2 0 -4 7 -4 15 0 8 4 15
10 15 5 0 7 -7 4 -15z m-139 -215 c3 -5 1 -10 -4 -10 -6 0 -11 5 -11 10 0 6 2
10 4 10 3 0 8 -4 11 -10z m115 -194 c0 -3 -4 -8 -10 -11 -5 -3 -10 -1 -10 4 0
6 5 11 10 11 6 0 10 -2 10 -4z m50 -616 c0 -5 -5 -10 -11 -10 -5 0 -7 5 -4 10
3 6 8 10 11 10 2 0 4 -4 4 -10z m-35 -10 c-3 -5 -11 -10 -16 -10 -6 0 -7 5 -4
10 3 6 11 10 16 10 6 0 7 -4 4 -10z m5 -100 c0 -5 -2 -10 -4 -10 -3 0 -8 5
-11 10 -3 6 -1 10 4 10 6 0 11 -4 11 -10z"/>
<path d="M5320 9120 c0 -88 4 -160 8 -160 4 0 14 6 21 13 11 10 13 9 7 -6 -3
-10 -6 -20 -6 -23 0 -2 -7 -1 -15 2 -11 5 -15 -1 -15 -20 l0 -26 90 0 90 0 0
189 0 189 -90 1 -90 1 0 -160z"/>
<path d="M4570 9078 c0 -5 -20 -8 -44 -8 l-45 0 0 -87 0 -88 95 -2 95 -2 -3
96 -3 97 -47 1 c-27 0 -48 -3 -48 -7z"/>
<path d="M6136 9016 c19 -111 19 -111 -62 -112 -127 -2 -114 9 -114 -99 l0
-95 100 0 99 0 -5 89 -5 90 33 5 c18 4 59 7 90 9 l58 2 -15 29 c-17 32 -21
121 -5 111 6 -3 10 1 10 9 0 25 -35 36 -118 36 l-79 0 13 -74z m94 0 c0 -2 -9
-6 -20 -9 -11 -3 -20 -1 -20 4 0 5 9 9 20 9 11 0 20 -2 20 -4z m0 -76 c0 -5
-5 -10 -11 -10 -5 0 -7 5 -4 10 3 6 8 10 11 10 2 0 4 -4 4 -10z m-180 -170 c0
-5 -4 -10 -10 -10 -5 0 -10 5 -10 10 0 6 5 10 10 10 6 0 10 -4 10 -10z"/>
<path d="M4688 8878 c-3 -7 -6 -48 -7 -90 l-2 -78 80 0 81 0 0 90 0 90 -74 0
c-50 0 -75 -4 -78 -12z m52 -8 c0 -5 -2 -10 -4 -10 -3 0 -8 5 -11 10 -3 6 -1
10 4 10 6 0 11 -4 11 -10z"/>
<path d="M5203 8713 l-193 -3 0 -71 c0 -48 3 -68 11 -63 8 4 8 0 0 -15 -11
-19 -20 -21 -101 -21 l-89 0 1 -75 c0 -58 4 -78 17 -85 11 -6 -13 -9 -76 -10
l-92 0 -5 -42 c-11 -78 -16 -468 -7 -468 6 0 5 -16 -1 -37 -14 -50 -2 -144 19
-160 9 -7 12 -13 6 -13 -6 0 -13 -11 -15 -25 -5 -24 -4 -24 81 -27 l86 -3 3
-109 3 -108 79 4 80 3 0 -120 c0 -66 1 -187 1 -270 0 -82 3 -180 6 -217 l6
-68 120 0 c111 0 150 -7 81 -14 -29 -3 -29 -4 -32 -80 l-3 -76 215 0 214 0 -5
88 -5 88 94 -4 95 -4 6 53 c9 74 9 179 0 179 -5 0 -7 100 -5 222 2 132 -1 224
-7 227 -5 3 34 4 86 2 l96 -3 -6 116 -5 116 84 0 84 0 0 44 c0 26 -5 46 -12
49 -10 4 -10 6 -1 6 9 1 11 74 7 313 -2 171 -6 313 -7 315 -2 1 -35 5 -75 9
l-71 7 -3 81 -3 81 -50 0 c-27 1 -66 -2 -85 -7 -20 -4 -36 -3 -38 2 -2 6 -10
10 -18 10 -11 0 -14 19 -14 90 l0 90 -132 0 c-73 0 -155 2 -183 3 -27 2 -137
2 -242 0z m-13 -34 c0 -5 -7 -9 -15 -9 -8 0 -15 7 -15 15 0 9 6 12 15 9 8 -4
15 -10 15 -15z m-12 -54 c0 -14 -4 -25 -9 -25 -5 0 -9 11 -9 25 0 14 4 25 9
25 5 0 9 -11 9 -25z m-11 -87 c-3 -7 -5 -2 -5 12 0 14 2 19 5 13 2 -7 2 -19 0
-25z m53 22 c0 -5 -2 -10 -4 -10 -3 0 -8 5 -11 10 -3 6 -1 10 4 10 6 0 11 -4
11 -10z m420 -20 c0 -5 -5 -10 -11 -10 -5 0 -7 5 -4 10 3 6 8 10 11 10 2 0 4
-4 4 -10z m-52 -16 l44 -5 -4 -82 -3 -82 79 -7 c43 -4 80 -9 83 -11 3 -4 7
-55 12 -150 l1 -28 83 3 82 3 -8 -135 c-16 -292 -19 -320 -28 -315 -5 4 -9 15
-9 26 0 15 -7 19 -32 19 -18 1 -50 3 -71 6 -39 6 -39 6 -37 -28 5 -87 0 -148
-12 -145 -7 1 -12 -4 -11 -10 2 -7 -2 -13 -7 -13 -6 0 -10 6 -10 13 0 8 -18
12 -55 12 l-55 0 0 -86 c0 -98 -1 -99 -76 -99 l-44 0 0 -90 0 -90 -91 0 -90 0
3 88 2 87 -59 1 c-33 1 -66 2 -72 2 -10 2 -13 29 -13 97 l0 95 -80 -5 -80 -5
0 91 0 90 -80 -7 -80 -7 0 204 0 204 79 -2 c93 -2 88 -8 81 113 l-5 84 83 0
82 0 0 85 0 84 113 4 c116 3 211 0 285 -9z m-588 -14 c0 -5 -2 -10 -4 -10 -3
0 -8 5 -11 10 -3 6 -1 10 4 10 6 0 11 -4 11 -10z m807 -107 c-3 -10 -5 -4 -5
12 0 17 2 24 5 18 2 -7 2 -21 0 -30z m102 10 c0 -25 -1 -26 -9 -8 -12 27 -12
35 0 35 6 0 10 -12 9 -27z m-729 7 c0 -5 -4 -10 -10 -10 -5 0 -10 5 -10 10 0
6 5 10 10 10 6 0 10 -4 10 -10z m696 -17 c-10 -10 -19 5 -10 18 6 11 8 11 12
0 2 -7 1 -15 -2 -18z m-59 -135 c-3 -7 -5 -2 -5 12 0 14 2 19 5 13 2 -7 2 -19
0 -25z m97 -13 c3 -8 1 -15 -4 -15 -6 0 -10 7 -10 15 0 8 2 15 4 15 2 0 6 -7
10 -15z m56 -59 c-7 -7 -10 1 -9 25 0 32 1 33 10 10 6 -16 6 -28 -1 -35z m7
-83 c-3 -10 -5 -4 -5 12 0 17 2 24 5 18 2 -7 2 -21 0 -30z m48 -73 c3 -5 1
-10 -4 -10 -6 0 -11 5 -11 10 0 6 2 10 4 10 3 0 8 -4 11 -10z m-28 -32 c-3 -8
-6 -5 -6 6 -1 11 2 17 5 13 3 -3 4 -12 1 -19z m13 -63 c0 -19 -2 -35 -4 -35
-2 0 -6 16 -8 35 -2 19 0 35 4 35 4 0 8 -16 8 -35z m-1300 -89 c0 -3 -4 -8
-10 -11 -5 -3 -10 -1 -10 4 0 6 5 11 10 11 6 0 10 -2 10 -4z m1260 -96 c0 -5
-2 -10 -4 -10 -3 0 -8 5 -11 10 -3 6 -1 10 4 10 6 0 11 -4 11 -10z m70 6 c0
-3 -4 -8 -10 -11 -5 -3 -10 -1 -10 4 0 6 5 11 10 11 6 0 10 -2 10 -4z m-107
-154 c-13 -2 -23 -10 -23 -18 0 -8 -8 -14 -17 -13 -11 0 -13 3 -5 6 6 2 12 13
12 22 0 15 6 17 28 12 25 -5 25 -6 5 -9z m-1136 2 c-3 -3 -12 -4 -19 -1 -8 3
-5 6 6 6 11 1 17 -2 13 -5z m223 -104 c0 -5 -5 -10 -11 -10 -5 0 -7 5 -4 10 3
6 8 10 11 10 2 0 4 -4 4 -10z m790 -69 c0 -5 -7 -12 -16 -15 -14 -5 -15 -4 -4
9 14 17 20 19 20 6z m-640 -321 c0 -5 -5 -10 -11 -10 -5 0 -7 5 -4 10 3 6 8
10 11 10 2 0 4 -4 4 -10z m439 -155 l2 -86 -203 1 -203 1 3 85 3 84 198 0 198
0 2 -85z m-435 50 c3 -8 2 -15 -3 -15 -5 0 -14 7 -21 15 -10 12 -10 15 3 15 8
0 17 -7 21 -15z m64 -354 c3 -8 -1 -12 -9 -9 -7 2 -15 10 -17 17 -3 8 1 12 9
9 7 -2 15 -10 17 -17z"/>
<path d="M5343 7903 c-23 -4 -23 -7 -23 -154 l0 -149 93 0 92 0 -1 103 c-1 56
-5 126 -9 155 l-8 52 -61 -1 c-33 -1 -71 -4 -83 -6z"/>
<path d="M6314 8314 c3 -26 6 -71 6 -100 l0 -54 155 0 155 0 0 65 c0 45 -4 65
-12 65 -10 0 -9 3 1 9 8 5 11 17 7 28 -6 18 -19 21 -104 26 -53 4 -123 7 -156
7 l-59 0 7 -46z"/>
<path d="M4193 8255 l0 -95 153 0 c113 0 153 3 156 13 2 6 2 49 0 95 l-4 82
-153 0 -153 0 1 -95z"/>
<path d="M4600 8189 c0 -5 5 -7 10 -4 6 3 10 8 10 11 0 2 -4 4 -10 4 -5 0 -10
-5 -10 -11z"/>
<path d="M2536 8103 c-1 -2 -179 -3 -394 -3 -327 -1 -392 -3 -392 -15 0 -12
-4 -12 -27 1 -58 29 -63 23 -63 -75 0 -65 -4 -90 -13 -94 -8 -3 -80 -4 -161
-2 l-147 3 3 -89 3 -89 -92 0 c-79 0 -92 -2 -96 -17 -7 -26 -2 -107 7 -121 13
-21 -4 -33 -43 -32 -20 1 -60 2 -88 1 l-53 -1 0 -90 0 -90 -85 0 -85 0 0 -490
0 -490 -70 0 -70 0 0 -240 0 -240 70 0 70 0 0 -85 0 -85 53 -1 c28 -1 62 -3
74 -4 13 -1 23 2 23 6 0 5 5 9 11 9 5 0 7 -4 4 -10 -3 -5 0 -7 8 -4 8 3 17 -3
21 -13 4 -10 2 -19 -3 -21 -6 -2 -11 -31 -11 -66 l0 -63 69 -2 c52 -1 73 2 85
14 14 14 16 14 16 2 0 -9 -6 -18 -12 -20 -9 -4 -8 -6 3 -6 11 -1 14 -10 13
-33 -8 -108 -7 -132 4 -136 7 -2 12 1 12 6 0 5 7 12 14 15 11 4 13 1 9 -10 -6
-14 1 -15 54 -11 33 3 66 2 73 -2 9 -5 13 -33 12 -89 -1 -89 -5 -85 69 -81 21
1 40 -3 44 -9 3 -6 0 -11 -7 -11 -8 0 -20 -9 -28 -20 -17 -24 -30 -26 -30 -5
0 19 -16 20 -23 1 -3 -8 -1 -17 6 -20 7 -2 8 -5 2 -5 -6 -1 -9 -26 -7 -61 3
-42 0 -60 -8 -60 -8 0 -11 10 -8 25 3 14 1 25 -3 25 -5 0 -9 -13 -9 -30 0 -24
4 -30 23 -30 21 -1 22 -1 3 -15 -19 -15 -19 -15 5 -16 15 0 19 -3 9 -6 -8 -4
-21 -12 -28 -20 -11 -11 -11 -13 0 -13 11 0 11 -2 0 -9 -19 -11 -17 -24 5 -32
17 -7 17 -8 1 -8 -11 -1 -18 -9 -18 -21 0 -19 -7 -20 -195 -20 -107 0 -195 -4
-195 -9 0 -5 7 -14 15 -21 8 -7 15 -18 15 -24 0 -6 -7 -3 -14 7 -10 13 -28 17
-83 17 l-70 0 4 -74 c5 -83 0 -90 -57 -92 -19 0 -56 -2 -82 -2 l-47 -2 6 -80
6 -80 -92 0 c-72 0 -91 -3 -91 -14 0 -8 8 -17 18 -19 16 -4 16 -5 0 -6 -15 -1
-18 -11 -18 -66 l0 -65 -87 -1 c-83 -1 -86 -1 -58 -14 l30 -14 -26 -1 c-34 0
-39 -6 -29 -40 6 -20 5 -30 -3 -33 -9 -3 -9 -8 0 -19 7 -8 9 -18 5 -22 -8 -9
-9 -13 -11 -129 l-1 -89 -31 7 c-16 4 -57 4 -90 0 l-59 -7 0 -595 0 -595 84 3
c48 2 87 0 92 -6 5 -5 10 -136 10 -290 1 -249 6 -391 16 -401 2 -2 39 -4 81
-5 l77 -2 1 -56 c0 -31 2 -66 5 -78 l4 -23 -235 0 -235 0 0 -101 0 -101 354 3
c205 2 358 0 363 -5 5 -5 1 -7 -10 -3 -22 8 -77 -3 -77 -15 0 -6 7 -8 15 -4 8
3 15 1 15 -4 0 -6 -7 -10 -16 -10 -8 0 -12 -4 -9 -10 3 -5 0 -7 -8 -4 -9 3
-13 13 -10 25 3 11 0 19 -7 19 -9 0 -10 -20 -5 -77 4 -43 9 -81 12 -86 7 -12
73 -8 73 6 0 9 2 9 8 0 6 -10 299 -13 1380 -12 l1372 0 0 92 0 92 80 -3 80 -4
0 97 0 97 403 -6 c221 -3 417 -6 436 -6 l34 0 -8 -247 c-5 -137 -9 -281 -10
-320 l0 -73 -65 -1 c-36 -1 -68 -1 -71 -1 -4 1 -7 -35 -7 -79 0 -47 3 -77 9
-74 5 4 9 2 9 -4 0 -5 -6 -12 -13 -15 -9 -5 -9 -7 1 -12 10 -5 8 -10 -7 -21
-21 -14 -31 -50 -11 -38 6 3 10 1 10 -4 0 -6 -5 -11 -11 -11 -7 0 -10 -21 -7
-60 l3 -60 -97 0 -98 0 0 -100 0 -100 84 0 c58 0 86 4 89 13 4 9 6 9 6 0 1 -9
25 -13 85 -13 58 0 86 4 89 13 4 10 6 10 6 0 1 -7 6 -13 11 -13 6 0 10 35 10
85 l0 85 175 0 175 0 0 93 0 92 95 -3 95 -3 1 93 c1 51 1 97 0 101 -1 5 40 7
91 5 51 -1 209 -2 351 0 l257 2 0 164 0 164 96 -4 95 -3 -6 86 c-3 48 -10 90
-16 94 -8 4 -8 9 -1 13 6 3 13 2 17 -4 4 -6 97 -10 258 -9 176 1 252 -2 255
-10 2 -6 8 -11 13 -11 6 0 7 5 4 10 -7 12 104 14 121 2 19 -13 18 -102 -2
-123 -16 -18 -16 -19 -1 -13 13 4 17 1 17 -15 0 -17 -6 -21 -32 -22 -18 -1
-37 -2 -43 -4 -5 -1 -29 -3 -52 -3 l-43 -2 0 -255 0 -255 258 0 257 0 -3 -90
-4 -89 356 -1 c280 0 356 2 358 12 0 7 2 47 4 88 l2 75 251 -1 251 -2 2 72 c0
39 0 80 0 91 -2 19 3 20 79 16 l81 -3 -7 23 c-7 21 -6 22 8 10 10 -7 40 -13
69 -13 29 0 263 0 519 1 l465 1 1 50 c1 31 -3 50 -10 50 -8 0 -8 3 1 12 7 7
12 20 12 30 0 20 37 22 362 18 l157 -1 3 83 3 83 87 0 87 0 0 120 c0 66 -3
148 -8 183 l-7 62 89 -4 c60 -3 93 -9 98 -18 5 -7 9 99 9 242 0 191 -3 259
-12 269 -10 11 -10 13 0 7 9 -6 12 137 12 698 l0 706 -92 0 -93 0 1 175 0 175
-46 0 c-41 0 -47 -3 -58 -27 -8 -19 -10 -21 -6 -5 5 19 1 22 -25 22 -23 0 -31
5 -32 18 -2 41 2 129 7 145 5 16 0 18 -48 17 -29 -1 -70 -1 -90 -1 l-38 1 0
88 0 87 85 -5 84 -5 -4 104 c-3 79 -1 101 7 93 21 -21 47 -14 42 11 l-5 22 12
-23 c9 -17 21 -22 51 -22 l40 0 -7 347 c-4 254 -9 349 -18 355 -9 6 -9 8 1 8
6 0 12 4 12 9 0 13 -57 6 -75 -9 -8 -7 -15 -8 -15 -3 0 5 -12 10 -26 11 -14 1
-30 4 -35 8 -5 3 -9 40 -9 83 0 82 -5 98 -27 80 -9 -9 -13 -8 -13 0 0 7 -25
11 -70 11 l-69 0 -3 68 c-2 37 0 99 4 137 3 39 7 327 7 642 l1 572 -71 0 c-39
0 -74 2 -77 6 -7 7 -8 28 -10 218 l-2 127 -64 0 c-97 0 -96 -1 -96 97 l0 85
-95 -4 -95 -3 0 85 0 85 -38 0 c-20 0 -42 -3 -47 -7 -6 -3 -26 -3 -45 1 l-35
7 -3 92 -3 92 -174 0 -175 0 0 80 0 80 -470 0 -470 0 0 -89 c0 -74 -3 -90 -17
-95 -9 -4 -100 -6 -202 -6 -276 1 -278 1 -261 -10 10 -6 11 -10 3 -10 -8 0
-13 -14 -13 -37 0 -60 -6 -63 -108 -64 l-91 0 3 -84 2 -83 -112 -7 c-62 -4
-129 -5 -148 -3 l-35 4 -3 -71 c-2 -38 0 -76 5 -82 7 -10 -1 -13 -36 -13 -27
0 -47 -5 -50 -12 -4 -10 -6 -10 -6 0 -1 14 -31 17 -31 3 0 -5 -9 -7 -20 -4
-18 5 -20 0 -21 -58 -2 -115 8 -104 -92 -101 l-88 2 1 -157 c1 -87 -2 -182 -6
-210 -4 -37 -3 -53 5 -53 6 0 11 -5 11 -11 0 -5 -5 -7 -10 -4 -7 4 -10 -23 -8
-79 2 -49 7 -86 13 -86 6 0 3 -4 -5 -9 -7 -6 -47 -13 -86 -16 -73 -7 -73 -7
-76 -39 -2 -17 -2 -163 0 -323 l3 -293 84 0 85 0 0 -60 c0 -36 4 -60 11 -60 6
0 8 -14 4 -37 -13 -75 -12 -93 4 -93 13 -1 13 -3 -2 -14 -14 -11 -17 -23 -13
-49 5 -32 4 -34 -19 -29 -38 7 -128 -7 -150 -24 -19 -14 -20 -27 -20 -186 l0
-170 -40 -4 c-22 -2 -41 -7 -42 -11 -2 -5 -21 -7 -43 -5 -39 4 -40 3 -40 -28
0 -22 4 -29 13 -24 8 5 7 2 -2 -9 -11 -13 -14 -66 -15 -235 l-1 -217 43 0 c24
-1 46 3 49 8 2 4 11 3 18 -3 7 -6 17 -10 21 -9 41 7 44 1 44 -91 0 -89 0 -90
25 -90 14 0 25 5 25 12 0 9 3 9 12 0 8 -8 55 -12 146 -12 119 0 133 2 122 15
-11 13 -10 14 4 9 13 -5 16 -22 16 -100 l0 -94 -74 0 c-84 0 -81 4 -93 -110
l-6 -60 -86 -1 c-64 -1 -77 -3 -51 -9 l35 -7 -37 -2 c-30 -1 -38 -5 -38 -20 0
-11 6 -22 13 -25 10 -5 10 -7 0 -12 -8 -3 -13 -24 -13 -48 0 -75 -13 -225 -19
-224 -3 0 -36 0 -73 -1 l-68 -1 0 -35 c0 -28 5 -38 23 -45 15 -6 17 -9 6 -9
-20 -1 -29 -21 -29 -62 0 -26 -4 -29 -32 -31 -18 0 -37 -2 -43 -3 -5 -2 -19
-3 -30 -4 -17 -1 -18 -3 -5 -11 13 -9 13 -10 0 -10 -18 0 -43 -77 -29 -86 14
-8 10 -24 -6 -24 -11 0 -15 -12 -15 -50 0 -41 3 -50 18 -50 13 0 14 -2 3 -9
-7 -5 -13 -20 -13 -33 0 -22 -8 -26 -79 -43 -44 -10 -79 -24 -79 -30 0 -7 5
-27 12 -45 9 -26 9 -35 0 -38 -7 -2 -10 -8 -6 -13 3 -5 -2 -9 -10 -9 -21 0
-20 -10 2 -26 16 -12 15 -13 -5 -14 -22 0 -22 -3 -17 -70 l5 -69 -93 -3 -93
-3 -3 -80 c-2 -44 -4 -81 -6 -82 -1 -1 -38 -4 -81 -5 l-80 -4 3 -100 3 -100
-63 -1 c-96 -1 -140 -5 -131 -14 4 -4 22 -9 38 -12 28 -4 27 -4 -7 -6 l-36 -1
5 -70 5 -70 -71 0 c-41 0 -71 -4 -71 -10 0 -5 -8 -10 -17 -11 -12 -1 -10 -4 7
-9 15 -5 18 -8 8 -9 -12 -1 -18 -15 -23 -56 -4 -30 -5 -61 -1 -70 5 -13 -9
-15 -93 -15 l-99 0 0 -81 c-1 -96 -18 -123 -71 -113 -28 6 -30 4 -34 -27 l-4
-34 -1 33 c-2 25 -6 32 -23 32 -11 0 -17 -4 -14 -10 3 -5 1 -10 -4 -10 -7 0
-11 -24 -11 -60 0 -49 -3 -58 -15 -54 -11 5 -13 2 -9 -10 5 -14 -4 -16 -74
-16 l-80 0 0 28 c0 15 -1 57 -2 95 l-2 67 -209 0 c-125 0 -209 -4 -209 -9 0
-9 -104 -12 -385 -13 l-60 0 50 -13 c45 -12 47 -13 17 -14 -23 -1 -31 -5 -26
-13 6 -10 4 -10 -7 -1 -7 7 -26 13 -41 13 -15 0 -27 3 -27 8 1 4 1 82 0 175
l-1 167 -76 0 -76 0 3 33 c1 17 1 55 0 83 l-1 51 -82 2 c-98 1 -119 11 -25 11
37 0 67 3 67 8 0 4 -35 6 -79 4 l-78 -3 5 70 c5 69 4 71 -19 72 -17 1 -19 3
-6 6 15 4 17 21 17 177 l0 173 115 5 c63 3 146 3 185 0 l70 -5 0 -84 0 -84 83
3 82 3 5 -80 5 -80 98 -3 c66 -2 97 1 92 8 -3 5 -1 10 4 10 6 0 11 -4 11 -10
0 -17 92 -12 112 7 16 14 18 14 18 1 0 -14 32 -16 270 -16 l270 1 2 26 c0 14
2 51 4 81 1 30 3 60 3 66 1 7 32 9 91 6 l90 -4 0 101 0 101 80 0 80 0 1 43 c1
23 2 69 3 102 1 33 4 377 6 765 2 388 5 731 8 763 l4 57 80 0 80 0 -5 173 c-3
94 -6 173 -6 174 -1 1 -9 3 -18 6 -10 2 28 2 83 0 l102 -4 -6 163 c-2 90 -5
250 -6 355 l-1 193 -85 0 -86 0 2 71 c3 118 17 109 -172 109 l-164 0 0 340 0
340 -142 1 c-79 1 -162 2 -185 3 l-43 2 0 -77 c0 -43 -5 -81 -10 -84 -7 -4 -7
-12 0 -25 9 -16 6 -19 -18 -22 -15 -2 -40 0 -55 4 -16 4 -42 4 -58 1 l-29 -6
3 -196 c2 -108 1 -215 -1 -238 l-4 -43 -84 0 -83 0 5 -437 c3 -241 7 -446 8
-455 2 -9 -2 -19 -10 -22 -10 -4 -14 -26 -14 -86 l0 -80 78 0 c77 0 77 0 80
-27 1 -16 3 -174 3 -352 l1 -324 -66 2 -66 2 0 -80 c0 -50 -4 -81 -11 -81 -5
0 -7 -4 -4 -10 3 -6 0 -10 -7 -11 -7 0 -21 -2 -31 -4 -15 -3 -16 -1 -6 11 10
12 2 13 -60 8 l-71 -5 0 68 c0 37 -4 73 -8 79 -11 17 -46 22 -89 15 -27 -5
-43 -4 -51 6 -10 10 -10 13 0 13 6 0 4 6 -6 13 -15 11 -19 28 -20 83 l-1 69
-134 0 c-98 0 -136 -4 -139 -13 -2 -7 -9 -9 -15 -5 -20 13 -32 9 -38 -12 -3
-11 -6 26 -7 83 0 57 -2 105 -4 108 -3 2 -47 5 -99 7 -52 1 -99 6 -105 9 -6 4
-14 4 -18 1 -4 -4 -30 -8 -59 -9 -29 -1 -60 -5 -69 -9 -13 -5 -18 -3 -18 8 0
9 8 18 18 20 16 4 16 5 -1 6 -14 1 -17 9 -15 49 2 26 7 50 13 54 6 5 5 8 -2 8
-20 0 -15 18 7 25 11 3 20 13 20 21 0 16 5 17 83 14 l57 -2 2 59 c1 32 2 68 2
81 0 25 4 26 114 23 l74 -2 -6 113 c-4 62 -8 140 -9 173 l-2 60 40 -3 c22 -1
56 -5 76 -8 l36 -5 5 148 c3 87 1 151 -5 154 -5 4 -5 9 2 13 15 10 15 2046 0
2046 -5 0 -7 5 -4 10 3 6 2 10 -4 10 -5 0 -12 -6 -14 -12 -4 -10 -7 -10 -14 0
-5 7 -34 13 -64 15 l-54 2 -5 88 -5 87 -150 5 c-82 2 -156 4 -162 5 -9 0 -13
22 -13 75 l0 75 -167 0 c-93 0 -219 1 -281 3 -63 1 -115 1 -116 0z m414 -83
c0 -5 -5 -10 -11 -10 -5 0 -7 5 -4 10 3 6 8 10 11 10 2 0 4 -4 4 -10z m140 6
c0 -3 -4 -8 -10 -11 -5 -3 -10 -1 -10 4 0 6 5 11 10 11 6 0 10 -2 10 -4z m-90
-56 c0 -5 -2 -10 -4 -10 -3 0 -8 5 -11 10 -3 6 -1 10 4 10 6 0 11 -4 11 -10z
m4800 -50 c0 -5 -2 -10 -4 -10 -3 0 -8 5 -11 10 -3 6 -1 10 4 10 6 0 11 -4 11
-10z m-5625 -30 c3 -5 1 -10 -4 -10 -6 0 -11 5 -11 10 0 6 2 10 4 10 3 0 8 -4
11 -10z m-338 -32 c-3 -7 -5 -2 -5 12 0 14 2 19 5 13 2 -7 2 -19 0 -25z m6863
22 c-19 -13 -30 -13 -30 0 0 6 10 10 23 10 18 0 19 -2 7 -10z m-1430 -50 c0
-5 -4 -10 -9 -10 -6 0 -13 5 -16 10 -3 6 1 10 9 10 9 0 16 -4 16 -10z m340
-35 c0 -8 -4 -15 -10 -15 -5 0 -7 7 -4 15 4 8 8 15 10 15 2 0 4 -7 4 -15z m55
-5 c3 -5 1 -10 -4 -10 -6 0 -11 5 -11 10 0 6 2 10 4 10 3 0 8 -4 11 -10z m-88
-6 c-3 -3 -12 -4 -19 -1 -8 3 -5 6 6 6 11 1 17 -2 13 -5z m-6016 -37 c-10 -9
-11 -8 -5 6 3 10 9 15 12 12 3 -3 0 -11 -7 -18z m1733 15 c3 -5 -1 -9 -9 -9
-8 0 -12 4 -9 9 3 4 7 8 9 8 2 0 6 -4 9 -8z m4223 -24 c-3 -8 -6 -5 -6 6 -1
11 2 17 5 13 3 -3 4 -12 1 -19z m163 -59 c0 -4 -7 -6 -15 -3 -8 4 -15 10 -15
15 0 4 7 6 15 3 8 -4 15 -10 15 -15z m1457 -5 c-3 -3 -12 -4 -19 -1 -8 3 -5 6
6 6 11 1 17 -2 13 -5z m-7910 -10 c-3 -3 -12 -4 -19 -1 -8 3 -5 6 6 6 11 1 17
-2 13 -5z m6518 -14 c3 -5 1 -10 -4 -10 -6 0 -11 5 -11 10 0 6 2 10 4 10 3 0
8 -4 11 -10z m-4775 -40 c0 -5 -7 -7 -15 -4 -8 4 -15 8 -15 10 0 2 7 4 15 4 8
0 15 -4 15 -10z m-1075 -30 c3 -5 1 -10 -4 -10 -6 0 -11 5 -11 10 0 6 2 10 4
10 3 0 8 -4 11 -10z m-588 -52 c-3 -7 -5 -2 -5 12 0 14 2 19 5 13 2 -7 2 -19
0 -25z m-237 18 c0 -3 -4 -8 -10 -11 -5 -3 -10 -1 -10 4 0 6 5 11 10 11 6 0
10 -2 10 -4z m2420 0 c0 -3 -4 -8 -10 -11 -5 -3 -10 -1 -10 4 0 6 5 11 10 11
6 0 10 -2 10 -4z m4277 -18 c-3 -8 -6 -5 -6 6 -1 11 2 17 5 13 3 -3 4 -12 1
-19z m-70 -4 c-3 -3 -12 -4 -19 -1 -8 3 -5 6 6 6 11 1 17 -2 13 -5z m873 -4
c0 -5 -4 -10 -10 -10 -5 0 -10 5 -10 10 0 6 5 10 10 10 6 0 10 -4 10 -10z
m-6153 -26 c-3 -3 -12 -4 -19 -1 -8 3 -5 6 6 6 11 1 17 -2 13 -5z m1003 -24
c0 -5 -5 -10 -11 -10 -5 0 -7 5 -4 10 3 6 8 10 11 10 2 0 4 -4 4 -10z m-2250
-14 c0 -3 -4 -8 -10 -11 -5 -3 -10 -1 -10 4 0 6 5 11 10 11 6 0 10 -2 10 -4z
m6394 -38 c-3 -4 -11 -5 -19 -1 -21 7 -19 12 4 10 11 0 18 -5 15 -9z m173 -50
c-3 -7 -5 -2 -5 12 0 14 2 19 5 13 2 -7 2 -19 0 -25z m-6567 2 c0 -5 -4 -10
-10 -10 -5 0 -10 5 -10 10 0 6 5 10 10 10 6 0 10 -4 10 -10z m5480 -20 c0 -5
-5 -10 -11 -10 -5 0 -7 5 -4 10 3 6 8 10 11 10 2 0 4 -4 4 -10z m780 -80 l0
-90 91 0 90 0 -2 -77 -2 -78 64 -2 c35 0 72 -2 81 -2 15 -1 18 -15 20 -98 l3
-98 40 -3 c22 -1 59 -5 83 -8 l42 -5 0 -75 0 -74 -32 -2 c-18 -1 -59 0 -91 1
-47 2 -56 0 -51 -12 4 -12 -10 -14 -92 -12 -53 1 -90 -1 -82 -6 11 -6 12 -22
8 -68 -3 -34 -2 -65 3 -70 6 -6 -27 -10 -81 -10 -50 0 -114 -4 -142 -7 -28 -3
-65 -3 -83 0 l-32 6 3 70 4 70 -34 1 c-18 0 -135 0 -260 0 -126 0 -228 3 -228
7 -8 199 -17 182 91 182 l69 0 1 43 c0 23 1 70 2 104 l2 63 70 0 c115 0 115 0
115 86 l0 74 94 0 95 0 -6 90 -6 90 77 0 76 0 0 -90z m-4020 -65 c6 -499 3
-976 -5 -979 -6 -3 -6 -7 1 -13 7 -5 10 -69 9 -182 -1 -96 1 -189 5 -207 4
-18 5 -36 1 -39 -10 -11 0 -179 11 -193 6 -7 7 -16 3 -20 -4 -4 -10 -1 -12 6
-3 6 -13 12 -24 12 -12 0 -16 5 -13 15 4 8 1 15 -5 15 -6 0 -11 -7 -11 -15 0
-10 -10 -15 -30 -15 -23 0 -28 4 -24 18 5 16 5 16 -6 0 -6 -10 -22 -18 -35
-18 -13 0 -26 -4 -30 -9 -3 -6 -6 -87 -6 -180 l0 -171 -59 7 c-68 7 -90 -7
-90 -56 0 -17 -3 -31 -7 -31 -5 0 -8 -18 -9 -40 0 -22 -4 -43 -8 -47 -4 -4
-43 -8 -87 -8 l-79 0 0 -90 c0 -49 -4 -85 -8 -80 -4 6 -160 10 -432 10 l-425
0 -3 98 -3 97 -184 0 -185 0 0 154 0 153 -67 1 c-37 1 -70 -3 -73 -8 -3 -5
-11 -5 -20 0 -13 8 -12 10 3 10 15 0 17 11 17 100 0 84 -3 100 -16 100 -8 0
-12 -4 -9 -10 3 -5 1 -10 -4 -10 -6 0 -11 5 -11 11 0 8 -22 10 -70 7 l-70 -5
0 63 c0 44 -4 64 -12 65 -10 0 -10 2 0 6 32 13 4 22 -75 25 l-88 3 0 73 c1 39
-3 72 -8 72 -5 0 -4 6 2 13 6 8 8 16 6 19 -3 3 -47 4 -96 2 -99 -4 -116 3
-112 46 1 14 2 116 3 228 l2 202 189 0 189 0 0 -89 c0 -62 4 -90 13 -93 6 -2
44 -5 84 -7 l72 -3 3 99 3 98 73 -2 72 -1 0 256 0 257 85 -3 85 -3 0 144 c0
80 3 152 6 161 5 13 23 16 94 16 l87 0 1 -66 c1 -37 4 -69 8 -73 3 -3 93 -6
200 -5 107 1 194 -3 194 -8 0 -4 179 -8 404 -8 l404 1 4 62 c3 34 2 69 -3 78
-5 9 -7 18 -4 20 2 2 44 4 94 4 l91 0 0 -40z m4125 15 c3 -5 12 -7 20 -3 8 3
15 0 15 -7 0 -8 -8 -10 -22 -6 -13 3 -32 6 -43 6 -17 0 -17 2 -5 10 19 12 27
12 35 0z m-455 -134 c0 -3 -4 -8 -10 -11 -5 -3 -10 -1 -10 4 0 6 5 11 10 11 6
0 10 -2 10 -4z m2415 -56 c3 -6 -1 -7 -9 -4 -18 7 -21 14 -7 14 6 0 13 -4 16
-10z m-8315 -70 c0 -5 -5 -10 -11 -10 -5 0 -7 5 -4 10 3 6 8 10 11 10 2 0 4
-4 4 -10z m5685 -20 c3 -5 1 -10 -4 -10 -6 0 -11 5 -11 10 0 6 2 10 4 10 3 0
8 -4 11 -10z m1125 -10 c0 -5 -5 -10 -11 -10 -5 0 -7 5 -4 10 3 6 8 10 11 10
2 0 4 -4 4 -10z m-173 -36 c-3 -3 -12 -4 -19 -1 -8 3 -5 6 6 6 11 1 17 -2 13
-5z m-938 -20 c18 -13 20 -18 10 -25 -21 -13 -25 -11 -37 16 -13 29 -6 32 27
9z m-472 -106 c-3 -8 -6 -5 -6 6 -1 11 2 17 5 13 3 -3 4 -12 1 -19z m227 -43
c3 -8 1 -15 -4 -15 -6 0 -10 7 -10 15 0 8 2 15 4 15 2 0 6 -7 10 -15z m-3074
-55 c0 -5 -5 -10 -11 -10 -5 0 -7 5 -4 10 3 6 8 10 11 10 2 0 4 -4 4 -10z
m4925 -10 c-3 -5 -10 -10 -16 -10 -5 0 -9 5 -9 10 0 6 7 10 16 10 8 0 12 -4 9
-10z m-1955 -75 c0 -5 -5 -3 -10 5 -5 8 -10 20 -10 25 0 6 5 3 10 -5 5 -8 10
-19 10 -25z m-1870 -61 c0 -78 -2 -86 -17 -80 -15 5 -14 3 2 -9 19 -15 20 -26
17 -208 -1 -124 -6 -193 -13 -198 -8 -5 -8 -9 1 -14 7 -4 9 -18 5 -36 -6 -28
-5 -29 30 -29 20 0 46 -5 57 -11 13 -7 23 -8 27 -1 3 5 59 10 124 11 l118 2
-3 -73 c-2 -63 0 -73 15 -76 9 -2 17 -11 17 -20 1 -15 2 -15 11 1 8 14 20 18
52 15 l42 -3 7 -100 c4 -55 8 -119 10 -143 2 -23 0 -42 -4 -42 -12 0 -10 -68
2 -91 7 -11 7 -19 1 -19 -5 0 -11 5 -13 10 -2 7 -64 11 -171 11 l-167 -1 0 57
c0 38 5 62 17 75 9 11 11 18 5 18 -8 0 -12 32 -12 104 l0 104 -178 1 -179 1 3
-84 c3 -81 2 -85 -19 -89 -12 -2 31 -5 96 -6 117 -1 142 -10 90 -30 l-28 -11
28 5 27 5 0 -67 c1 -38 2 -114 3 -170 l2 -103 187 0 186 0 4 -50 c2 -35 -1
-50 -9 -50 -7 0 -13 -4 -13 -10 0 -5 4 -10 9 -10 5 0 7 -9 4 -20 -3 -11 -10
-17 -16 -13 -13 8 -172 5 -201 -4 -14 -4 -16 -7 -5 -13 19 -12 21 -97 23 -934
1 -578 4 -740 14 -744 6 -2 12 -8 12 -14 0 -6 -7 -5 -16 3 -15 12 -16 11 -10
-9 7 -22 6 -22 -76 -22 l-84 0 4 -85 c3 -66 1 -85 -10 -86 -55 -2 -174 -12
-176 -14 -2 -2 -6 -43 -8 -91 -3 -64 -1 -90 8 -96 8 -6 -26 -8 -84 -6 -54 2
-98 1 -98 -3 0 -4 -53 -6 -117 -4 -65 2 -142 0 -170 -4 l-53 -7 0 100 0 101
-82 0 c-46 0 -86 -4 -91 -10 -4 -5 -7 75 -6 180 1 170 -1 190 -17 202 -15 11
-16 13 -2 13 9 0 18 -5 20 -11 2 -6 41 -13 91 -16 l88 -6 -3 162 -4 161 92 0
c50 0 105 -5 123 -11 19 -7 54 -8 86 -4 l55 6 0 270 0 269 95 0 96 0 -1 202
c-1 112 -5 207 -9 213 -16 21 -20 44 -7 39 11 -4 13 18 10 113 -2 65 -4 160
-4 211 0 80 -2 92 -17 93 -17 1 -17 2 0 6 44 12 8 19 -78 15 l-95 -4 0 185 c0
113 4 188 10 192 6 4 7 13 2 23 -14 29 -15 201 -2 218 9 10 9 14 1 14 -6 0
-11 16 -11 35 l0 35 90 0 90 0 0 50 c0 40 3 48 15 44 11 -5 13 -2 9 10 -3 9
-10 13 -16 10 -12 -8 -9 217 4 234 7 8 7 12 0 12 -13 0 -3 42 12 52 7 5 4 8
-6 8 -10 0 -18 4 -18 9 0 15 18 23 23 11 3 -6 4 -5 3 2 -2 7 -8 12 -14 11 -10
-2 -15 194 -5 210 2 4 40 7 84 7 l79 0 0 -86z m2310 41 c0 -8 -4 -15 -10 -15
-5 0 -7 7 -4 15 4 8 8 15 10 15 2 0 4 -7 4 -15z m-223 -77 c-3 -7 -5 -2 -5 12
0 14 2 19 5 13 2 -7 2 -19 0 -25z m-3247 2 c0 -5 -2 -10 -4 -10 -3 0 -8 5 -11
10 -3 6 -1 10 4 10 6 0 11 -4 11 -10z m3123 -23 c-3 -5 30 -8 74 -7 43 1 151
1 241 1 l162 -1 0 -272 c0 -150 -3 -303 -6 -340 l-7 -66 -173 -2 -173 -1 -3
83 -3 83 -83 0 -82 0 0 98 c0 61 -4 97 -11 97 -5 0 -7 5 -3 11 6 10 6 198 0
284 l-3 40 38 0 c20 0 35 -4 32 -8z m1091 5 c3 -5 -8 -6 -25 -4 -16 2 -29 6
-29 8 0 8 49 4 54 -4z m579 -24 c3 -18 3 -130 1 -248 -3 -118 -4 -239 -4 -269
1 -35 -4 -57 -12 -62 -10 -7 -10 -9 0 -9 7 0 12 -14 12 -39 l0 -38 -137 -2
c-103 -2 -138 1 -144 11 -7 10 -9 10 -9 1 0 -10 -29 -13 -110 -13 l-110 0 0
79 0 78 -46 7 c-71 9 -114 7 -114 -6 0 -6 -2 -9 -4 -7 -3 3 -7 108 -9 234 -3
127 -3 204 0 173 l4 -58 79 0 80 0 0 94 0 95 38 4 c20 2 137 4 258 5 l222 2 5
-32z m-686 -35 c-3 -10 -5 -4 -5 12 0 17 2 24 5 18 2 -7 2 -21 0 -30z m1483
-73 c0 -5 -5 -10 -11 -10 -5 0 -7 5 -4 10 3 6 8 10 11 10 2 0 4 -4 4 -10z
m270 -190 c0 -145 -2 -160 -17 -161 -17 -1 -17 -2 0 -6 18 -5 17 -4 22 -150
l2 -63 -58 0 c-51 0 -58 2 -52 18 7 16 6 16 -11 0 -10 -10 -32 -18 -52 -18
l-34 0 0 -90 0 -90 -154 0 -154 0 -7 -170 -7 -170 -85 0 -85 0 8 -32 c6 -30 8
-59 5 -114 -1 -20 -7 -22 -88 -23 -49 -1 -90 -6 -94 -12 -3 -6 -4 -38 -2 -71
3 -42 1 -58 -6 -54 -6 4 -11 2 -11 -3 0 -6 5 -11 10 -11 6 0 10 -6 10 -14 0
-19 -41 -28 -119 -25 -63 2 -65 2 -72 -24 -4 -17 -3 -27 3 -27 6 0 9 -24 6
-64 -2 -39 0 -62 6 -59 5 3 6 1 2 -5 -4 -7 -18 -9 -31 -6 -14 3 -60 7 -102 8
l-78 1 3 -85 c2 -47 5 -86 6 -88 9 -9 132 -23 195 -23 41 1 80 -4 88 -10 9 -9
13 -8 13 0 0 6 17 11 40 11 l39 0 3 171 c2 94 0 173 -4 176 -25 15 3 23 77 23
l86 0 -2 -219 c-1 -156 -4 -221 -12 -225 -9 -3 -9 -7 -1 -13 14 -10 17 -83 4
-83 -6 0 -10 6 -10 13 0 8 -4 7 -10 -3 -9 -13 -10 -13 -11 0 0 10 -2 11 -6 3
-3 -9 -27 -13 -69 -13 l-64 0 0 -53 c0 -29 -6 -59 -12 -66 -11 -10 -10 -12 1
-9 9 2 14 -7 15 -23 2 -26 -1 -27 -59 -31 -37 -3 -63 -1 -67 6 -9 13 -39 -24
-30 -38 3 -5 -2 -6 -12 -3 -16 6 -17 0 -14 -66 l3 -72 -230 1 c-126 1 -219 -2
-205 -6 19 -6 10 -8 -32 -9 -49 -1 -58 2 -59 17 0 9 0 54 0 100 l1 82 -85 0
-85 0 0 80 0 80 90 0 c65 0 90 3 90 13 0 9 2 9 8 -1 7 -9 46 -12 163 -10 l154
3 5 70 c3 39 4 80 2 92 l-3 22 -287 2 c-158 0 -306 0 -330 -1 -66 -2 -83 7
-76 37 4 16 2 28 -7 34 -10 6 -11 9 -1 9 8 0 12 17 12 51 l0 51 -170 -4 -170
-4 -1 36 c0 19 0 61 1 94 l2 59 -64 -7 c-35 -4 -64 -12 -66 -17 -2 -5 -10 -9
-18 -9 -11 0 -13 31 -10 178 1 97 1 185 -2 195 -4 14 -17 17 -92 17 -82 0 -88
1 -94 23 -11 41 -7 117 7 117 8 0 9 3 1 8 -19 12 -22 36 -8 63 12 24 11 27 -3
25 -13 -1 -17 9 -17 54 l-1 55 60 0 c33 0 117 1 188 3 l127 2 0 75 0 75 96 0
96 0 -3 150 c-3 116 -1 150 8 150 7 0 13 5 13 11 0 6 -7 9 -15 5 -17 -6 -20
20 -5 44 8 13 10 12 10 -2 0 -20 4 -21 70 -18 25 1 47 6 49 12 2 5 9 1 17 -10
10 -14 13 -56 13 -152 0 -99 3 -135 13 -141 10 -7 10 -9 1 -9 -7 0 -13 -9 -13
-20 0 -18 7 -20 83 -20 l82 0 -2 -52 c-1 -29 1 -65 4 -80 l5 -28 339 0 339 0
2 28 c0 15 0 51 -1 80 l-3 52 94 0 94 0 2 182 c1 100 3 183 5 184 1 1 79 5
174 9 198 9 189 2 177 120 l-7 65 262 0 261 0 0 -160z m-593 84 c-3 -3 -12 -4
-19 -1 -8 3 -5 6 6 6 11 1 17 -2 13 -5z m-2407 -18 c0 -3 -4 -8 -10 -11 -5 -3
-10 -1 -10 4 0 6 5 11 10 11 6 0 10 -2 10 -4z m40 0 c0 -3 -4 -8 -10 -11 -5
-3 -10 -1 -10 4 0 6 5 11 10 11 6 0 10 -2 10 -4z m1140 -26 c0 -5 -4 -10 -10
-10 -5 0 -10 5 -10 10 0 6 5 10 10 10 6 0 10 -4 10 -10z m967 -26 c-3 -3 -12
-4 -19 -1 -8 3 -5 6 6 6 11 1 17 -2 13 -5z m-917 -50 c0 -2 -7 -4 -15 -4 -8 0
-15 4 -15 10 0 5 7 7 15 4 8 -4 15 -8 15 -10z m-4140 -4 c0 -5 -2 -10 -4 -10
-3 0 -8 5 -11 10 -3 6 -1 10 4 10 6 0 11 -4 11 -10z m1620 -10 c0 -5 -2 -10
-4 -10 -3 0 -8 5 -11 10 -3 6 -1 10 4 10 6 0 11 -4 11 -10z m73 3 c-7 -2 -19
-2 -25 0 -7 3 -2 5 12 5 14 0 19 -2 13 -5z m1314 -9 c-3 -3 -12 -4 -19 -1 -8
3 -5 6 6 6 11 1 17 -2 13 -5z m1093 -4 c0 -5 -2 -10 -4 -10 -3 0 -8 5 -11 10
-3 6 -1 10 4 10 6 0 11 -4 11 -10z m-6760 -10 c0 -5 -4 -10 -10 -10 -5 0 -10
5 -10 10 0 6 5 10 10 10 6 0 10 -4 10 -10z m4237 4 c-3 -3 -12 -4 -19 -1 -8 3
-5 6 6 6 11 1 17 -2 13 -5z m112 -7 c-2 -2 -12 -9 -21 -16 -15 -11 -18 -11
-18 1 0 7 10 14 21 15 12 1 20 1 18 0z m-1659 -62 c0 -8 -7 -15 -15 -15 -13 0
-14 3 -3 15 16 18 18 18 18 0z m855 -5 c3 -5 1 -10 -4 -10 -6 0 -11 5 -11 10
0 6 2 10 4 10 3 0 8 -4 11 -10z m682 -10 c1 -11 -2 -22 -6 -25 -5 -2 -8 7 -8
20 0 30 12 34 14 5z m100 4 c-3 -3 -12 -4 -19 -1 -8 3 -5 6 6 6 11 1 17 -2 13
-5z m-1577 -104 c12 -8 11 -10 -7 -10 -13 0 -23 5 -23 10 0 13 11 13 30 0z
m1730 -14 c0 -3 -4 -8 -10 -11 -5 -3 -10 -1 -10 4 0 6 5 11 10 11 6 0 10 -2
10 -4z m-108 -48 c-8 -8 -9 -4 -5 13 4 13 8 18 11 10 2 -7 -1 -18 -6 -23z
m1303 22 c3 -5 1 -10 -4 -10 -6 0 -11 5 -11 10 0 6 2 10 4 10 3 0 8 -4 11 -10z
m3102 -6 c-3 -3 -12 -4 -19 -1 -8 3 -5 6 6 6 11 1 17 -2 13 -5z m-6080 -30
c-3 -3 -12 -4 -19 -1 -8 3 -5 6 6 6 11 1 17 -2 13 -5z m6118 -24 c3 -5 1 -10
-4 -10 -6 0 -11 5 -11 10 0 6 2 10 4 10 3 0 8 -4 11 -10z m-8540 -100 c3 -5
-1 -10 -10 -10 -9 0 -13 5 -10 10 3 6 8 10 10 10 2 0 7 -4 10 -10z m6752 -26
c-3 -3 -12 -4 -19 -1 -8 3 -5 6 6 6 11 1 17 -2 13 -5z m1840 -30 c-3 -3 -12
-4 -19 -1 -8 3 -5 6 6 6 11 1 17 -2 13 -5z m-430 -66 c-3 -8 -6 -5 -6 6 -1 11
2 17 5 13 3 -3 4 -12 1 -19z m-2590 -34 c-3 -3 -12 -4 -19 -1 -8 3 -5 6 6 6
11 1 17 -2 13 -5z m-1850 -26 c-3 -8 -6 -5 -6 6 -1 11 2 17 5 13 3 -3 4 -12 1
-19z m533 -58 c0 -5 -5 -10 -11 -10 -5 0 -7 5 -4 10 3 6 8 10 11 10 2 0 4 -4
4 -10z m-627 -45 c-3 -9 -8 -14 -10 -11 -3 3 -2 9 2 15 9 16 15 13 8 -4z
m-3253 1 c0 -3 -4 -8 -10 -11 -5 -3 -10 -1 -10 4 0 6 5 11 10 11 6 0 10 -2 10
-4z m8470 -16 c0 -5 -4 -10 -10 -10 -5 0 -10 5 -10 10 0 6 5 10 10 10 6 0 10
-4 10 -10z m50 -80 c0 -5 -7 -10 -15 -10 -8 0 -15 5 -15 10 0 6 7 10 15 10 8
0 15 -4 15 -10z m-8390 -71 c0 -11 -4 -18 -10 -14 -5 3 -7 12 -3 20 7 21 13
19 13 -6z m-80 -9 c0 -5 -5 -10 -11 -10 -5 0 -7 5 -4 10 3 6 8 10 11 10 2 0 4
-4 4 -10z m3675 -20 c3 -5 1 -10 -4 -10 -6 0 -11 5 -11 10 0 6 2 10 4 10 3 0
8 -4 11 -10z m1035 -30 c0 -11 -4 -20 -9 -20 -5 0 -7 9 -4 20 3 11 7 20 9 20
2 0 4 -9 4 -20z m3095 -100 c3 -5 1 -10 -4 -10 -6 0 -11 5 -11 10 0 6 2 10 4
10 3 0 8 -4 11 -10z m-4845 -4 c0 -3 -4 -8 -10 -11 -5 -3 -10 -1 -10 4 0 6 5
11 10 11 6 0 10 -2 10 -4z m1710 -38 c0 -18 -2 -20 -9 -8 -6 8 -7 18 -5 22 9
14 14 9 14 -14z m2487 -15 c-9 -9 -20 -13 -24 -9 -4 4 -1 11 7 16 25 16 35 11
17 -7z m-5497 -3 c0 -5 -6 -10 -14 -10 -8 0 -18 5 -21 10 -3 6 3 10 14 10 12
0 21 -4 21 -10z m-1245 -20 c3 -5 1 -10 -4 -10 -6 0 -11 5 -11 10 0 6 2 10 4
10 3 0 8 -4 11 -10z m4305 -20 c0 -5 -4 -10 -10 -10 -5 0 -10 5 -10 10 0 6 5
10 10 10 6 0 10 -4 10 -10z m-1730 -40 c0 -5 -5 -10 -11 -10 -5 0 -7 5 -4 10
3 6 8 10 11 10 2 0 4 -4 4 -10z m530 0 c0 -5 -5 -10 -11 -10 -5 0 -7 5 -4 10
3 6 8 10 11 10 2 0 4 -4 4 -10z m1193 -20 c-3 -11 -7 -20 -9 -20 -2 0 -4 9 -4
20 0 11 4 20 9 20 5 0 7 -9 4 -20z m3147 10 c0 -5 -4 -10 -10 -10 -5 0 -10 5
-10 10 0 6 5 10 10 10 6 0 10 -4 10 -10z m-3150 -62 c0 -18 -2 -20 -9 -8 -6 8
-7 18 -5 22 9 14 14 9 14 -14z m-1173 6 c-3 -3 -12 -4 -19 -1 -8 3 -5 6 6 6
11 1 17 -2 13 -5z m-2282 -14 c3 -5 1 -10 -4 -10 -6 0 -11 5 -11 10 0 6 2 10
4 10 3 0 8 -4 11 -10z m355 6 c0 -3 -4 -8 -10 -11 -5 -3 -10 -1 -10 4 0 6 5
11 10 11 6 0 10 -2 10 -4z m-1243 -20 c5 -5 1 -7 -9 -3 -15 5 -17 -3 -17 -73
0 -70 2 -80 19 -85 11 -4 173 -3 360 0 l340 7 0 -92 0 -91 -32 -13 c-27 -12
-29 -15 -12 -18 10 -3 -5 -4 -35 -2 -30 2 -60 9 -67 15 -12 10 -14 -1 -13 -64
1 -61 4 -77 18 -80 9 -3 -40 -6 -109 -7 -204 -3 -442 -1 -448 4 -3 3 -4 46 -3
96 l2 91 -102 -6 -102 -6 7 28 c7 28 7 89 1 234 l-3 76 98 -1 c54 -1 102 -5
107 -10z m813 10 c0 -3 -4 -8 -10 -11 -5 -3 -10 -1 -10 4 0 6 5 11 10 11 6 0
10 -2 10 -4z m7244 -11 c3 -8 1 -15 -4 -15 -6 0 -10 7 -10 15 0 8 2 15 4 15 2
0 6 -7 10 -15z m-47 -17 c-3 -8 -6 -5 -6 6 -1 11 2 17 5 13 3 -3 4 -12 1 -19z
m93 12 c0 -5 -2 -10 -4 -10 -3 0 -8 5 -11 10 -3 6 -1 10 4 10 6 0 11 -4 11
-10z m-3800 -4 c0 -3 -4 -8 -10 -11 -5 -3 -10 -1 -10 4 0 6 5 11 10 11 6 0 10
-2 10 -4z m40 -16 c0 -5 -5 -10 -11 -10 -5 0 -7 5 -4 10 3 6 8 10 11 10 2 0 4
-4 4 -10z m3754 -8 c3 -5 -1 -9 -9 -9 -8 0 -15 4 -15 9 0 4 4 8 9 8 6 0 12 -4
15 -8z m-4924 -12 c0 -5 -2 -10 -4 -10 -3 0 -8 5 -11 10 -3 6 -1 10 4 10 6 0
11 -4 11 -10z m1397 4 c-3 -3 -12 -4 -19 -1 -8 3 -5 6 6 6 11 1 17 -2 13 -5z
m-2067 -8 c0 -3 -4 -8 -10 -11 -5 -3 -10 -1 -10 4 0 6 5 11 10 11 6 0 10 -2
10 -4z m-1290 -116 c0 -5 -7 -10 -16 -10 -8 0 -12 5 -9 10 3 6 10 10 16 10 5
0 9 -4 9 -10z m-1573 -13 c2 -2 4 -46 4 -98 0 -61 5 -96 12 -101 9 -6 8 -11
-3 -18 -12 -8 -12 -10 5 -10 19 -1 19 -1 3 -14 -11 -8 -18 -26 -18 -45 l0 -31
90 0 c78 0 91 -2 100 -19 7 -14 7 -22 -1 -26 -6 -4 -9 -36 -7 -81 l3 -74 128
2 c70 1 127 5 127 10 0 5 6 5 14 1 8 -4 145 -7 305 -5 l291 3 0 89 0 90 96 0
95 0 -2 87 c-2 80 0 87 19 94 12 5 24 4 27 -1 5 -8 110 -10 498 -12 l147 -1 0
-93 0 -94 84 0 c99 0 100 0 90 -107 l-7 -73 87 0 86 0 1 -27 c1 -16 2 -125 3
-244 l1 -216 -75 -2 c-41 -1 -76 -3 -77 -5 -2 -2 -8 -45 -14 -97 -8 -67 -8
-94 0 -97 6 -2 11 -13 11 -25 0 -18 -2 -19 -10 -7 -8 12 -10 11 -10 -7 0 -13
6 -23 13 -23 8 0 7 -4 -3 -11 -12 -9 -13 -12 -1 -16 11 -5 11 -7 0 -14 -11 -6
-11 -14 -2 -39 10 -27 10 -31 -3 -26 -8 3 -87 6 -175 7 l-159 0 0 257 0 257
-100 2 -100 2 0 -419 c0 -231 4 -420 9 -420 4 0 9 -35 10 -79 2 -93 17 -86
-174 -89 -180 -3 -233 -10 -255 -34 -15 -16 -25 -18 -52 -12 l-33 8 35 7 35 6
-43 2 -43 1 2 -92 2 -93 -89 0 -89 0 2 -87 3 -87 -263 -3 c-144 -2 -304 -2
-354 0 l-93 3 0 84 0 85 -102 2 c-57 0 -134 2 -173 2 l-70 1 -3 600 c-1 330
-2 606 -2 613 0 11 -20 13 -90 10 l-90 -3 0 -332 0 -333 -77 -1 c-43 0 -114 0
-158 0 -44 0 -203 0 -352 1 l-273 0 0 330 0 330 80 0 80 0 0 165 0 165 96 0
96 0 -4 101 -4 100 46 -1 c25 -1 67 -1 93 -1 l48 1 -7 89 -7 89 49 -4 c27 -3
61 -6 77 -8 l27 -3 0 86 0 86 266 -2 c147 -1 268 -4 271 -6z m1593 -23 c0 -8
-6 -11 -15 -8 -8 4 -15 9 -15 13 0 4 7 8 15 8 8 0 15 -6 15 -13z m3560 6 c0
-5 -5 -10 -11 -10 -5 0 -7 5 -4 10 3 6 8 10 11 10 2 0 4 -4 4 -10z m-3720 -24
c0 -3 -4 -8 -10 -11 -5 -3 -10 -1 -10 4 0 6 5 11 10 11 6 0 10 -2 10 -4z m140
-6 c0 -5 -4 -10 -10 -10 -5 0 -10 5 -10 10 0 6 5 10 10 10 6 0 10 -4 10 -10z
m4206 -27 c-10 -10 -19 5 -10 18 6 11 8 11 12 0 2 -7 1 -15 -2 -18z m-1006 -7
c0 -3 -4 -8 -10 -11 -5 -3 -10 -1 -10 4 0 6 5 11 10 11 6 0 10 -2 10 -4z m950
-51 c0 -3 -9 -1 -20 5 -11 6 -18 15 -15 21 6 9 35 -12 35 -26z m72 -22 c8 -10
6 -13 -6 -13 -14 0 -16 -20 -16 -170 l0 -170 33 0 c17 0 56 -3 85 -6 l52 -7 0
-88 0 -89 80 0 c76 0 80 -1 81 -22 1 -13 3 -36 4 -53 1 -16 3 -50 5 -75 1 -25
4 -37 7 -27 4 14 17 17 83 17 43 0 82 5 85 10 3 6 11 10 16 10 6 0 8 -4 4 -9
-3 -5 -1 -12 5 -16 5 -3 10 -44 10 -91 l0 -84 250 0 250 0 0 90 0 90 70 0 c40
0 70 4 70 10 0 6 7 10 15 10 12 0 15 14 15 70 l0 70 80 0 80 0 1 83 c1 45 1
88 0 95 -1 9 23 12 92 12 l94 0 6 122 c4 66 7 145 7 175 l0 53 165 0 165 0 0
-70 c0 -56 3 -70 15 -70 8 0 15 -4 15 -9 0 -5 77 -12 170 -16 l170 -8 -6 -94
-7 -95 85 4 c87 3 118 -7 102 -34 -13 -21 -14 -112 -1 -120 9 -6 9 -8 0 -8 -7
0 -13 -3 -13 -7 0 -5 41 -7 91 -5 l91 3 -7 -165 -8 -166 85 0 86 0 -2 -757 c0
-417 2 -770 7 -786 l7 -27 -85 0 -85 0 0 -160 0 -160 -84 0 -85 0 -6 -44 c-4
-25 -5 -67 -4 -94 l4 -49 -267 2 -268 1 -1 -40 c-1 -23 -2 -61 -3 -86 l-1 -45
-164 2 c-90 1 -166 5 -169 8 -4 3 -7 153 -7 333 l0 327 -82 3 -83 3 0 79 0 80
340 0 340 0 0 90 0 90 -85 0 -85 0 0 445 c0 438 0 445 -20 445 -11 0 -20 -4
-20 -10 0 -5 -5 -10 -11 -10 -5 0 -7 5 -4 10 4 6 -20 10 -64 10 l-71 0 2 -357
3 -358 -88 3 -89 3 4 -81 3 -80 -93 0 c-60 0 -91 -4 -87 -10 3 -5 -1 -11 -9
-11 -9 -1 -19 -2 -23 -4 -5 -1 -25 -5 -46 -9 -20 -5 -40 -13 -44 -19 -4 -6 -9
-3 -14 9 -4 11 -8 -15 -8 -63 l-1 -83 -97 0 c-212 0 -489 -7 -508 -13 -11 -3
-30 -6 -43 -6 -18 -1 -23 -6 -22 -23 1 -13 2 -44 1 -70 l-1 -47 -332 0 c-183
0 -339 3 -346 7 -7 5 -13 39 -15 93 l-4 84 -95 0 -95 0 -6 115 c-3 63 -4 141
-1 173 l5 57 -94 0 -95 0 1 285 c0 157 3 283 6 279 6 -6 7 -11 10 -39 1 -11
17 -14 75 -14 89 1 81 -27 84 275 l2 221 -67 6 c-38 4 -80 7 -95 7 l-28 0 0
-115 c0 -85 3 -115 13 -116 10 0 10 -2 0 -6 -8 -3 -13 -23 -13 -48 l0 -43 -47
1 c-27 0 -65 -1 -86 -2 l-39 -1 7 -440 6 -440 -75 0 -75 0 -3 -72 -3 -73 -45
-2 c-25 -2 -68 -5 -96 -8 -49 -6 -50 -7 -51 -38 0 -18 -1 -68 -2 -112 l-1 -81
-37 -2 c-20 -2 -39 2 -42 7 -4 5 -51 11 -106 12 -55 1 -106 4 -113 7 -10 3
-13 29 -11 99 l2 95 -89 2 -89 1 -3 88 -3 87 -174 0 -175 0 0 85 0 85 90 0 91
0 -6 92 -6 91 125 -6 c68 -3 150 -3 180 0 l56 6 0 103 c0 57 -4 104 -9 104 -5
0 -8 41 -7 90 l1 90 87 0 88 0 0 150 0 149 98 3 97 3 0 77 c0 64 3 80 19 95
18 16 19 16 7 1 -13 -17 -8 -18 63 -18 l76 0 -6 149 c-3 82 -3 158 0 168 5 16
15 18 76 15 l70 -4 0 102 c0 92 2 101 18 96 9 -3 43 -8 75 -12 l58 -6 -3 96
-3 97 24 -6 c13 -3 95 -3 182 1 l159 7 0 73 0 73 88 3 87 3 4 35 c3 24 6 29 9
15 2 -11 9 -26 14 -32z m-4017 27 c3 -5 1 -10 -4 -10 -6 0 -11 5 -11 10 0 6 2
10 4 10 3 0 8 -4 11 -10z m-65 -10 c0 -5 -5 -10 -11 -10 -5 0 -7 5 -4 10 3 6
8 10 11 10 2 0 4 -4 4 -10z m4035 -10 c3 -5 1 -10 -4 -10 -6 0 -11 5 -11 10 0
6 2 10 4 10 3 0 8 -4 11 -10z m-5545 -48 c0 -15 -2 -15 -10 -2 -13 20 -13 33
0 25 6 -3 10 -14 10 -23z m80 18 c0 -5 -7 -7 -15 -4 -8 4 -15 8 -15 10 0 2 7
4 15 4 8 0 15 -4 15 -10z m-85 -50 c3 -5 1 -10 -4 -10 -6 0 -11 5 -11 10 0 6
2 10 4 10 3 0 8 -4 11 -10z m878 3 c-7 -2 -19 -2 -25 0 -7 3 -2 5 12 5 14 0
19 -2 13 -5z m897 -14 c0 -6 -4 -7 -10 -4 -5 3 -10 11 -10 16 0 6 5 7 10 4 6
-3 10 -11 10 -16z m-1643 -5 c-3 -3 -12 -4 -19 -1 -8 3 -5 6 6 6 11 1 17 -2
13 -5z m733 -36 c0 -4 -4 -8 -9 -8 -6 0 -12 4 -15 8 -3 5 1 9 9 9 8 0 15 -4
15 -9z m-793 -54 c-3 -3 -12 -4 -19 -1 -8 3 -5 6 6 6 11 1 17 -2 13 -5z m7817
-9 c-4 -8 -8 -15 -10 -15 -2 0 -4 7 -4 15 0 8 4 15 10 15 5 0 7 -7 4 -15z
m100 -11 c3 -7 -5 -9 -20 -6 -13 2 -24 7 -24 11 0 11 39 7 44 -5z m-7934 -4
c0 -5 -5 -10 -11 -10 -5 0 -7 5 -4 10 3 6 8 10 11 10 2 0 4 -4 4 -10z m-1395
-20 c9 -14 -4 -52 -16 -45 -10 7 -8 55 3 55 4 0 10 -5 13 -10z m45 6 c0 -3 -4
-8 -10 -11 -5 -3 -10 -1 -10 4 0 6 5 11 10 11 6 0 10 -2 10 -4z m1420 -56 c0
-5 -4 -10 -10 -10 -5 0 -10 5 -10 10 0 6 5 10 10 10 6 0 10 -4 10 -10z m5590
6 c0 -3 -4 -8 -10 -11 -5 -3 -10 -1 -10 4 0 6 5 11 10 11 6 0 10 -2 10 -4z
m-5597 -56 c-7 -28 -13 -25 -13 6 0 14 4 23 9 20 5 -3 7 -15 4 -26z m5647 20
c-8 -5 -19 -10 -25 -10 -5 0 -3 5 5 10 8 5 20 10 25 10 6 0 3 -5 -5 -10z
m-855 -10 c-3 -5 -11 -10 -16 -10 -6 0 -7 5 -4 10 3 6 11 10 16 10 6 0 7 -4 4
-10z m-350 -70 c3 -5 1 -10 -4 -10 -6 0 -11 5 -11 10 0 6 2 10 4 10 3 0 8 -4
11 -10z m3532 -57 c-3 -10 -5 -2 -5 17 0 19 2 27 5 18 2 -10 2 -26 0 -35z
m-5807 6 c0 -5 -4 -9 -10 -9 -5 0 -10 7 -10 16 0 8 5 12 10 9 6 -3 10 -10 10
-16z m3667 -25 c-3 -3 -12 -4 -19 -1 -8 3 -5 6 6 6 11 1 17 -2 13 -5z m963
-10 c0 -8 -5 -12 -10 -9 -6 4 -8 11 -5 16 9 14 15 11 15 -7z m-4390 -48 c0 -3
-4 -8 -10 -11 -5 -3 -10 -1 -10 4 0 6 5 11 10 11 6 0 10 -2 10 -4z m3427 -22
c-3 -3 -12 -4 -19 -1 -8 3 -5 6 6 6 11 1 17 -2 13 -5z m6 -76 c6 -17 -10 -58
-22 -58 -7 0 -9 48 -2 68 3 7 20 0 24 -10z m-7286 -14 c-3 -3 -12 -4 -19 -1
-8 3 -5 6 6 6 11 1 17 -2 13 -5z m7890 -96 c-3 -8 -6 -5 -6 6 -1 11 2 17 5 13
3 -3 4 -12 1 -19z m-2127 -4 c0 -2 -7 -4 -15 -4 -8 0 -15 4 -15 10 0 5 7 7 15
4 8 -4 15 -8 15 -10z m100 -55 c0 -6 -4 -7 -10 -4 -5 3 -10 11 -10 16 0 6 5 7
10 4 6 -3 10 -11 10 -16z m3973 -16 c-7 -2 -19 -2 -25 0 -7 3 -2 5 12 5 14 0
19 -2 13 -5z m-2253 -43 c0 -5 -2 -10 -4 -10 -3 0 -8 5 -11 10 -3 6 -1 10 4
10 6 0 11 -4 11 -10z m295 -29 c-6 -5 -25 10 -25 20 0 5 6 4 14 -3 8 -7 12
-15 11 -17z m-2245 -81 c8 -5 11 -10 5 -10 -5 0 -17 5 -25 10 -8 5 -10 10 -5
10 6 0 17 -5 25 -10z m-20 -22 c0 -11 -28 -10 -35 1 -3 6 4 9 15 8 11 -1 20
-5 20 -9z m-3 -94 c-3 -3 -12 -4 -19 -1 -8 3 -5 6 6 6 11 1 17 -2 13 -5z m50
-16 c-3 -8 -6 -5 -6 6 -1 11 2 17 5 13 3 -3 4 -12 1 -19z m-62 -8 c3 -5 1 -10
-4 -10 -6 0 -11 5 -11 10 0 6 2 10 4 10 3 0 8 -4 11 -10z m-2222 -7 c-7 -2
-19 -2 -25 0 -7 3 -2 5 12 5 14 0 19 -2 13 -5z m2287 -37 c0 -3 -4 -8 -10 -11
-5 -3 -10 -1 -10 4 0 6 5 11 10 11 6 0 10 -2 10 -4z m-97 -73 c-7 -2 -21 -2
-30 0 -10 3 -4 5 12 5 17 0 24 -2 18 -5z m7 -17 c0 -3 -4 -8 -10 -11 -5 -3
-10 -1 -10 4 0 6 5 11 10 11 6 0 10 -2 10 -4z m-120 -46 c0 -5 -7 -10 -15 -10
-8 0 -15 5 -15 10 0 6 7 10 15 10 8 0 15 -4 15 -10z m-850 -25 c0 -8 -4 -15
-10 -15 -5 0 -7 7 -4 15 4 8 8 15 10 15 2 0 4 -7 4 -15z m-130 1 c0 -3 -4 -8
-10 -11 -5 -3 -10 -1 -10 4 0 6 5 11 10 11 6 0 10 -2 10 -4z m964 -11 c-4 -8
-8 -15 -10 -15 -2 0 -4 7 -4 15 0 8 4 15 10 15 5 0 7 -7 4 -15z m30 -10 c-4
-8 -8 -15 -10 -15 -2 0 -4 7 -4 15 0 8 4 15 10 15 5 0 7 -7 4 -15z m-4534 -95
c0 -5 -4 -10 -10 -10 -5 0 -10 5 -10 10 0 6 5 10 10 10 6 0 10 -4 10 -10z m3
-60 c3 -11 1 -18 -4 -14 -5 3 -9 12 -9 20 0 20 7 17 13 -6z m3384 -57 c-3 -10
-5 -4 -5 12 0 17 2 24 5 18 2 -7 2 -21 0 -30z m-4527 -3 c0 -5 -6 -10 -14 -10
-8 0 -18 5 -21 10 -3 6 3 10 14 10 12 0 21 -4 21 -10z m988 -180 c-3 -119 -1
-140 12 -141 10 0 11 -2 3 -6 -9 -3 -13 -37 -13 -119 l0 -114 123 -2 c67 -1
147 -2 177 -2 l55 -1 3 -87 3 -88 524 0 525 0 2 38 c1 20 1 61 1 90 l0 52 89
0 88 0 0 90 0 90 164 0 164 0 7 -84 7 -83 52 -7 c28 -3 68 -6 89 -6 28 0 37
-4 38 -17 1 -20 1 -135 0 -144 -1 -3 -13 -11 -27 -17 -14 -7 -23 -9 -20 -4 2
4 -23 9 -57 10 -34 2 -64 6 -67 11 -3 5 -47 4 -97 -2 l-93 -11 0 -77 c0 -105
2 -109 60 -109 79 0 140 -11 140 -26 0 -8 -6 -14 -12 -15 -10 0 -10 -2 0 -6 7
-3 12 -24 12 -55 l0 -50 83 4 82 4 2 -88 2 -88 -78 0 c-44 0 -87 -3 -97 -7
-12 -4 -15 -3 -10 5 5 9 -12 12 -66 10 -40 0 -57 -3 -38 -5 48 -6 63 -23 19
-22 -36 0 -123 16 -101 18 7 0 11 5 8 9 -3 5 -6 45 -7 90 l-2 82 -88 0 -89 0
0 -84 0 -83 -908 -1 c-499 0 -932 3 -962 6 l-55 7 3 81 4 81 -72 -4 -72 -4 3
85 c2 47 0 88 -4 92 -4 4 -7 43 -7 86 l0 79 -94 -4 -93 -4 1 343 1 344 343 0
344 0 -4 -140z m8982 80 c0 -5 -8 -10 -17 -10 -15 0 -16 2 -3 10 19 12 20 12
20 0z m-8830 -56 c0 -8 -5 -12 -10 -9 -6 4 -8 11 -5 16 9 14 15 11 15 -7z
m-1157 -1 c-7 -2 -19 -2 -25 0 -7 3 -2 5 12 5 14 0 19 -2 13 -5z m37 -14 c0
-6 -4 -7 -10 -4 -5 3 -10 11 -10 16 0 6 5 7 10 4 6 -3 10 -11 10 -16z m30 17
c0 -3 -4 -8 -10 -11 -5 -3 -10 -1 -10 4 0 6 5 11 10 11 6 0 10 -2 10 -4z
m3740 -32 c0 -2 -7 -4 -15 -4 -8 0 -15 4 -15 10 0 5 7 7 15 4 8 -4 15 -8 15
-10z m-2685 -94 c3 -5 1 -10 -4 -10 -6 0 -11 5 -11 10 0 6 2 10 4 10 3 0 8 -4
11 -10z m2005 -126 c0 -8 -4 -12 -10 -9 -5 3 -10 10 -10 16 0 5 5 9 10 9 6 0
10 -7 10 -16z m-1910 -24 c0 -5 -2 -10 -4 -10 -3 0 -8 5 -11 10 -3 6 -1 10 4
10 6 0 11 -4 11 -10z m37 4 c-3 -3 -12 -4 -19 -1 -8 3 -5 6 6 6 11 1 17 -2 13
-5z m2043 -74 c0 -5 -2 -10 -4 -10 -3 0 -8 5 -11 10 -3 6 -1 10 4 10 6 0 11
-4 11 -10z m-1280 -120 c0 -5 -2 -10 -4 -10 -3 0 -8 5 -11 10 -3 6 -1 10 4 10
6 0 11 -4 11 -10z m107 -26 c-3 -3 -12 -4 -19 -1 -8 3 -5 6 6 6 11 1 17 -2 13
-5z m60 0 c-3 -3 -12 -4 -19 -1 -8 3 -5 6 6 6 11 1 17 -2 13 -5z m6190 -16
c-3 -8 -6 -5 -6 6 -1 11 2 17 5 13 3 -3 4 -12 1 -19z m-5190 -20 c-3 -8 -6 -5
-6 6 -1 11 2 17 5 13 3 -3 4 -12 1 -19z m2176 -15 c-7 -2 -19 -2 -25 0 -7 3
-2 5 12 5 14 0 19 -2 13 -5z m-72 -19 l139 -7 0 -84 0 -83 80 0 80 0 0 -39 c0
-51 10 -78 21 -60 4 8 11 11 14 7 3 -3 -2 -13 -11 -23 -14 -14 -18 -38 -21
-113 -1 -52 -4 -96 -6 -98 -1 -2 -36 -6 -77 -10 -72 -6 -107 -14 -62 -14 12 0
22 -4 22 -10 0 -5 -9 -10 -20 -10 -18 0 -20 -7 -20 -57 -1 -108 -9 -245 -15
-252 -8 -7 -345 -5 -352 3 -9 8 -13 76 -5 76 4 0 7 22 7 50 1 29 7 55 14 62
11 10 12 10 7 1 -5 -10 10 -13 62 -13 l69 0 6 38 c3 20 6 99 7 175 l1 137 -48
-4 c-26 -2 -54 -4 -60 -5 -7 -1 -13 -8 -13 -17 0 -12 -6 -15 -25 -10 -24 6
-25 5 -27 -46 -1 -29 -1 -63 -1 -75 1 -20 -4 -21 -85 -27 -48 -3 -130 -8 -182
-12 l-95 -6 3 90 3 91 95 -5 94 -5 0 50 c0 34 4 51 13 52 10 0 10 2 0 6 -15 6
-18 63 -3 63 6 0 10 -4 10 -9 0 -4 33 -9 74 -10 l75 -2 3 33 c2 18 1 58 -2 88
-3 30 -3 66 -2 79 3 22 7 23 48 17 25 -3 108 -9 185 -12z m-2011 -89 l0 -85
-75 0 -75 0 0 85 0 85 75 0 75 0 0 -85z m4570 55 c0 -5 -2 -10 -4 -10 -3 0 -8
5 -11 10 -3 6 -1 10 4 10 6 0 11 -4 11 -10z m530 -20 c0 -5 -5 -10 -11 -10 -5
0 -7 5 -4 10 3 6 8 10 11 10 2 0 4 -4 4 -10z m-5030 -10 c0 -5 -2 -10 -4 -10
-3 0 -8 5 -11 10 -3 6 -1 10 4 10 6 0 11 -4 11 -10z m4839 -34 c-9 -8 -10 -7
-5 7 3 10 7 24 7 30 1 7 3 4 6 -7 3 -10 -1 -23 -8 -30z m-1492 -12 c-3 -3 -12
-4 -19 -1 -8 3 -5 6 6 6 11 1 17 -2 13 -5z m1810 -16 c-3 -8 -6 -5 -6 6 -1 11
2 17 5 13 3 -3 4 -12 1 -19z m-2877 8 c0 -3 -4 -8 -10 -11 -5 -3 -10 -1 -10 4
0 6 5 11 10 11 6 0 10 -2 10 -4z m980 -75 c3 -5 7 -42 8 -81 l3 -71 -163 3
-163 3 -3 80 -3 81 158 -3 c86 -2 159 -7 163 -12z m1590 -2 c0 -5 31 -9 69 -9
l69 0 4 -56 c1 -31 0 -58 -4 -60 -3 -2 -4 -13 -1 -24 4 -17 14 -20 54 -20 31
0 49 -4 49 -12 0 -9 3 -9 12 0 7 7 25 12 40 12 28 0 28 -1 28 -60 0 -41 -4
-60 -12 -61 -10 0 -10 -2 0 -6 9 -3 12 -50 12 -183 l0 -177 -52 -7 c-28 -4
-101 -6 -162 -6 -61 1 -119 2 -129 1 -17 0 -18 8 -16 87 1 48 2 160 1 250 l-2
162 -75 0 c-46 0 -75 -4 -75 -11 0 -5 -5 -7 -11 -3 -8 5 -8 9 1 14 12 7 8 149
-5 170 -4 6 35 10 99 9 59 0 106 -5 106 -10z m-5120 -9 c0 -5 -2 -10 -4 -10
-3 0 -8 5 -11 10 -3 6 -1 10 4 10 6 0 11 -4 11 -10z m603 3 c-7 -2 -19 -2 -25
0 -7 3 -2 5 12 5 14 0 19 -2 13 -5z m597 -73 c0 -5 -5 -10 -11 -10 -5 0 -7 5
-4 10 3 6 8 10 11 10 2 0 4 -4 4 -10z m425 -10 c3 -5 1 -10 -4 -10 -6 0 -11 5
-11 10 0 6 2 10 4 10 3 0 8 -4 11 -10z m-1548 -6 c-3 -3 -12 -4 -19 -1 -8 3
-5 6 6 6 11 1 17 -2 13 -5z m2748 -14 c3 -5 1 -10 -4 -10 -6 0 -11 5 -11 10 0
6 2 10 4 10 3 0 8 -4 11 -10z m-235 -15 c0 -2 -13 -5 -30 -7 -19 -3 -30 0 -30
7 0 7 11 10 30 7 17 -2 30 -5 30 -7z m-2525 -5 c3 -5 1 -10 -4 -10 -6 0 -11 5
-11 10 0 6 2 10 4 10 3 0 8 -4 11 -10z m2625 4 c0 -8 -19 -13 -24 -6 -3 5 1 9
9 9 8 0 15 -2 15 -3z m75 -33 c-3 -12 -11 -19 -16 -16 -5 4 -3 14 3 25 15 24
22 19 13 -9z m2775 13 c0 -8 -5 -12 -10 -9 -6 4 -8 11 -5 16 9 14 15 11 15 -7z
m-8110 -15 c0 -11 -4 -18 -10 -14 -5 3 -7 12 -3 20 7 21 13 19 13 -6z m8045
11 c19 -8 19 -9 -2 -9 -12 -1 -25 4 -28 9 -7 12 2 12 30 0z m-3415 -10 c0 -5
-4 -10 -10 -10 -5 0 -10 5 -10 10 0 6 5 10 10 10 6 0 10 -4 10 -10z m2488 -6
l182 -7 0 -86 0 -86 92 -2 c50 -2 93 -4 94 -6 2 -2 5 -36 7 -75 2 -59 0 -72
-13 -73 -10 0 -11 -2 -2 -6 15 -6 16 -53 1 -53 -7 0 -10 -22 -7 -62 l3 -63
-81 3 -81 3 -6 -67 c-4 -37 -8 -68 -9 -69 -2 -2 -57 -5 -123 -8 -66 -4 -146
-13 -178 -22 -69 -18 -158 -20 -175 -3 -9 9 -12 -9 -12 -83 l0 -95 -80 -1
c-69 -2 -80 0 -81 15 -1 15 -2 15 -6 -1 -4 -15 -13 -18 -56 -15 -29 2 -55 8
-59 13 -5 7 -8 6 -8 0 0 -6 -14 -9 -34 -7 l-33 4 2 80 c1 43 7 84 13 90 11 11
70 12 145 4 l27 -3 0 77 c0 60 -3 79 -15 84 -8 3 -15 10 -15 16 0 7 6 8 18 2
14 -8 129 -10 179 -4 9 2 13 27 12 92 l-2 90 -86 0 c-47 0 -131 -3 -186 -8
-94 -7 -97 -7 -45 -13 l55 -6 -52 -1 -53 -2 1 -54 c1 -29 -2 -59 -6 -66 -4 -7
-2 -16 6 -21 10 -6 5 -9 -16 -10 -37 -2 -29 -2 -97 4 l-58 6 0 -97 0 -98 -87
8 c-124 10 -163 18 -163 31 0 8 -3 7 -9 -1 -5 -8 -21 -12 -37 -10 -26 3 -29 7
-32 46 -2 31 1 44 12 48 9 3 16 11 16 16 0 6 -6 5 -15 -2 -13 -11 -15 -8 -15
19 0 28 3 30 28 26 15 -2 54 -6 88 -9 l61 -5 -4 94 c-3 92 3 115 29 99 16 -10
98 -11 98 -1 0 5 9 5 20 2 19 -6 20 -2 20 74 0 50 -4 81 -11 81 -5 0 -7 5 -3
12 6 9 9 9 12 0 2 -8 31 -12 88 -12 l84 0 0 89 0 90 43 4 c45 5 318 1 615 -9z
m-7251 0 c-3 -3 -12 -4 -19 -1 -8 3 -5 6 6 6 11 1 17 -2 13 -5z m6133 -9 c0
-8 -4 -15 -10 -15 -5 0 -7 7 -4 15 4 8 8 15 10 15 2 0 4 -7 4 -15z m-6253 -1
c-3 -3 -12 -4 -19 -1 -8 3 -5 6 6 6 11 1 17 -2 13 -5z m-77 -31 c0 -5 -4 -14
-9 -21 -6 -10 -10 -9 -14 7 -3 14 0 21 9 21 8 0 14 -3 14 -7z m4477 -45 c-3
-8 -6 -5 -6 6 -1 11 2 17 5 13 3 -3 4 -12 1 -19z m-4307 -38 c0 -5 -4 -10 -10
-10 -5 0 -10 5 -10 10 0 6 5 10 10 10 6 0 10 -4 10 -10z m5514 -5 c-4 -8 -8
-15 -10 -15 -2 0 -4 7 -4 15 0 8 4 15 10 15 5 0 7 -7 4 -15z m191 -2 c-2 -10
-4 -20 -4 -23 -2 -7 -21 23 -21 33 0 4 6 7 14 7 8 0 13 -8 11 -17z m-3624 -56
c-10 -9 -11 -8 -5 6 3 10 9 15 12 12 3 -3 0 -11 -7 -18z m2389 2 c0 -5 -11 -9
-25 -9 -14 0 -25 4 -25 9 0 5 11 9 25 9 14 0 25 -4 25 -9z m3827 -11 c-3 -8
-6 -5 -6 6 -1 11 2 17 5 13 3 -3 4 -12 1 -19z m-7687 2 c0 -5 -7 -7 -15 -4 -8
4 -15 8 -15 10 0 2 7 4 15 4 8 0 15 -4 15 -10z m63 3 c-7 -2 -21 -2 -30 0 -10
3 -4 5 12 5 17 0 24 -2 18 -5z m2027 -97 c0 -3 -4 -8 -10 -11 -5 -3 -10 -1
-10 4 0 6 5 11 10 11 6 0 10 -2 10 -4z m1860 -10 c0 -3 -4 -8 -10 -11 -5 -3
-10 -1 -10 4 0 6 5 11 10 11 6 0 10 -2 10 -4z m3140 -36 c0 -5 -5 -10 -11 -10
-5 0 -7 5 -4 10 3 6 8 10 11 10 2 0 4 -4 4 -10z m0 -30 c0 -5 -5 -10 -11 -10
-5 0 -7 5 -4 10 3 6 8 10 11 10 2 0 4 -4 4 -10z m1170 0 c0 -5 -5 -10 -11 -10
-5 0 -7 5 -4 10 3 6 8 10 11 10 2 0 4 -4 4 -10z m-4730 -224 c0 -3 -4 -8 -10
-11 -5 -3 -10 -1 -10 4 0 6 5 11 10 11 6 0 10 -2 10 -4z m2515 -6 c-3 -5 -11
-10 -16 -10 -6 0 -7 5 -4 10 3 6 11 10 16 10 6 0 7 -4 4 -10z m855 0 c0 -5 -4
-10 -10 -10 -5 0 -10 5 -10 10 0 6 5 10 10 10 6 0 10 -4 10 -10z m280 0 c0 -5
-5 -10 -11 -10 -5 0 -7 5 -4 10 3 6 8 10 11 10 2 0 4 -4 4 -10z m-3103 -6 c-3
-3 -12 -4 -19 -1 -8 3 -5 6 6 6 11 1 17 -2 13 -5z m40 -36 c-3 -8 -6 -5 -6 6
-1 11 2 17 5 13 3 -3 4 -12 1 -19z m1923 1 c0 -11 -4 -18 -10 -14 -5 3 -7 12
-3 20 7 21 13 19 13 -6z m-1775 -9 c3 -6 -1 -7 -9 -4 -18 7 -21 14 -7 14 6 0
13 -4 16 -10z m-985 -40 c0 -5 -2 -10 -4 -10 -3 0 -8 5 -11 10 -3 6 -1 10 4
10 6 0 11 -4 11 -10z m551 -143 c-10 -9 -11 -8 -5 6 3 10 9 15 12 12 3 -3 0
-11 -7 -18z m3179 13 c0 -5 -4 -10 -10 -10 -5 0 -10 5 -10 10 0 6 5 10 10 10
6 0 10 -4 10 -10z m-3260 -4 c0 -3 -4 -8 -10 -11 -5 -3 -10 -1 -10 4 0 6 5 11
10 11 6 0 10 -2 10 -4z m-440 -58 c0 -4 -12 -8 -26 -8 -14 0 -23 4 -20 8 2 4
14 8 25 8 12 0 21 -4 21 -8z m410 -2 c0 -3 -4 -8 -10 -11 -5 -3 -10 -1 -10 4
0 6 5 11 10 11 6 0 10 -2 10 -4z m-3 -142 c-3 -3 -12 -4 -19 -1 -8 3 -5 6 6 6
11 1 17 -2 13 -5z"/>
<path d="M7655 6710 c3 -5 10 -10 16 -10 5 0 9 5 9 10 0 6 -7 10 -16 10 -8 0
-12 -4 -9 -10z"/>
<path d="M7915 6690 c-3 -5 -1 -10 4 -10 6 0 11 5 11 10 0 6 -2 10 -4 10 -3 0
-8 -4 -11 -10z"/>
<path d="M7645 6670 c3 -5 11 -10 16 -10 6 0 7 5 4 10 -3 6 -11 10 -16 10 -6
0 -7 -4 -4 -10z"/>
<path d="M7550 6570 c0 -5 5 -10 10 -10 6 0 10 5 10 10 0 6 -4 10 -10 10 -5 0
-10 -4 -10 -10z"/>
<path d="M7520 6560 c0 -5 5 -10 10 -10 6 0 10 5 10 10 0 6 -4 10 -10 10 -5 0
-10 -4 -10 -10z"/>
<path d="M7430 6530 c0 -5 5 -10 10 -10 6 0 10 5 10 10 0 6 -4 10 -10 10 -5 0
-10 -4 -10 -10z"/>
<path d="M3375 6830 c-3 -5 -1 -10 4 -10 6 0 11 5 11 10 0 6 -2 10 -4 10 -3 0
-8 -4 -11 -10z"/>
<path d="M3215 6800 c-3 -5 -1 -10 4 -10 6 0 11 5 11 10 0 6 -2 10 -4 10 -3 0
-8 -4 -11 -10z"/>
<path d="M3165 6750 c-3 -5 -1 -10 4 -10 6 0 11 5 11 10 0 6 -2 10 -4 10 -3 0
-8 -4 -11 -10z"/>
<path d="M3231 6751 c-8 -5 -20 -7 -28 -4 -7 3 -13 1 -13 -4 0 -14 -38 -33
-55 -27 -8 3 -15 13 -15 21 0 10 -6 13 -16 9 -9 -3 -21 -6 -27 -6 -8 0 -13
-29 -15 -87 -2 -48 -6 -91 -8 -94 -2 -4 1 -64 8 -133 l12 -126 45 -1 c25 -1
59 0 74 1 15 1 34 -3 41 -9 11 -9 14 5 15 76 1 48 6 92 11 98 6 7 6 15 0 21
-5 5 -11 69 -12 141 -3 111 -5 131 -17 124z"/>
<path d="M3130 6740 c0 -5 5 -10 10 -10 6 0 10 5 10 10 0 6 -4 10 -10 10 -5 0
-10 -4 -10 -10z"/>
<path d="M2200 6510 l1 -230 164 0 165 0 0 230 0 230 -165 0 -165 0 0 -230z"/>
<path d="M3300 6711 c0 -25 6 -27 13 -6 4 8 2 17 -3 20 -6 4 -10 -3 -10 -14z"/>
<path d="M3335 6720 c-4 -7 -2 -16 6 -21 18 -11 23 -4 11 17 -7 12 -11 13 -17
4z"/>
<path d="M3340 6580 c0 -5 5 -10 11 -10 5 0 7 5 4 10 -3 6 -8 10 -11 10 -2 0
-4 -4 -4 -10z"/>
<path d="M3280 6520 c0 -5 5 -10 11 -10 5 0 7 5 4 10 -3 6 -8 10 -11 10 -2 0
-4 -4 -4 -10z"/>
<path d="M3330 6520 c0 -5 5 -10 10 -10 6 0 10 5 10 10 0 6 -4 10 -10 10 -5 0
-10 -4 -10 -10z"/>
<path d="M3335 6410 c3 -5 8 -10 11 -10 2 0 4 5 4 10 0 6 -5 10 -11 10 -5 0
-7 -4 -4 -10z"/>
<path d="M2712 6106 c2 -163 3 -176 20 -176 10 0 18 5 18 10 0 6 5 10 11 10 5
0 8 -4 4 -9 -5 -9 247 -20 293 -12 21 3 22 8 22 97 l0 94 -90 0 -90 0 0 75 0
74 -68 0 c-37 0 -80 3 -94 6 l-27 7 1 -176z"/>
<path d="M3255 6230 c-3 -5 -1 -10 4 -10 6 0 11 5 11 10 0 6 -2 10 -4 10 -3 0
-8 -4 -11 -10z"/>
<path d="M3390 6139 c0 -5 5 -7 10 -4 6 3 10 8 10 11 0 2 -4 4 -10 4 -5 0 -10
-5 -10 -11z"/>
<path d="M3220 6125 c0 -8 4 -15 10 -15 5 0 7 7 4 15 -4 8 -8 15 -10 15 -2 0
-4 -7 -4 -15z"/>
<path d="M3290 5980 c-9 -6 -10 -10 -3 -10 6 0 15 5 18 10 8 12 4 12 -15 0z"/>
<path d="M3320 5970 c-9 -6 -10 -10 -3 -10 6 0 15 5 18 10 8 12 4 12 -15 0z"/>
<path d="M3165 5940 c3 -5 8 -10 11 -10 2 0 4 5 4 10 0 6 -5 10 -11 10 -5 0
-7 -4 -4 -10z"/>
<path d="M3270 5934 c0 -8 5 -12 10 -9 6 4 8 11 5 16 -9 14 -15 11 -15 -7z"/>
<path d="M3280 5901 c0 -6 5 -13 10 -16 6 -3 10 1 10 9 0 9 -4 16 -10 16 -5 0
-10 -4 -10 -9z"/>
<path d="M2966 5855 c-9 -26 -7 -32 5 -12 6 10 9 21 6 23 -2 3 -7 -2 -11 -11z"/>
<path d="M3360 5850 c0 -5 5 -10 10 -10 6 0 10 5 10 10 0 6 -4 10 -10 10 -5 0
-10 -4 -10 -10z"/>
<path d="M3340 5805 c0 -8 5 -15 10 -15 6 0 10 7 10 15 0 8 -4 15 -10 15 -5 0
-10 -7 -10 -15z"/>
<path d="M3140 5778 c0 -19 2 -20 10 -8 13 19 13 30 0 30 -5 0 -10 -10 -10
-22z"/>
<path d="M3380 5754 c0 -8 5 -12 10 -9 6 4 8 11 5 16 -9 14 -15 11 -15 -7z"/>
<path d="M2200 5720 c0 -17 5 -30 12 -30 9 0 9 -3 0 -12 -7 -7 -12 -41 -12
-84 0 -61 3 -73 18 -77 16 -4 16 -5 0 -6 -15 -1 -18 -10 -18 -51 l0 -50 90 0
90 0 2 -47 c1 -27 1 -67 0 -90 l-2 -43 256 0 255 0 -3 90 -3 90 103 0 102 0 0
164 0 164 -47 4 c-54 5 -83 0 -83 -13 0 -5 8 -9 18 -9 14 0 15 -2 2 -9 -10 -7
-18 -4 -28 10 -7 10 -22 19 -33 19 -17 0 -19 -7 -19 -75 l0 -75 -260 0 -260 0
0 80 0 80 -90 0 -90 0 0 -30z m377 -206 c-3 -3 -12 -4 -19 -1 -8 3 -5 6 6 6
11 1 17 -2 13 -5z m290 -30 c-3 -3 -12 -4 -19 -1 -8 3 -5 6 6 6 11 1 17 -2 13
-5z"/>
<path d="M3130 5720 c0 -5 5 -10 11 -10 5 0 7 5 4 10 -3 6 -8 10 -11 10 -2 0
-4 -4 -4 -10z"/>
<path d="M3300 5721 c0 -5 7 -11 15 -15 9 -3 15 0 15 9 0 8 -7 15 -15 15 -8 0
-15 -4 -15 -9z"/>
<path d="M3327 5662 c1 -8 3 -16 3 -18 0 -2 7 -4 15 -4 8 0 15 5 15 10 0 6 -6
10 -14 10 -8 0 -16 3 -19 8 -2 4 -2 1 0 -6z"/>
<path d="M2600 5610 c0 -5 5 -10 10 -10 6 0 10 5 10 10 0 6 -4 10 -10 10 -5 0
-10 -4 -10 -10z"/>
<path d="M3071 5174 c0 -11 3 -14 6 -6 3 7 2 16 -1 19 -3 4 -6 -2 -5 -13z"/>
<path d="M4625 6500 c3 -5 11 -10 16 -10 6 0 7 5 4 10 -3 6 -11 10 -16 10 -6
0 -7 -4 -4 -10z"/>
<path d="M4510 6460 c0 -5 5 -10 11 -10 5 0 7 5 4 10 -3 6 -8 10 -11 10 -2 0
-4 -4 -4 -10z"/>
<path d="M4530 6420 c0 -5 5 -10 11 -10 5 0 7 5 4 10 -3 6 -8 10 -11 10 -2 0
-4 -4 -4 -10z"/>
<path d="M4560 6360 c0 -5 5 -10 11 -10 5 0 7 5 4 10 -3 6 -8 10 -11 10 -2 0
-4 -4 -4 -10z"/>
<path d="M4560 6300 c-8 -5 -10 -10 -5 -10 6 0 17 5 25 10 8 5 11 10 5 10 -5
0 -17 -5 -25 -10z"/>
<path d="M4630 6300 c0 -5 5 -10 11 -10 5 0 7 5 4 10 -3 6 -8 10 -11 10 -2 0
-4 -4 -4 -10z"/>
<path d="M4590 6246 c0 -2 7 -7 16 -10 8 -3 12 -2 9 4 -6 10 -25 14 -25 6z"/>
<path d="M4510 6209 c0 -5 5 -7 10 -4 6 3 10 8 10 11 0 2 -4 4 -10 4 -5 0 -10
-5 -10 -11z"/>
<path d="M4600 6180 c0 -5 5 -10 10 -10 6 0 10 5 10 10 0 6 -4 10 -10 10 -5 0
-10 -4 -10 -10z"/>
<path d="M4540 6090 c0 -5 5 -10 11 -10 5 0 7 5 4 10 -3 6 -8 10 -11 10 -2 0
-4 -4 -4 -10z"/>
<path d="M4548 6053 c7 -3 16 -2 19 1 4 3 -2 6 -13 5 -11 0 -14 -3 -6 -6z"/>
<path d="M4610 6010 c-13 -8 -12 -10 3 -10 9 0 17 5 17 10 0 12 -1 12 -20 0z"/>
<path d="M4510 5980 c0 -5 5 -10 11 -10 5 0 7 5 4 10 -3 6 -8 10 -11 10 -2 0
-4 -4 -4 -10z"/>
<path d="M4570 5980 c0 -5 5 -10 10 -10 6 0 10 5 10 10 0 6 -4 10 -10 10 -5 0
-10 -4 -10 -10z"/>
<path d="M4895 5930 c4 -6 11 -8 16 -5 14 9 11 15 -7 15 -8 0 -12 -5 -9 -10z"/>
<path d="M4610 5920 c0 -5 5 -10 10 -10 6 0 10 5 10 10 0 6 -4 10 -10 10 -5 0
-10 -4 -10 -10z"/>
<path d="M4400 5900 c0 -5 5 -10 11 -10 5 0 7 5 4 10 -3 6 -8 10 -11 10 -2 0
-4 -4 -4 -10z"/>
<path d="M4430 5890 c0 -5 5 -10 11 -10 5 0 7 5 4 10 -3 6 -8 10 -11 10 -2 0
-4 -4 -4 -10z"/>
<path d="M4710 5809 c0 -5 5 -7 10 -4 6 3 10 8 10 11 0 2 -4 4 -10 4 -5 0 -10
-5 -10 -11z"/>
<path d="M4430 5780 c0 -5 5 -10 10 -10 6 0 10 5 10 10 0 6 -4 10 -10 10 -5 0
-10 -4 -10 -10z"/>
<path d="M4930 5766 c0 -2 7 -7 16 -10 8 -3 12 -2 9 4 -6 10 -25 14 -25 6z"/>
<path d="M5075 5690 c3 -5 8 -10 11 -10 2 0 4 5 4 10 0 6 -5 10 -11 10 -5 0
-7 -4 -4 -10z"/>
<path d="M5040 5659 c0 -5 5 -7 10 -4 6 3 10 8 10 11 0 2 -4 4 -10 4 -5 0 -10
-5 -10 -11z"/>
<path d="M4350 5640 c0 -5 5 -10 10 -10 6 0 10 5 10 10 0 6 -4 10 -10 10 -5 0
-10 -4 -10 -10z"/>
<path d="M4350 5610 c0 -5 5 -10 10 -10 6 0 10 5 10 10 0 6 -4 10 -10 10 -5 0
-10 -4 -10 -10z"/>
<path d="M5045 5580 c-3 -5 -1 -10 4 -10 6 0 11 5 11 10 0 6 -2 10 -4 10 -3 0
-8 -4 -11 -10z"/>
<path d="M4550 5550 c0 -5 7 -10 16 -10 8 0 12 5 9 10 -3 6 -10 10 -16 10 -5
0 -9 -4 -9 -10z"/>
<path d="M4490 5531 c0 -6 5 -13 10 -16 6 -3 10 1 10 9 0 9 -4 16 -10 16 -5 0
-10 -4 -10 -9z"/>
<path d="M5085 5530 c-3 -5 -1 -10 4 -10 6 0 11 5 11 10 0 6 -2 10 -4 10 -3 0
-8 -4 -11 -10z"/>
<path d="M4520 5500 c0 -5 7 -7 15 -4 8 4 15 8 15 10 0 2 -7 4 -15 4 -8 0 -15
-4 -15 -10z"/>
<path d="M4895 5490 c3 -5 8 -10 11 -10 2 0 4 5 4 10 0 6 -5 10 -11 10 -5 0
-7 -4 -4 -10z"/>
<path d="M4955 5490 c-3 -5 -1 -10 4 -10 6 0 11 5 11 10 0 6 -2 10 -4 10 -3 0
-8 -4 -11 -10z"/>
<path d="M4615 5480 c3 -5 8 -10 11 -10 2 0 4 5 4 10 0 6 -5 10 -11 10 -5 0
-7 -4 -4 -10z"/>
<path d="M4535 5450 c3 -5 8 -10 11 -10 2 0 4 5 4 10 0 6 -5 10 -11 10 -5 0
-7 -4 -4 -10z"/>
<path d="M4440 5320 c0 -5 5 -10 11 -10 5 0 7 5 4 10 -3 6 -8 10 -11 10 -2 0
-4 -4 -4 -10z"/>
<path d="M4545 5260 c3 -5 8 -10 11 -10 2 0 4 5 4 10 0 6 -5 10 -11 10 -5 0
-7 -4 -4 -10z"/>
<path d="M4570 5240 c0 -5 5 -10 10 -10 6 0 10 5 10 10 0 6 -4 10 -10 10 -5 0
-10 -4 -10 -10z"/>
<path d="M4690 5195 c0 -8 4 -15 8 -15 5 0 9 7 9 15 0 8 -4 15 -9 15 -4 0 -8
-7 -8 -15z"/>
<path d="M4795 5200 c-3 -5 1 -10 9 -10 9 0 16 5 16 10 0 6 -4 10 -9 10 -6 0
-13 -4 -16 -10z"/>
<path d="M4950 5200 c0 -5 5 -10 10 -10 6 0 10 5 10 10 0 6 -4 10 -10 10 -5 0
-10 -4 -10 -10z"/>
<path d="M4720 5181 c0 -6 5 -13 10 -16 6 -3 10 1 10 9 0 9 -4 16 -10 16 -5 0
-10 -4 -10 -9z"/>
<path d="M4828 5168 c5 -5 16 -8 23 -6 8 3 3 7 -10 11 -17 4 -21 3 -13 -5z"/>
<path d="M4755 5150 c-3 -5 3 -10 15 -10 12 0 18 5 15 10 -3 6 -10 10 -15 10
-5 0 -12 -4 -15 -10z"/>
<path d="M4955 5120 c3 -5 11 -10 16 -10 6 0 7 5 4 10 -3 6 -11 10 -16 10 -6
0 -7 -4 -4 -10z"/>
<path d="M6768 6253 l-28 -4 -2 -125 c-1 -68 -2 -136 -2 -151 l-1 -28 98 -3
97 -2 0 160 0 160 -67 -1 c-38 -1 -80 -4 -95 -6z m102 -23 c0 -5 -2 -10 -4
-10 -3 0 -8 5 -11 10 -3 6 -1 10 4 10 6 0 11 -4 11 -10z m-90 -230 c0 -5 -2
-10 -4 -10 -3 0 -8 5 -11 10 -3 6 -1 10 4 10 6 0 11 -4 11 -10z"/>
<path d="M6990 5859 c0 -5 5 -7 10 -4 6 3 10 8 10 11 0 2 -4 4 -10 4 -5 0 -10
-5 -10 -11z"/>
<path d="M7977 6282 c-5 -7 -6 -20 -3 -30 3 -9 1 -24 -4 -32 -8 -13 -10 -12
-10 3 0 14 -5 17 -22 12 -16 -6 -20 -4 -15 9 9 22 -8 29 -75 31 l-59 2 3 -78
c2 -44 0 -79 -4 -79 -14 0 -9 -177 5 -182 6 -2 54 -2 105 0 l92 3 0 28 c0 24
-4 28 -25 26 -19 -3 -25 1 -25 15 0 10 5 22 10 25 6 3 10 -4 10 -17 0 -20 2
-21 15 -7 13 13 15 40 13 150 -2 74 -7 128 -11 121z m-77 -34 c0 -7 -5 -20
-10 -28 -8 -12 -10 -9 -10 13 0 15 5 27 10 27 6 0 10 -6 10 -12z m73 -85 c-7
-2 -19 -2 -25 0 -7 3 -2 5 12 5 14 0 19 -2 13 -5z m-7 -53 c-2 -22 1 -41 7
-43 6 -2 3 -6 -6 -10 -15 -5 -17 1 -17 43 0 28 4 50 10 50 5 0 8 -18 6 -40z"/>
<path d="M8110 5910 c0 -5 5 -10 10 -10 6 0 10 5 10 10 0 6 -4 10 -10 10 -5 0
-10 -4 -10 -10z"/>
<path d="M8000 5880 c0 -5 5 -10 10 -10 6 0 10 5 10 10 0 6 -4 10 -10 10 -5 0
-10 -4 -10 -10z"/>
<path d="M8210 5870 c0 -5 5 -10 11 -10 5 0 7 5 4 10 -3 6 -8 10 -11 10 -2 0
-4 -4 -4 -10z"/>
<path d="M8050 5859 c0 -5 5 -7 10 -4 6 3 10 8 10 11 0 2 -4 4 -10 4 -5 0 -10
-5 -10 -11z"/>
<path d="M8145 5860 c3 -5 8 -10 11 -10 2 0 4 5 4 10 0 6 -5 10 -11 10 -5 0
-7 -4 -4 -10z"/>
<path d="M7300 5980 c0 -5 5 -10 11 -10 5 0 7 5 4 10 -3 6 -8 10 -11 10 -2 0
-4 -4 -4 -10z"/>
<path d="M9310 5959 c0 -5 5 -7 10 -4 6 3 10 8 10 11 0 2 -4 4 -10 4 -5 0 -10
-5 -10 -11z"/>
<path d="M7370 5900 c0 -5 7 -7 15 -4 8 4 15 8 15 10 0 2 -7 4 -15 4 -8 0 -15
-4 -15 -10z"/>
<path d="M9332 5890 c7 -11 16 -20 21 -20 4 0 3 9 -3 20 -6 11 -15 20 -20 20
-6 0 -5 -9 2 -20z"/>
<path d="M9310 5859 c0 -5 5 -7 10 -4 6 3 10 8 10 11 0 2 -4 4 -10 4 -5 0 -10
-5 -10 -11z"/>
<path d="M9290 5840 c0 -5 5 -10 11 -10 5 0 7 5 4 10 -3 6 -8 10 -11 10 -2 0
-4 -4 -4 -10z"/>
<path d="M9248 5833 c6 -2 18 -2 25 0 6 3 1 5 -13 5 -14 0 -19 -2 -12 -5z"/>
<path d="M9170 5820 c0 -5 5 -10 10 -10 6 0 10 5 10 10 0 6 -4 10 -10 10 -5 0
-10 -4 -10 -10z"/>
<path d="M7096 5556 c-10 -39 -9 -149 2 -176 5 -14 13 -55 16 -92 l8 -68 74 0
74 0 0 -85 0 -85 80 0 80 0 0 -80 0 -80 175 0 175 0 0 80 0 80 95 0 95 0 0
180 0 180 -95 0 -95 0 0 -80 0 -80 -170 0 -170 0 0 73 0 72 -86 -3 -86 -4 7
96 7 96 -90 0 c-86 0 -90 -1 -96 -24z m824 -166 c0 -5 -5 -10 -11 -10 -5 0 -7
5 -4 10 3 6 8 10 11 10 2 0 4 -4 4 -10z m-173 -206 c-3 -3 -12 -4 -19 -1 -8 3
-5 6 6 6 11 1 17 -2 13 -5z m-187 -68 c0 -3 -4 -8 -10 -11 -5 -3 -10 -1 -10 4
0 6 5 11 10 11 6 0 10 -2 10 -4z m90 -136 c0 -5 -5 -10 -11 -10 -5 0 -7 5 -4
10 3 6 8 10 11 10 2 0 4 -4 4 -10z"/>
<path d="M7015 5460 c3 -5 11 -10 16 -10 6 0 7 5 4 10 -3 6 -11 10 -16 10 -6
0 -7 -4 -4 -10z"/>
<path d="M6910 5419 c0 -5 5 -7 10 -4 6 3 10 8 10 11 0 2 -4 4 -10 4 -5 0 -10
-5 -10 -11z"/>
<path d="M6795 5340 c-3 -5 -1 -10 4 -10 6 0 11 5 11 10 0 6 -2 10 -4 10 -3 0
-8 -4 -11 -10z"/>
<path d="M6885 5320 c4 -6 11 -8 16 -5 14 9 11 15 -7 15 -8 0 -12 -5 -9 -10z"/>
<path d="M8380 5079 c0 -5 5 -7 10 -4 6 3 10 8 10 11 0 2 -4 4 -10 4 -5 0 -10
-5 -10 -11z"/>
<path d="M8450 5081 c0 -5 5 -13 10 -16 6 -3 10 -2 10 4 0 5 -4 13 -10 16 -5
3 -10 2 -10 -4z"/>
<path d="M8390 5030 c0 -5 5 -10 10 -10 6 0 10 5 10 10 0 6 -4 10 -10 10 -5 0
-10 -4 -10 -10z"/>
<path d="M8290 5000 c0 -5 5 -10 10 -10 6 0 10 5 10 10 0 6 -4 10 -10 10 -5 0
-10 -4 -10 -10z"/>
<path d="M8420 4965 c0 -8 5 -15 10 -15 6 0 10 7 10 15 0 8 -4 15 -10 15 -5 0
-10 -7 -10 -15z"/>
<path d="M8290 4950 c0 -5 5 -10 11 -10 5 0 7 5 4 10 -3 6 -8 10 -11 10 -2 0
-4 -4 -4 -10z"/>
<path d="M8260 4941 c0 -5 5 -13 10 -16 6 -3 10 -2 10 4 0 5 -4 13 -10 16 -5
3 -10 2 -10 -4z"/>
<path d="M8200 4910 c0 -5 5 -10 10 -10 6 0 10 5 10 10 0 6 -4 10 -10 10 -5 0
-10 -4 -10 -10z"/>
<path d="M7910 4879 c0 -5 5 -7 10 -4 6 3 10 8 10 11 0 2 -4 4 -10 4 -5 0 -10
-5 -10 -11z"/>
<path d="M8190 4850 c0 -5 5 -10 10 -10 6 0 10 5 10 10 0 6 -4 10 -10 10 -5 0
-10 -4 -10 -10z"/>
<path d="M8230 4851 c0 -5 7 -12 16 -15 14 -5 15 -4 4 9 -14 17 -20 19 -20 6z"/>
<path d="M8605 4801 c-3 -6 3 -9 14 -8 11 0 17 5 15 9 -7 11 -22 10 -29 -1z"/>
<path d="M8240 4790 c0 -5 5 -10 10 -10 6 0 10 5 10 10 0 6 -4 10 -10 10 -5 0
-10 -4 -10 -10z"/>
<path d="M8610 4749 c0 -5 5 -7 10 -4 6 3 10 8 10 11 0 2 -4 4 -10 4 -5 0 -10
-5 -10 -11z"/>
<path d="M8625 4720 c3 -5 8 -10 11 -10 2 0 4 5 4 10 0 6 -5 10 -11 10 -5 0
-7 -4 -4 -10z"/>
<path d="M7955 4660 c-3 -6 1 -7 9 -4 18 7 21 14 7 14 -6 0 -13 -4 -16 -10z"/>
<path d="M8055 4660 c-3 -5 -1 -10 4 -10 6 0 11 5 11 10 0 6 -2 10 -4 10 -3 0
-8 -4 -11 -10z"/>
<path d="M7990 4650 c0 -5 5 -10 11 -10 5 0 7 5 4 10 -3 6 -8 10 -11 10 -2 0
-4 -4 -4 -10z"/>
<path d="M7730 4619 c0 -5 5 -7 10 -4 6 3 10 8 10 11 0 2 -4 4 -10 4 -5 0 -10
-5 -10 -11z"/>
<path d="M7960 4620 c0 -5 5 -10 10 -10 6 0 10 5 10 10 0 6 -4 10 -10 10 -5 0
-10 -4 -10 -10z"/>
<path d="M7650 4590 c0 -5 5 -10 10 -10 6 0 10 5 10 10 0 6 -4 10 -10 10 -5 0
-10 -4 -10 -10z"/>
<path d="M7872 4585 c-7 -8 -9 -15 -4 -15 5 0 15 7 22 15 16 19 -1 19 -18 0z"/>
<path d="M7755 4570 c3 -5 8 -10 11 -10 2 0 4 5 4 10 0 6 -5 10 -11 10 -5 0
-7 -4 -4 -10z"/>
<path d="M8600 4552 c0 -4 10 -9 22 -9 18 -2 20 0 8 7 -18 12 -30 13 -30 2z"/>
<path d="M8250 4491 c0 -6 5 -13 10 -16 6 -3 10 1 10 9 0 9 -4 16 -10 16 -5 0
-10 -4 -10 -9z"/>
<path d="M8175 4480 c3 -5 10 -10 16 -10 5 0 9 5 9 10 0 6 -7 10 -16 10 -8 0
-12 -4 -9 -10z"/>
<path d="M8395 4470 c-3 -5 1 -10 10 -10 9 0 13 5 10 10 -3 6 -8 10 -10 10 -2
0 -7 -4 -10 -10z"/>
<path d="M8495 4470 c3 -5 11 -10 16 -10 6 0 7 5 4 10 -3 6 -11 10 -16 10 -6
0 -7 -4 -4 -10z"/>
<path d="M8590 4460 c0 -5 5 -10 11 -10 5 0 7 5 4 10 -3 6 -8 10 -11 10 -2 0
-4 -4 -4 -10z"/>
<path d="M8134 4448 c3 -15 26 -23 26 -8 0 6 -4 9 -9 6 -5 -4 -12 -1 -14 4 -3
6 -4 5 -3 -2z"/>
<path d="M8205 4440 c-3 -5 -1 -10 4 -10 6 0 11 5 11 10 0 6 -2 10 -4 10 -3 0
-8 -4 -11 -10z"/>
<path d="M8520 4440 c0 -5 5 -10 10 -10 6 0 10 5 10 10 0 6 -4 10 -10 10 -5 0
-10 -4 -10 -10z"/>
<path d="M8468 4433 c7 -3 16 -2 19 1 4 3 -2 6 -13 5 -11 0 -14 -3 -6 -6z"/>
<path d="M8475 4400 c3 -5 11 -10 16 -10 6 0 7 5 4 10 -3 6 -11 10 -16 10 -6
0 -7 -4 -4 -10z"/>
<path d="M8375 4380 c3 -5 11 -10 16 -10 6 0 7 5 4 10 -3 6 -11 10 -16 10 -6
0 -7 -4 -4 -10z"/>
<path d="M8225 4369 c-11 -16 -1 -19 13 -3 7 8 8 14 3 14 -5 0 -13 -5 -16 -11z"/>
<path d="M8320 4370 c0 -5 5 -10 10 -10 6 0 10 5 10 10 0 6 -4 10 -10 10 -5 0
-10 -4 -10 -10z"/>
<path d="M8390 4310 c0 -5 7 -10 16 -10 8 0 12 5 9 10 -3 6 -10 10 -16 10 -5
0 -9 -4 -9 -10z"/>
<path d="M8400 4240 c0 -5 5 -10 10 -10 6 0 10 5 10 10 0 6 -4 10 -10 10 -5 0
-10 -4 -10 -10z"/>
<path d="M2470 4540 c-13 -8 -12 -10 3 -10 9 0 17 5 17 10 0 12 -1 12 -20 0z"/>
<path d="M2020 4390 c0 -5 5 -10 10 -10 6 0 10 5 10 10 0 6 -4 10 -10 10 -5 0
-10 -4 -10 -10z"/>
<path d="M2300 4390 c0 -5 4 -10 9 -10 6 0 13 5 16 10 3 6 -1 10 -9 10 -9 0
-16 -4 -16 -10z"/>
<path d="M2130 4368 c0 -4 7 -8 15 -8 8 0 15 4 15 8 0 5 -7 9 -15 9 -8 0 -15
-4 -15 -9z"/>
<path d="M6165 2080 c3 -5 15 -10 26 -10 11 0 17 5 14 10 -3 6 -15 10 -26 10
-11 0 -17 -4 -14 -10z"/>
<path d="M3170 2400 c0 -5 5 -10 10 -10 6 0 10 5 10 10 0 6 -4 10 -10 10 -5 0
-10 -4 -10 -10z"/>
<path d="M3235 2300 c3 -5 8 -10 11 -10 2 0 4 5 4 10 0 6 -5 10 -11 10 -5 0
-7 -4 -4 -10z"/>
<path d="M2926 2044 c-8 -21 -8 -39 1 -30 8 7 15 46 9 46 -2 0 -7 -7 -10 -16z"/>
<path d="M2920 1919 c0 -5 5 -7 10 -4 6 3 10 8 10 11 0 2 -4 4 -10 4 -5 0 -10
-5 -10 -11z"/>
<path d="M3180 1823 c0 -5 5 -15 10 -23 8 -12 10 -11 10 8 0 12 -4 22 -10 22
-5 0 -10 -3 -10 -7z"/>
<path d="M5330 2231 c0 -5 11 -8 25 -8 30 0 28 6 -4 12 -11 2 -21 0 -21 -4z"/>
<path d="M5280 2199 c0 -5 5 -7 10 -4 6 3 10 8 10 11 0 2 -4 4 -10 4 -5 0 -10
-5 -10 -11z"/>
<path d="M5220 2150 c0 -5 5 -10 11 -10 5 0 7 5 4 10 -3 6 -8 10 -11 10 -2 0
-4 -4 -4 -10z"/>
<path d="M5105 2030 c-3 -5 -1 -10 4 -10 6 0 11 5 11 10 0 6 -2 10 -4 10 -3 0
-8 -4 -11 -10z"/>
<path d="M5165 2010 c-3 -5 -1 -10 4 -10 6 0 11 5 11 10 0 6 -2 10 -4 10 -3 0
-8 -4 -11 -10z"/>
<path d="M5200 1940 c0 -5 7 -10 16 -10 8 0 12 5 9 10 -3 6 -10 10 -16 10 -5
0 -9 -4 -9 -10z"/>
<path d="M5155 1880 c3 -5 8 -10 11 -10 2 0 4 5 4 10 0 6 -5 10 -11 10 -5 0
-7 -4 -4 -10z"/>
<path d="M5040 1869 c0 -5 5 -7 10 -4 6 3 10 8 10 11 0 2 -4 4 -10 4 -5 0 -10
-5 -10 -11z"/>
<path d="M5085 1870 c3 -5 8 -10 11 -10 2 0 4 5 4 10 0 6 -5 10 -11 10 -5 0
-7 -4 -4 -10z"/>
<path d="M5131 1844 c0 -11 3 -14 6 -6 3 7 2 16 -1 19 -3 4 -6 -2 -5 -13z"/>
<path d="M5145 1810 c-3 -5 -1 -10 4 -10 6 0 11 5 11 10 0 6 -2 10 -4 10 -3 0
-8 -4 -11 -10z"/>
<path d="M8450 2040 c0 -5 5 -10 11 -10 5 0 7 5 4 10 -3 6 -8 10 -11 10 -2 0
-4 -4 -4 -10z"/>
<path d="M8380 1970 c0 -5 5 -10 10 -10 6 0 10 5 10 10 0 6 -4 10 -10 10 -5 0
-10 -4 -10 -10z"/>
<path d="M8430 1760 c0 -5 5 -10 10 -10 6 0 10 5 10 10 0 6 -4 10 -10 10 -5 0
-10 -4 -10 -10z"/>
<path d="M8350 1490 c0 -5 5 -10 10 -10 6 0 10 5 10 10 0 6 -4 10 -10 10 -5 0
-10 -4 -10 -10z"/>
<path d="M8515 1460 c-3 -5 -1 -10 4 -10 6 0 11 5 11 10 0 6 -2 10 -4 10 -3 0
-8 -4 -11 -10z"/>
<path d="M6990 1659 c0 -5 5 -7 10 -4 6 3 10 8 10 11 0 2 -4 4 -10 4 -5 0 -10
-5 -10 -11z"/>
<path d="M7027 1619 c7 -7 15 -10 18 -7 3 3 -2 9 -12 12 -14 6 -15 5 -6 -5z"/>
<path d="M6910 1554 c0 -8 5 -12 10 -9 6 4 8 11 5 16 -9 14 -15 11 -15 -7z"/>
<path d="M7015 1520 c-3 -5 -1 -10 4 -10 6 0 11 5 11 10 0 6 -2 10 -4 10 -3 0
-8 -4 -11 -10z"/>
<path d="M6985 1450 c3 -5 11 -10 16 -10 6 0 7 5 4 10 -3 6 -11 10 -16 10 -6
0 -7 -4 -4 -10z"/>
<path d="M6790 1430 c0 -5 5 -10 11 -10 5 0 7 5 4 10 -3 6 -8 10 -11 10 -2 0
-4 -4 -4 -10z"/>
<path d="M7315 1370 c3 -5 10 -10 16 -10 5 0 9 5 9 10 0 6 -7 10 -16 10 -8 0
-12 -4 -9 -10z"/>
<path d="M7368 1348 c-16 -5 -28 -14 -28 -19 0 -14 13 -10 40 11 28 22 27 23
-12 8z"/>
<path d="M6845 1330 c4 -6 11 -8 16 -5 14 9 11 15 -7 15 -8 0 -12 -5 -9 -10z"/>
<path d="M7340 1290 c0 -5 5 -10 10 -10 6 0 10 5 10 10 0 6 -4 10 -10 10 -5 0
-10 -4 -10 -10z"/>
<path d="M6795 1270 c-3 -5 -1 -10 4 -10 6 0 11 5 11 10 0 6 -2 10 -4 10 -3 0
-8 -4 -11 -10z"/>
<path d="M7425 1259 c-4 -6 -5 -12 -2 -15 2 -3 7 2 10 11 7 17 1 20 -8 4z"/>
<path d="M6835 1250 c3 -5 11 -10 16 -10 6 0 7 5 4 10 -3 6 -11 10 -16 10 -6
0 -7 -4 -4 -10z"/>
<path d="M7430 1220 c0 -5 5 -10 11 -10 5 0 7 5 4 10 -3 6 -8 10 -11 10 -2 0
-4 -4 -4 -10z"/>
<path d="M7428 1133 c7 -3 16 -2 19 1 4 3 -2 6 -13 5 -11 0 -14 -3 -6 -6z"/>
<path d="M7400 1096 c0 -9 5 -16 10 -16 6 0 10 4 10 9 0 6 -4 13 -10 16 -5 3
-10 -1 -10 -9z"/>
<path d="M7318 7923 c7 -3 16 -2 19 1 4 3 -2 6 -13 5 -11 0 -14 -3 -6 -6z"/>
<path d="M7395 7910 c3 -5 8 -10 11 -10 2 0 4 5 4 10 0 6 -5 10 -11 10 -5 0
-7 -4 -4 -10z"/>
<path d="M7420 7889 c0 -5 5 -7 10 -4 6 3 10 8 10 11 0 2 -4 4 -10 4 -5 0 -10
-5 -10 -11z"/>
<path d="M5944 6111 c-11 -2 -22 -8 -26 -15 -6 -8 -8 -7 -8 2 0 9 -46 12 -195
12 l-195 0 2 -85 1 -85 279 0 278 0 0 84 0 84 -59 4 c-32 1 -67 1 -77 -1z
m-104 -21 c0 -5 -8 -10 -17 -10 -15 0 -16 2 -3 10 19 12 20 12 20 0z m-19 -73
c-17 -17 -24 -1 -9 22 11 18 14 19 16 5 2 -9 -1 -21 -7 -27z m86 1 c-3 -8 -6
-5 -6 6 -1 11 2 17 5 13 3 -3 4 -12 1 -19z m133 12 c0 -5 -5 -10 -11 -10 -5 0
-7 5 -4 10 3 6 8 10 11 10 2 0 4 -4 4 -10z m-180 -30 c0 -5 -2 -10 -4 -10 -3
0 -8 5 -11 10 -3 6 -1 10 4 10 6 0 11 -4 11 -10z m160 0 c0 -5 -5 -10 -11 -10
-5 0 -7 5 -4 10 3 6 8 10 11 10 2 0 4 -4 4 -10z m-190 -20 c0 -5 -5 -10 -11
-10 -5 0 -7 5 -4 10 3 6 8 10 11 10 2 0 4 -4 4 -10z m90 -10 c0 -5 -2 -10 -4
-10 -3 0 -8 5 -11 10 -3 6 -1 10 4 10 6 0 11 -4 11 -10z m-120 -10 c0 -5 -5
-10 -11 -10 -5 0 -7 5 -4 10 3 6 8 10 11 10 2 0 4 -4 4 -10z"/>
<path d="M1341 5164 c0 -11 3 -14 6 -6 3 7 2 16 -1 19 -3 4 -6 -2 -5 -13z"/>
<path d="M1341 5124 c0 -11 3 -14 6 -6 3 7 2 16 -1 19 -3 4 -6 -2 -5 -13z"/>
<path d="M850 4870 c0 -5 5 -10 10 -10 6 0 10 5 10 10 0 6 -4 10 -10 10 -5 0
-10 -4 -10 -10z"/>
<path d="M760 4739 c0 -5 5 -7 10 -4 6 3 10 8 10 11 0 2 -4 4 -10 4 -5 0 -10
-5 -10 -11z"/>
<path d="M3660 4590 c0 -5 5 -10 11 -10 5 0 7 5 4 10 -3 6 -8 10 -11 10 -2 0
-4 -4 -4 -10z"/>
<path d="M4080 4346 c0 -2 7 -7 16 -10 8 -3 12 -2 9 4 -6 10 -25 14 -25 6z"/>
<path d="M4410 1779 c0 -5 5 -7 10 -4 6 3 10 8 10 11 0 2 -4 4 -10 4 -5 0 -10
-5 -10 -11z"/>
<path d="M4440 1770 c0 -5 5 -10 10 -10 6 0 10 5 10 10 0 6 -4 10 -10 10 -5 0
-10 -4 -10 -10z"/>
<path d="M6400 1690 c0 -5 5 -10 11 -10 5 0 7 5 4 10 -3 6 -8 10 -11 10 -2 0
-4 -4 -4 -10z"/>
<path d="M6450 1690 c0 -5 5 -10 11 -10 5 0 7 5 4 10 -3 6 -8 10 -11 10 -2 0
-4 -4 -4 -10z"/>
<path d="M6505 1660 c-3 -5 -2 -10 4 -10 5 0 13 5 16 10 3 6 2 10 -4 10 -5 0
-13 -4 -16 -10z"/>
<path d="M6450 1649 c0 -5 5 -7 10 -4 6 3 10 8 10 11 0 2 -4 4 -10 4 -5 0 -10
-5 -10 -11z"/>
<path d="M4400 1640 c0 -5 5 -10 10 -10 6 0 10 5 10 10 0 6 -4 10 -10 10 -5 0
-10 -4 -10 -10z"/>
<path d="M6510 1610 c0 -5 5 -10 10 -10 6 0 10 5 10 10 0 6 -4 10 -10 10 -5 0
-10 -4 -10 -10z"/>
<path d="M6290 1590 c0 -5 5 -10 11 -10 5 0 7 5 4 10 -3 6 -8 10 -11 10 -2 0
-4 -4 -4 -10z"/>
</g>
</svg>
