<?xml version="1.0" standalone="no"?>
<!DOCTYPE svg PUBLIC "-//W3C//DTD SVG 20010904//EN"
 "http://www.w3.org/TR/2001/REC-SVG-20010904/DTD/svg10.dtd">
<svg version="1.0" xmlns="http://www.w3.org/2000/svg"
 width="1024.000000pt" height="1024.000000pt" viewBox="0 0 1024.000000 1024.000000"
 preserveAspectRatio="xMidYMid meet">

<g transform="translate(0.000000,1024.000000) scale(0.100000,-0.100000)"
fill="currentColor" stroke="none">
<path d="M1769 9561 c-3 -9 -151 -13 -579 -14 l-574 -2 2 -105 c2 -91 2 -311
0 -329 0 -3 0 -25 1 -49 1 -32 4 -41 14 -36 9 6 9 4 -1 -8 -7 -9 -12 -29 -12
-44 1 -16 0 -143 -2 -282 -3 -218 -1 -255 12 -264 13 -8 13 -9 0 -5 -13 4 -15
-11 -13 -97 4 -192 3 -257 -3 -268 -5 -8 -1 -9 11 -4 14 5 15 4 7 -7 -15 -18
-21 -69 -11 -89 5 -9 5 -19 1 -22 -8 -4 -9 -81 -2 -96 1 -3 2 -9 1 -14 -6 -30
-3 -254 3 -264 4 -7 4 -12 -1 -12 -11 0 -9 -732 2 -750 5 -8 4 -11 -2 -7 -6 4
-9 -34 -8 -106 2 -90 5 -111 16 -109 11 2 11 0 -1 -10 -13 -11 -16 -41 -15
-170 0 -101 4 -154 10 -150 6 3 5 -1 -2 -9 -11 -13 -10 -80 2 -98 3 -5 1 -12
-4 -15 -4 -3 -5 -24 -1 -46 4 -22 4 -43 0 -45 -5 -3 -6 -19 -3 -36 2 -17 -1
-37 -9 -47 -8 -9 -8 -13 -1 -9 8 5 11 -53 10 -235 l-2 -243 224 -3 c184 -2
222 0 218 11 -3 8 1 14 8 14 7 0 11 -6 8 -14 -6 -16 9 -17 26 0 11 10 13 10 7
0 -6 -10 18 -13 106 -13 77 0 118 4 127 13 11 10 12 9 7 -1 -6 -10 5 -12 46
-11 29 1 87 1 128 0 l75 -1 -2 -102 -1 -103 28 0 c20 0 26 4 22 15 -5 12 -3
13 9 4 20 -15 61 -25 53 -12 -4 6 1 6 14 -1 10 -6 29 -8 41 -6 20 4 22 0 20
-39 -2 -23 1 -48 5 -54 4 -7 2 -12 -5 -12 -8 0 -8 -4 1 -15 7 -8 8 -15 3 -15
-5 0 -8 -14 -5 -30 5 -33 5 -33 127 -30 l61 1 -2 -105 c-2 -73 1 -104 8 -99 7
4 8 1 3 -6 -4 -7 -8 -51 -10 -97 l-2 -84 46 -1 c25 -1 51 0 56 1 21 4 106 2
112 -3 5 -5 6 -113 3 -339 0 -37 -4 -48 -16 -48 -8 0 -13 -4 -10 -8 3 -5 -1
-9 -9 -9 -8 0 -12 4 -9 8 2 4 -32 9 -76 11 -44 2 -80 -1 -80 -5 0 -5 -3 -6 -7
-4 -5 3 -8 -17 -8 -44 0 -27 4 -49 8 -49 5 0 5 -5 2 -10 -6 -9 -10 -185 -5
-200 4 -13 2 -179 -3 -213 -3 -22 -2 -35 4 -31 5 3 6 10 3 16 -4 7 -2 8 4 4 9
-5 9 -13 0 -29 -11 -20 -12 -39 -4 -109 2 -16 -2 -28 -8 -28 -6 0 -5 -4 3 -9
9 -6 10 -11 2 -15 -8 -5 -6 -16 6 -36 15 -27 18 -27 31 -12 7 9 11 11 7 5 -5
-10 14 -13 77 -14 46 -1 85 -1 88 -1 3 0 4 -23 3 -51 -2 -29 -5 -157 -7 -285
-3 -128 -7 -236 -10 -241 -3 -4 27 -9 67 -10 40 -1 84 -3 99 -5 l26 -3 -1 298
c-2 231 1 300 11 304 6 2 12 -1 12 -8 0 -8 2 -9 8 -1 4 6 16 9 27 7 11 -2 40
-3 65 -2 88 4 113 1 121 -12 7 -11 9 -11 9 -1 0 12 18 14 115 11 64 -2 151 0
178 4 15 2 27 1 27 -3 0 -4 23 -5 51 -3 38 3 49 0 44 -9 -4 -7 1 -4 9 6 9 11
16 15 16 10 0 -11 40 -11 58 0 7 4 12 2 12 -4 0 -8 6 -8 21 0 16 9 20 19 18
53 -3 40 -2 42 21 39 14 -2 31 -9 38 -14 7 -6 12 -7 12 -1 0 5 25 9 57 9 37
-1 58 3 60 12 3 8 -2 10 -14 6 -16 -5 -17 -5 -1 5 12 8 16 22 14 46 l-2 34 90
0 c123 0 118 -1 110 13 -11 17 -11 78 -1 78 4 0 5 6 1 13 -5 8 -2 8 9 -2 13
-10 17 -10 17 -1 0 9 4 9 17 -1 14 -12 15 -12 9 -1 -7 12 -4 12 14 2 12 -6 43
-10 69 -8 l46 3 -2 -68 c-1 -47 2 -65 9 -61 7 5 8 2 2 -7 -5 -8 -9 -89 -10
-181 l-1 -168 59 0 58 0 0 -100 0 -100 45 0 45 0 1 -97 c1 -54 1 -150 0 -213
0 -63 3 -110 7 -105 11 16 82 19 82 3 0 -10 3 -9 10 2 7 10 10 -30 11 -122 2
-268 4 -250 -28 -248 -73 5 -81 2 -85 -36 -2 -19 -1 -37 2 -39 4 -2 4 -24 1
-47 -11 -73 -6 -81 50 -76 37 4 49 1 49 -9 0 -8 5 -11 12 -7 7 4 8 3 4 -4 -4
-7 -8 -93 -10 -192 l-2 -180 45 0 46 0 3 -86 c2 -67 0 -84 -10 -78 -10 6 -10
5 -2 -7 7 -8 11 -52 10 -113 -1 -89 -3 -100 -21 -106 -11 -4 -26 -5 -32 -3
-17 7 -282 9 -278 3 2 -3 -11 -5 -28 -6 l-32 0 3 103 4 103 -111 0 c-82 0
-111 -3 -111 -12 0 -10 -2 -10 -8 -1 -4 7 -35 11 -77 12 -254 1 -299 2 -290 9
12 8 15 53 3 46 -4 -3 -8 2 -8 10 0 9 4 16 9 16 6 0 5 15 -1 36 -6 25 -6 39 1
43 18 12 -3 26 -41 28 -25 2 -38 -2 -38 -10 0 -9 -2 -9 -8 1 -5 8 -25 11 -55
8 -60 -4 -64 3 -62 111 1 77 0 83 -19 84 -12 0 -51 1 -89 2 -37 1 -67 -2 -67
-6 0 -5 -6 -2 -14 6 -9 8 -12 24 -9 36 3 11 0 28 -7 36 -9 11 -9 15 -1 15 14
0 11 32 -4 42 -6 5 -6 8 1 8 6 0 12 26 13 66 2 49 -1 64 -10 58 -8 -5 -9 -3
-3 7 5 8 10 40 11 72 2 56 2 57 -25 58 -46 1 -106 1 -133 0 l-26 -1 -1 -200
c0 -110 4 -202 9 -206 5 -3 9 0 9 5 0 6 7 11 16 11 8 0 12 -5 8 -11 -4 -7 1
-7 16 1 13 7 20 8 16 2 -4 -7 6 -10 26 -10 61 2 80 -2 75 -14 -2 -7 0 -23 4
-35 5 -13 5 -23 1 -23 -4 0 -7 -25 -7 -55 l-1 -56 41 0 c107 0 146 1 157 3 10
2 13 -21 13 -97 l0 -100 97 0 c53 0 100 -3 103 -7 7 -6 8 -151 2 -181 -1 -8
17 -13 51 -15 39 -2 52 0 47 8 -5 9 -2 9 11 2 25 -13 175 -12 193 2 11 8 13 8
8 0 -5 -8 25 -12 106 -12 166 0 163 1 181 -27 14 -21 14 -24 1 -19 -8 4 -15 2
-16 -2 -8 -61 -6 -75 9 -69 14 5 14 4 0 -12 -19 -22 -5 -91 15 -75 7 5 53 9
104 10 51 0 101 3 112 7 11 3 22 1 25 -4 4 -5 18 -6 34 -2 15 4 38 5 52 1 14
-4 34 -4 45 0 11 4 29 4 40 0 11 -4 30 -4 43 1 19 7 22 16 22 57 0 26 -6 54
-12 61 -8 9 -9 11 -1 7 7 -4 10 5 8 29 -4 39 -21 35 145 39 36 0 71 5 78 9 7
5 12 4 12 -3 0 -7 8 -9 19 -5 11 3 22 2 25 -3 3 -5 6 -68 7 -141 0 -96 4 -129
12 -124 8 4 8 2 0 -9 -8 -8 -12 -36 -10 -65 l2 -51 73 2 c41 0 76 -2 79 -7 2
-4 12 -3 22 2 16 9 18 4 18 -42 0 -29 3 -61 8 -71 6 -14 5 -17 -4 -12 -9 6
-10 0 -5 -21 4 -15 8 -31 10 -34 3 -5 172 -6 198 -1 4 1 5 10 2 19 -4 9 -6 71
-6 137 1 67 1 145 0 175 -1 48 1 53 18 49 11 -3 27 -1 37 5 10 5 15 6 12 1 -3
-5 21 -7 54 -6 42 3 57 7 52 15 -5 9 -3 9 8 0 17 -14 91 -13 101 2 5 6 8 6 8
-2 0 -8 15 -13 39 -13 22 0 43 -5 46 -10 7 -11 10 -147 4 -170 -3 -12 9 -15
64 -17 45 -1 65 2 61 9 -4 7 0 7 12 1 11 -5 39 -11 63 -12 34 -2 42 0 36 11
-6 10 -5 11 6 1 7 -7 23 -13 35 -13 12 0 24 -3 27 -7 2 -5 3 -3 1 3 -3 13 469
14 482 1 12 -12 14 -178 2 -171 -6 4 -8 3 -5 -3 9 -14 244 -16 253 -2 4 8 9 7
15 -2 8 -12 11 -11 19 1 5 8 10 10 10 4 0 -15 362 -15 372 0 5 7 8 7 8 -1 0
-18 610 -17 610 0 0 7 4 5 10 -3 7 -12 15 -13 40 -3 16 6 30 8 30 3 0 -5 117
-8 260 -8 214 0 260 3 260 14 0 18 19 18 26 1 6 -17 44 -19 63 -4 11 9 13 9 8
0 -8 -13 59 -13 80 0 7 5 13 5 13 0 0 -10 481 -15 498 -5 7 5 14 40 16 92 5
95 1 116 -20 99 -11 -9 -14 -9 -14 0 0 8 -5 9 -17 3 -9 -6 -29 -6 -46 -1 -18
5 -35 5 -42 -1 -7 -6 -16 -5 -23 2 -7 7 -12 8 -12 3 0 -6 -43 -10 -100 -9 -65
0 -100 -3 -100 -10 0 -7 -3 -8 -8 -1 -11 15 -53 17 -70 3 -9 -7 -13 -8 -9 -2
4 7 -48 10 -173 10 -98 0 -176 -5 -173 -9 3 -5 -3 -5 -13 0 -22 10 -80 10 -90
0 -4 -4 -13 -2 -20 4 -8 7 -14 7 -18 0 -4 -6 -15 -7 -29 -2 -26 10 -132 8
-162 -3 -16 -6 -17 -6 -5 3 21 15 -4 15 -32 0 -15 -8 -19 -8 -14 0 9 13 -13
14 -34 1 -9 -5 -19 -5 -27 2 -8 6 -16 8 -20 5 -3 -4 -14 -2 -24 4 -11 5 -19 6
-19 1 0 -5 -84 -8 -187 -7 -104 1 -194 -3 -200 -8 -8 -6 -18 -6 -25 0 -19 15
-80 15 -71 0 4 -8 1 -7 -9 1 -9 7 -31 14 -48 14 -28 1 -31 4 -26 25 4 13 2 23
-4 23 -6 0 -8 5 -5 10 12 20 15 101 3 94 -7 -5 -8 -3 -3 6 5 7 9 26 9 42 1 21
-3 27 -14 23 -11 -4 -11 -2 2 8 14 11 16 31 13 140 -2 87 0 125 8 120 6 -4 7
-1 2 7 -5 8 -9 115 -9 239 l-1 225 -45 4 c-25 1 -50 4 -56 6 -6 2 -10 35 -9
82 1 44 -3 84 -7 91 -11 14 27 23 92 23 429 -1 626 0 641 5 11 4 19 2 19 -5 0
-6 5 -8 11 -5 14 9 59 14 59 6 0 -3 44 -6 98 -6 86 0 98 2 98 18 0 9 -4 17 -9
17 -6 0 -5 5 0 13 5 6 9 45 8 85 -2 71 -2 72 24 73 14 1 31 0 36 -1 31 -8 291
3 301 13 4 4 12 3 19 -3 11 -9 11 71 -1 148 l-5 32 -93 0 -92 0 -2 53 c-2 115
-1 211 3 216 3 2 -1 11 -8 19 -6 9 -7 13 -2 10 6 -4 10 37 11 115 2 163 4 185
24 182 8 -2 16 -4 18 -5 1 -1 21 -2 45 -2 29 0 41 4 39 13 -2 9 0 10 10 2 7
-6 22 -13 32 -15 19 -3 20 5 22 172 1 118 -2 180 -10 189 -8 11 -8 13 2 7 17
-10 15 -1 -4 18 -12 12 -36 16 -100 16 -46 0 -84 -3 -84 -6 0 -4 8 -13 17 -20
16 -13 16 -13 1 -8 -13 4 -17 0 -16 -24 1 -16 -2 -34 -6 -40 -3 -6 -2 -13 3
-16 5 -4 7 -31 4 -62 -3 -43 -1 -54 8 -48 7 4 10 3 6 -3 -13 -21 -25 -93 -14
-86 6 4 7 1 2 -7 -4 -7 -8 -29 -7 -47 l1 -35 -67 2 c-128 4 -123 6 -121 -42 1
-24 0 -47 -1 -53 -1 -5 -2 -79 -1 -163 1 -120 4 -152 14 -146 7 5 7 1 -2 -10
-10 -12 -14 -40 -13 -91 3 -84 -1 -88 -86 -85 -26 1 -61 1 -78 1 l-32 -1 1
-75 c0 -41 4 -72 8 -69 5 3 9 1 9 -4 0 -6 -7 -12 -15 -16 -8 -3 -14 -11 -13
-17 2 -8 -130 -11 -494 -11 l-497 0 1 -41 c1 -78 12 -72 -138 -73 -75 -1 -140
-6 -145 -11 -6 -6 -11 -24 -11 -42 -1 -30 -2 -31 -50 -31 l-48 0 0 291 c0 229
-3 289 -12 283 -10 -6 -10 -5 -1 7 10 12 13 178 13 730 -1 393 -1 744 0 781
l0 67 143 0 c83 0 148 -4 157 -10 13 -9 12 -10 -2 -5 -12 3 -18 0 -18 -10 0
-8 5 -12 10 -9 6 4 10 -7 10 -24 0 -31 -1 -31 -52 -31 l-53 0 0 -35 c0 -19 3
-35 7 -35 4 0 5 -7 2 -15 -3 -8 -6 -40 -7 -72 l-2 -58 102 0 c92 0 100 2 87
16 -8 8 -14 20 -14 25 0 5 5 2 11 -6 8 -12 10 -8 7 17 -3 18 -1 30 3 27 9 -5
6 37 -5 54 -4 7 -2 12 3 12 6 0 11 7 11 15 0 20 41 36 58 23 8 -7 12 -7 12 1
0 6 7 11 15 11 11 0 15 12 15 50 0 56 14 69 50 50 13 -7 20 -8 17 -3 -3 5 20
10 54 11 52 1 59 -1 60 -18 2 -21 6 -71 8 -93 0 -7 10 -13 20 -13 11 0 18 4
15 7 -2 4 0 10 6 14 5 3 10 2 10 -4 0 -5 10 -11 23 -13 17 -2 22 -10 23 -33 3
-51 4 -55 12 -54 4 1 26 1 50 0 l44 -1 -4 -48 c-4 -41 -1 -48 14 -48 10 0 18
4 18 8 0 5 8 4 19 -1 12 -7 30 -7 51 -1 24 7 29 6 22 -3 -5 -7 -12 -31 -14
-55 l-4 -44 47 4 c26 2 46 1 44 -2 -2 -3 14 -7 36 -7 21 -1 39 2 39 7 0 5 6 7
14 4 24 -9 121 -10 133 -2 6 5 14 5 17 0 3 -5 19 -7 36 -4 28 4 30 7 30 48 0
28 5 45 13 46 6 1 23 2 37 3 14 2 30 3 36 4 7 0 12 13 11 29 -1 72 -1 72 48
68 25 -2 48 1 51 6 4 6 6 30 6 54 -1 46 -2 46 58 48 19 1 36 5 37 10 1 5 7 13
15 17 8 6 9 9 2 9 -7 0 -11 11 -10 25 0 14 5 25 9 25 5 0 6 3 4 7 -3 5 36 7
86 6 51 -1 87 0 82 3 -10 4 -9 173 0 183 2 2 24 5 47 8 59 6 71 11 61 25 -4 7
-8 49 -8 93 l0 80 75 -3 c67 -2 105 -2 135 1 6 0 9 38 7 97 -2 91 -1 98 18
103 11 3 18 2 15 -3 -3 -4 26 -7 63 -6 37 1 86 -1 109 -5 23 -3 47 -3 54 1 6
4 26 4 45 0 19 -4 34 -4 34 0 0 5 9 7 20 5 19 -4 20 1 19 96 -2 57 -6 94 -10
87 -5 -7 -9 -8 -9 -2 0 13 -62 12 -72 -1 -5 -7 -8 -7 -8 0 0 13 -110 13 -129
1 -9 -6 -12 -5 -8 1 4 6 -24 9 -74 8 l-79 -1 -2 35 c0 20 -2 65 -2 100 l-1 64
-82 2 c-45 0 -80 -2 -77 -6 2 -4 -5 -5 -16 -2 -21 6 -22 11 -22 128 0 30 0 59
1 65 1 5 16 7 34 4 62 -10 122 -10 136 0 8 6 17 10 20 9 3 -2 6 18 6 45 -1 26
4 50 10 54 7 5 6 8 -1 8 -6 0 -11 14 -12 30 0 17 3 28 9 25 5 -3 6 0 3 8 -3 8
-6 60 -7 116 l-2 101 50 1 c188 2 244 5 251 12 4 4 12 7 18 7 6 0 4 -5 -4 -10
-10 -6 0 -9 33 -7 l48 2 -3 101 -3 101 25 -4 c39 -5 91 -6 96 0 3 2 20 1 39
-3 l34 -8 0 167 c0 91 0 180 1 197 l0 31 99 -1 99 -2 2 81 c2 118 2 279 0 288
-3 9 -3 55 0 65 2 10 -1 105 -4 128 -2 10 1 24 6 31 5 7 7 17 3 23 -4 6 -6 46
-6 90 l0 80 -67 2 c-37 1 -83 1 -103 0 l-36 -1 5 54 c2 29 0 68 -6 85 -7 18
-7 28 -2 25 6 -4 9 35 9 100 -1 62 -5 101 -10 93 -6 -9 -9 -9 -9 -1 0 6 4 15
10 18 14 8 13 795 -1 795 -5 0 -7 -5 -3 -12 4 -7 3 -8 -5 -4 -19 12 -63 18
-57 7 6 -9 -103 -5 -112 4 -7 6 -4 334 3 344 3 5 2 16 -1 25 -5 13 -23 16
-100 14 -52 0 -97 2 -101 5 -3 4 -5 50 -5 102 l2 95 -97 0 -98 0 -2 102 c-2
69 -7 104 -15 110 -7 4 -48 6 -91 4 -91 -5 -97 1 -96 86 3 106 10 98 -86 98
-54 0 -85 -4 -85 -11 0 -6 -5 -5 -13 3 -17 17 -131 12 -120 -5 4 -7 -1 -6 -10
2 -12 10 -48 13 -133 12 -63 -1 -121 -4 -127 -7 -9 -3 -13 -33 -13 -98 l0 -94
199 -1 c110 0 201 -2 204 -4 2 -2 5 -49 6 -103 l2 -99 72 0 c45 0 69 -4 65
-10 -3 -5 1 -5 9 1 38 29 48 25 49 -19 0 -37 6 -141 9 -158 1 -4 40 -7 89 -7
l87 1 0 -62 c0 -33 3 -61 7 -61 4 0 4 -15 1 -34 -5 -32 -4 -34 31 -38 20 -2
36 -1 36 3 0 4 14 4 30 -1 17 -5 30 -6 30 -3 0 3 6 1 13 -6 10 -8 17 -7 25 1
7 7 12 8 12 3 0 -6 5 -3 10 5 6 10 8 -5 7 -47 -2 -39 1 -59 8 -55 5 3 4 -1 -2
-10 -7 -8 -10 -17 -7 -20 3 -4 5 -100 4 -214 0 -147 -4 -212 -13 -223 -9 -12
-9 -13 1 -7 8 5 12 -2 12 -23 0 -18 -5 -31 -12 -31 -10 0 -10 -3 0 -9 10 -6
13 -27 10 -76 l-3 -68 53 -2 c28 -1 52 2 52 7 0 4 7 8 15 8 8 0 15 -5 15 -11
0 -7 12 -9 35 -5 29 6 34 4 29 -9 -4 -8 0 -23 7 -32 10 -12 10 -15 2 -9 -10 5
-13 -3 -15 -31 0 -21 -2 -45 -3 -53 -1 -8 4 -21 9 -29 9 -12 8 -13 -3 -6 -11
6 -13 4 -8 -8 5 -14 -1 -17 -36 -18 -170 -4 -205 -3 -202 1 2 3 -26 4 -62 2
-37 -1 -72 3 -79 9 -10 8 -13 35 -11 99 l3 87 -45 1 c-61 2 -136 1 -249 -1
-52 -1 -96 2 -99 7 -3 4 -5 48 -4 96 2 85 1 88 -21 88 -13 0 -188 1 -391 1
-202 1 -371 -1 -377 -4 -10 -6 -8 -164 3 -181 8 -14 107 -15 107 -1 0 5 5 5
13 -2 12 -9 137 -10 172 -1 6 1 15 1 20 0 34 -9 75 -4 76 10 0 13 1 13 7 0 8
-17 58 -20 81 -6 8 5 12 5 9 0 -4 -5 23 -9 60 -9 37 0 73 4 81 9 9 6 12 5 8
-1 -4 -7 22 -10 74 -9 l81 2 -5 -46 c-2 -25 -1 -54 3 -65 4 -11 3 -32 -2 -47
-8 -21 -17 -27 -50 -30 -28 -3 -42 1 -46 10 -3 10 -7 11 -12 2 -11 -18 -130
-20 -130 -3 0 12 -2 12 -14 0 -12 -11 -56 -14 -223 -15 -114 0 -212 -1 -218
-2 -23 -4 -81 2 -89 10 -5 5 -8 50 -7 99 2 94 0 99 -43 92 -4 -1 -83 -1 -175
-1 -91 1 -173 1 -181 1 -26 -1 -179 -1 -187 0 -5 1 -21 1 -38 -1 -26 -1 -27
-3 -10 -10 14 -6 15 -9 5 -9 -9 -1 -20 3 -25 8 -11 11 -91 18 -100 9 -4 -3
-20 -2 -36 2 -16 5 -29 5 -29 1 0 -3 -17 -5 -37 -4 -67 6 -107 2 -114 -9 -4
-7 -8 -7 -10 0 -3 9 -101 17 -134 12 -5 -1 -34 -1 -64 0 -42 1 -51 -1 -45 -12
6 -10 5 -11 -7 -1 -22 18 -155 19 -176 2 -13 -11 -15 -11 -9 -1 6 10 -4 13
-46 12 -179 -3 -649 -1 -805 3 -52 1 -79 -2 -75 -8 3 -5 -2 -4 -12 4 -11 10
-15 22 -11 38 3 13 1 23 -5 23 -6 0 -9 4 -6 9 3 5 7 36 8 70 l2 61 1106 1
c608 0 1140 0 1183 -1 76 -1 77 -1 77 24 0 13 -6 27 -12 29 -10 4 -10 6 0 6
16 1 16 68 0 74 -10 4 -10 6 0 6 6 1 12 12 12 26 0 29 13 27 -185 29 -71 0
-145 -2 -162 -5 -18 -4 -31 -4 -29 0 5 8 -229 5 -243 -3 -6 -4 -11 -4 -11 1 0
7 -116 8 -335 4 -27 0 -57 0 -65 0 -8 0 -35 0 -60 0 -25 -1 -191 0 -370 1
l-325 2 1 146 c1 93 -3 150 -10 159 -8 11 -8 13 1 7 9 -5 12 -1 11 11 -4 52 1
63 32 63 17 0 30 -5 30 -11 0 -8 4 -8 13 -1 6 5 21 6 32 2 11 -4 32 -4 46 0
16 5 31 4 37 -2 7 -7 10 23 11 87 1 54 3 101 6 105 3 4 19 8 37 8 152 1 147 0
154 28 4 17 2 29 -7 35 -8 5 -9 9 -3 9 7 0 10 16 9 42 -2 25 2 46 8 50 9 6 8
8 -1 8 -7 0 -10 5 -7 10 3 6 19 10 36 10 16 0 29 5 29 13 0 7 3 8 8 2 9 -12
52 -18 52 -7 0 5 7 9 15 9 8 0 12 -4 10 -8 -7 -10 31 -18 45 -9 9 6 9 9 1 11
-9 3 -9 12 -2 32 8 21 8 26 -1 21 -8 -5 -9 0 -6 14 4 12 2 22 -3 22 -5 0 -9 5
-9 11 0 5 4 8 9 4 6 -3 9 16 8 45 l-2 50 80 1 c44 1 87 2 96 2 14 0 15 5 9 28
-5 15 -6 30 -2 33 3 3 5 27 4 53 -1 27 2 54 7 62 11 17 121 17 133 -1 6 -10 8
-10 8 0 0 6 10 12 23 12 13 0 29 6 36 13 11 10 13 10 7 0 -8 -15 3 -15 158
-13 71 0 102 -3 108 -12 6 -10 8 -10 8 0 0 8 18 12 58 12 l57 0 0 -90 0 -90
-65 0 c-39 0 -72 -5 -79 -12 -11 -10 -13 -10 -7 0 4 6 2 12 -3 12 -7 0 -12
-26 -13 -62 -1 -58 -2 -81 -6 -130 -2 -16 -14 -18 -97 -18 -90 0 -96 -1 -104
-22 -5 -13 -6 -29 -4 -36 8 -21 8 -124 0 -129 -4 -2 -5 -7 -3 -11 2 -4 -24 -7
-57 -8 l-62 -1 -1 -79 c-1 -47 3 -82 10 -86 8 -6 7 -8 -1 -8 -7 0 -12 -15 -11
-39 0 -22 -3 -44 -6 -50 -4 -6 -3 -11 3 -11 5 0 8 -43 6 -108 l-3 -109 37 7
c21 4 47 3 59 -1 12 -5 22 -4 22 0 0 5 9 7 21 4 19 -5 20 -2 18 52 l-3 57 84
2 85 1 1 150 c3 187 6 239 13 226 4 -6 28 -7 64 -2 32 4 60 4 62 0 9 -13 45 3
46 20 4 87 3 139 -4 154 -9 19 -14 18 115 19 l86 1 4 31 c1 17 1 47 -2 66 -3
19 -3 47 1 63 5 16 4 25 -2 22 -5 -4 -9 -1 -9 5 0 17 26 23 105 24 40 0 72 4
69 7 -2 4 5 9 16 12 16 4 20 13 18 46 -1 22 -5 38 -10 35 -4 -3 -8 0 -8 5 0 6
5 11 10 11 6 0 10 15 10 34 l0 34 190 1 c105 0 194 3 199 5 5 3 9 48 9 99 l1
94 -65 2 c-47 2 -64 -1 -64 -11 0 -10 -2 -10 -8 -1 -6 10 -144 13 -623 13
-338 0 -621 0 -629 0 -12 0 -15 -14 -15 -62 0 -35 4 -68 8 -75 4 -6 3 -14 -2
-17 -5 -3 -7 -14 -5 -24 5 -16 -8 -17 -193 -14 l-198 3 3 -76 c4 -79 -4 -136
-16 -119 -4 5 -46 9 -93 9 l-85 0 -2 -104 c0 -57 -2 -105 -4 -106 -2 -2 -46
-5 -98 -7 l-95 -3 -2 -90 c0 -49 3 -95 8 -101 6 -8 0 -11 -19 -10 -15 1 -37
-2 -49 -6 -15 -5 -23 -3 -23 3 0 6 -7 9 -15 6 -8 -4 -17 -2 -20 3 -4 6 -14 6
-27 -1 -17 -9 -24 -8 -34 6 -11 14 -13 -36 -13 -279 0 -162 -2 -300 -6 -305
-3 -6 -11 -8 -18 -5 -7 2 -92 5 -190 7 -138 1 -176 -1 -172 -10 2 -7 1 -13 -3
-13 -4 0 -7 -39 -7 -87 l0 -88 -38 -2 c-20 0 -44 -4 -53 -7 -8 -3 -13 -2 -10
2 3 5 -17 8 -44 8 -42 -1 -49 -4 -53 -23 -2 -13 -1 -23 2 -23 3 0 5 -35 4 -77
l-2 -78 100 0 99 1 0 -106 c0 -58 4 -100 8 -93 5 7 29 10 72 7 115 -7 115 -7
115 -34 0 -14 4 -31 8 -37 5 -7 4 -13 0 -13 -11 0 -11 -45 -1 -55 4 -4 3 -16
-2 -26 -6 -10 -7 -19 -3 -21 5 -2 50 -3 100 -3 l93 0 0 -45 c1 -162 0 -1680
-1 -1687 -4 -24 3 -35 20 -30 10 2 26 0 35 -5 10 -6 16 -5 16 2 0 7 8 9 23 4
12 -4 39 -6 59 -6 l37 2 3 -118 c2 -64 1 -152 -2 -195 l-5 -77 46 1 c25 1 52
-2 59 -6 7 -5 11 -4 7 1 -3 5 17 7 45 5 l49 -3 -1 -37 c-1 -20 -1 -40 0 -46 1
-5 2 -14 1 -18 -1 -4 4 -18 11 -30 10 -19 9 -21 -4 -9 -14 11 -16 9 -15 -20 2
-32 1 -33 -38 -33 -22 0 -43 -4 -47 -10 -5 -6 -8 -5 -8 3 0 8 -17 12 -50 12
l-50 0 1 -77 c1 -131 32 -118 -272 -120 -145 0 -274 -2 -285 -2 -23 -1 -22 4
-27 -121 l-2 -65 -65 -2 c-36 -1 -79 -3 -97 -4 l-32 -2 -3 -90 c-2 -49 0 -93
3 -99 3 -5 38 -7 79 -5 40 3 84 1 99 -3 l26 -7 -2 74 c-1 41 -4 81 -7 88 -3 8
-1 17 5 20 5 4 7 11 4 16 -4 5 5 9 19 9 14 0 26 4 26 10 0 6 9 6 24 0 35 -13
489 -10 498 4 10 15 11 -59 6 -421 -2 -99 -1 -180 2 -178 3 2 5 -22 5 -53 0
-50 2 -57 20 -57 11 0 28 3 38 8 9 4 17 4 17 -1 0 -8 28 -9 105 -4 23 2 25 6
25 47 0 42 2 45 28 45 22 0 24 2 12 11 -12 8 -9 9 9 3 13 -3 53 -7 87 -8 l63
-1 3 55 3 55 52 -2 c50 -2 51 -2 48 25 -6 58 5 67 93 70 l81 3 3 -33 c2 -18 0
-49 -4 -68 -4 -19 -5 -71 -2 -115 4 -44 7 -92 8 -107 1 -15 -1 -25 -4 -23 -3
2 -6 -11 -6 -30 0 -19 3 -32 6 -30 9 6 6 -28 -4 -44 -5 -8 -3 -17 5 -22 10 -6
11 -9 2 -9 -7 0 -13 -5 -13 -11 0 -5 5 -7 12 -3 7 4 8 3 4 -5 -12 -19 -17
-113 -6 -106 6 3 10 -1 10 -10 0 -9 -4 -14 -9 -11 -5 3 -7 -10 -4 -30 3 -24 0
-39 -9 -45 -10 -7 -9 -9 6 -9 15 0 16 -3 6 -15 -7 -8 -10 -23 -7 -34 6 -24
-37 -35 -55 -14 -27 34 -33 -21 -33 -329 0 -199 4 -308 10 -308 7 0 7 -3 0 -8
-15 -11 -17 -55 -3 -64 7 -4 9 -8 3 -8 -6 0 -9 -71 -7 -197 1 -109 2 -245 1
-303 0 -58 0 -120 0 -137 2 -33 1 -33 -44 -33 -36 0 -45 4 -46 18 -1 9 -2 28
-3 42 -1 31 -19 39 -67 30 -31 -6 -38 -4 -42 11 -3 11 -1 17 3 14 5 -3 11 -1
15 5 3 5 2 10 -4 10 -6 0 -9 14 -7 30 4 34 -14 44 -72 36 -24 -2 -30 0 -23 7
14 14 14 87 1 87 -5 0 -10 -5 -10 -11 0 -6 -6 -9 -12 -6 -7 2 -21 0 -30 -5
-14 -7 -18 -5 -18 9 0 15 -2 16 -10 3 -10 -15 -20 -10 -24 12 -1 7 -6 19 -10
27 -6 10 -5 12 2 7 8 -5 12 4 12 28 l0 36 -47 1 c-27 0 -70 1 -98 2 l-50 2 1
46 1 46 -101 -1 -101 -1 3 33 c1 22 -1 31 -9 26 -7 -4 -7 1 1 16 11 20 10 22
-4 17 -9 -4 -16 -3 -16 2 0 4 -23 4 -52 1 -28 -4 -63 -5 -77 -4 -14 2 -72 5
-128 6 -87 2 -103 5 -106 20 -3 10 -4 156 -3 325 1 169 -2 325 -5 345 -3 21
-3 35 1 33 11 -7 6 89 -5 97 -6 5 -6 8 1 8 7 0 10 29 10 83 l-1 82 -107 0
c-58 0 -104 -3 -102 -7 6 -10 6 -967 0 -976 -3 -5 -21 -7 -40 -6 -20 2 -36 -1
-36 -7 0 -6 -5 -7 -12 -3 -7 5 -29 7 -49 5 -42 -3 -50 9 -47 72 1 20 -1 39 -3
41 -2 2 -24 6 -49 8 l-45 4 3 137 3 137 -50 -4 c-28 -2 -50 0 -49 3 0 3 0 27
-1 53 l-1 47 -51 -3 -50 -3 2 151 2 151 -49 1 -48 1 -2 85 c0 46 -4 90 -8 96
-5 9 8 12 46 13 29 0 75 1 102 2 l49 2 1 122 c1 80 -2 119 -8 113 -6 -6 -14
-10 -20 -10 -5 0 -2 6 9 13 13 11 19 29 20 73 1 32 3 61 4 64 0 3 40 5 88 5
l88 0 0 32 c0 18 2 33 5 33 3 0 4 28 2 62 -5 75 7 89 68 78 21 -4 41 -4 42 1
2 4 22 4 46 -1 35 -6 42 -5 38 6 -3 8 0 14 6 14 7 0 7 4 1 13 -5 6 -9 36 -8
64 0 29 -2 53 -6 53 -4 0 -5 9 -2 20 5 18 0 20 -55 20 -33 0 -68 3 -78 7 -10
4 -15 2 -11 -4 3 -5 -4 -9 -16 -9 -20 1 -21 -3 -20 -91 1 -66 -2 -93 -10 -94
-60 -4 -157 -3 -157 3 0 3 -9 4 -20 1 -15 -4 -17 -9 -10 -23 5 -9 7 -20 4 -23
-3 -3 -7 -37 -7 -75 -1 -39 -5 -74 -10 -78 -4 -4 -44 -9 -90 -12 -45 -2 -83
-5 -84 -6 -1 -1 -3 -39 -4 -84 -1 -47 -7 -86 -13 -90 -15 -9 -91 -13 -142 -7
l-41 6 1 289 1 290 -25 -1 c-14 0 -59 0 -101 1 l-75 2 -2 341 c-1 188 -2 344
-3 347 -1 3 -1 9 0 14 1 5 3 72 3 148 l1 138 102 0 c67 0 106 4 114 13 11 9
13 9 7 0 -6 -10 53 -13 277 -13 l283 1 1 69 c1 39 -3 68 -7 65 -9 -6 -6 28 4
44 3 4 1 22 -4 39 -4 18 -5 34 -1 36 4 3 6 47 4 98 -2 51 -3 100 -2 108 4 115
2 170 -6 170 -6 0 -6 3 0 8 14 9 13 55 0 64 -6 5 -6 8 2 8 7 0 11 19 11 50 1
28 -2 48 -6 46 -4 -3 -8 4 -8 14 0 10 3 17 6 15 3 -2 5 21 5 50 0 29 -4 51 -9
48 -4 -3 -5 5 -1 18 13 39 13 169 1 169 -7 0 -8 3 -1 8 14 9 14 334 0 344 -7
5 -6 8 1 8 10 0 11 21 4 55 -1 6 -2 12 -1 15 5 17 8 207 3 215 -9 14 -11 36
-4 31 4 -2 8 25 8 60 1 39 -2 61 -8 58 -6 -4 -7 0 -1 12 9 20 9 242 -1 282 -3
13 -1 20 5 17 5 -4 9 -2 9 4 0 5 -4 12 -9 16 -5 3 -6 17 -2 33 4 15 4 39 0 55
-4 16 -4 25 2 21 5 -3 9 2 9 11 0 9 -3 14 -7 12 -5 -3 -8 5 -8 18 0 13 3 21 8
18 4 -2 7 1 7 6 0 6 -8 11 -17 11 -15 0 -16 2 -3 10 12 7 15 38 16 154 1 98
-2 144 -9 139 -6 -3 -7 -1 -3 5 4 6 8 38 11 72 2 44 0 58 -8 53 -9 -5 -9 -3
-1 8 5 8 9 23 8 34 -4 30 -4 49 0 190 1 72 -1 138 -6 149 -7 13 -7 16 1 11 8
-4 11 5 9 29 -1 20 -7 36 -13 36 -6 0 -6 3 1 8 14 9 13 444 -1 454 -6 5 -6 8
1 8 16 0 16 110 1 110 -8 0 -9 3 -2 8 14 9 14 165 0 174 -5 4 -283 7 -618 8
-484 0 -607 -3 -601 -12 6 -10 5 -10 -7 -1 -11 9 -170 12 -654 12 -467 0 -640
3 -646 12 -5 8 -8 8 -10 0z m-839 -31 c0 -5 -2 -10 -4 -10 -3 0 -8 5 -11 10
-3 6 -1 10 4 10 6 0 11 -4 11 -10z m1420 6 c0 -3 -4 -8 -10 -11 -5 -3 -10 -1
-10 4 0 6 5 11 10 11 6 0 10 -2 10 -4z m-163 -12 c-3 -3 -12 -4 -19 -1 -8 3
-5 6 6 6 11 1 17 -2 13 -5z m-1190 -36 c-3 -8 -6 -5 -6 6 -1 11 2 17 5 13 3
-3 4 -12 1 -19z m90 16 c-3 -3 -12 -4 -19 -1 -8 3 -5 6 6 6 11 1 17 -2 13 -5z
m2440 0 c-3 -3 -12 -4 -19 -1 -8 3 -5 6 6 6 11 1 17 -2 13 -5z m187 -22 c3 -5
-1 -9 -9 -9 -8 0 -12 4 -9 9 3 4 7 8 9 8 2 0 6 -4 9 -8z m-629 -82 c3 -6 -1
-7 -9 -4 -18 7 -21 14 -7 14 6 0 13 -4 16 -10z m-941 -52 c74 0 106 -3 106
-11 0 -9 2 -9 8 0 10 16 534 15 544 -1 5 -8 8 -7 8 2 0 17 780 16 780 -2 0 -8
3 -7 8 1 10 16 332 15 332 -1 0 -6 4 -5 9 3 5 7 14 10 20 7 6 -4 11 0 12 11 0
11 3 13 6 5 2 -6 9 -10 14 -6 5 3 9 1 9 -5 0 -6 7 -8 15 -5 9 4 15 0 15 -7 0
-11 2 -11 8 -2 5 8 21 10 44 7 28 -5 37 -12 41 -30 2 -14 -1 -24 -7 -25 -6 0
-2 -4 9 -9 11 -5 15 -9 9 -9 -7 -1 -10 -58 -10 -182 1 -99 -3 -183 -7 -186 -4
-3 -3 -11 4 -19 8 -10 8 -14 1 -14 -6 0 -9 -7 -6 -15 3 -8 7 -85 9 -172 1 -87
4 -158 5 -158 1 0 4 -10 5 -22 1 -12 -2 -20 -7 -17 -6 4 -8 -55 -6 -154 2 -96
0 -158 -6 -155 -5 4 -6 1 0 -8 12 -18 12 -429 0 -429 -5 0 -4 -6 2 -13 7 -8
10 -63 8 -153 -2 -76 0 -149 5 -160 4 -12 5 -25 1 -28 -3 -4 -5 -29 -3 -56 2
-32 -2 -50 -9 -50 -8 0 -8 -6 0 -20 6 -11 7 -20 2 -20 -5 0 -6 -19 -3 -42 3
-24 6 -125 6 -225 0 -99 4 -179 9 -176 12 8 -5 -41 -18 -49 -7 -5 -7 -8 3 -8
8 0 11 -6 7 -16 -4 -9 -1 -24 6 -32 10 -12 10 -14 1 -8 -7 4 -13 2 -13 -3 0
-6 5 -11 10 -11 7 0 7 -7 -1 -21 -6 -12 -8 -34 -5 -50 4 -19 1 -29 -7 -29 -7
0 -8 -3 -2 -8 6 -4 10 -66 10 -150 0 -116 -3 -144 -15 -152 -11 -7 -11 -10 -2
-10 7 0 11 -4 7 -9 -3 -5 -1 -12 4 -15 6 -4 6 -18 1 -36 -5 -18 -5 -28 1 -25
5 4 7 -17 5 -50 -2 -30 0 -58 5 -61 5 -3 9 -11 9 -17 0 -7 -4 -6 -10 3 -7 10
-9 -17 -8 -85 1 -55 6 -106 12 -114 8 -11 8 -13 -1 -7 -10 5 -13 -9 -14 -61
-2 -105 -4 -128 -10 -123 -3 3 -14 -2 -24 -10 -12 -10 -16 -10 -11 -2 6 10
-18 13 -123 11 -84 -1 -128 -6 -124 -12 4 -6 1 -7 -8 -1 -23 14 -141 15 -132
1 5 -9 3 -9 -8 0 -8 6 -38 11 -66 10 -43 0 -51 -3 -41 -14 9 -11 7 -12 -8 -6
-10 3 -22 11 -26 17 -6 7 -11 6 -18 -4 -5 -8 -10 -10 -10 -5 0 6 -13 10 -30
10 -16 1 -30 -2 -30 -5 0 -4 -7 -7 -15 -7 -8 0 -12 4 -9 9 3 4 -14 7 -36 6
-23 -1 -45 4 -49 10 -4 7 -6 68 -5 137 l1 126 -96 -3 c-78 -2 -95 -6 -93 -18
2 -8 4 -49 4 -92 0 -43 4 -81 9 -84 5 -3 9 -11 9 -17 0 -9 -3 -8 -8 1 -6 9
-15 -204 -13 -298 1 -8 1 -47 2 -85 l1 -71 31 1 c20 0 33 7 39 20 7 18 8 17 4
-3 -4 -22 -2 -23 50 -18 52 4 56 3 67 -22 9 -19 9 -26 0 -29 -8 -3 -9 -13 -3
-34 6 -20 5 -29 -3 -29 -7 0 -6 -4 3 -10 8 -5 10 -10 4 -10 -7 0 -9 -15 -4
-46 5 -32 3 -49 -6 -59 -9 -8 -10 -15 -3 -17 11 -4 15 -252 4 -288 -6 -17 -4
-21 6 -14 11 6 12 5 2 -8 -7 -8 -11 -17 -8 -19 8 -9 -120 -3 -134 5 -9 6 -12
5 -7 -2 3 -6 2 -13 -4 -17 -5 -3 -10 -1 -10 4 0 6 -7 11 -16 11 -13 0 -15 -13
-14 -77 0 -43 1 -114 1 -157 0 -44 2 -83 5 -88 3 -4 0 -8 -6 -8 -8 0 -8 -6 0
-20 6 -11 7 -20 3 -20 -4 0 -1 -5 7 -9 14 -8 81 -15 105 -11 6 1 41 1 79 0 38
-1 66 3 62 8 -3 5 1 9 9 9 8 0 15 -4 15 -9 0 -12 54 -10 68 4 8 8 15 8 26 -1
11 -10 15 -46 16 -179 1 -92 2 -180 3 -197 2 -28 0 -30 -34 -31 -19 0 -41 -4
-47 -8 -7 -4 -12 -4 -12 1 0 4 -24 9 -54 10 -49 1 -55 -1 -58 -20 -2 -12 -1
-33 3 -47 6 -23 3 -26 -25 -29 -62 -6 -252 -6 -298 0 -27 3 -48 1 -48 -3 0 -5
-5 -6 -10 -3 -7 4 -9 -10 -6 -39 2 -25 1 -46 -3 -47 -3 0 -62 -2 -131 -3 -99
-2 -124 -5 -122 -16 3 -11 0 -11 -12 0 -21 16 -314 22 -335 6 -11 -8 -13 -8
-8 1 6 9 -14 11 -82 9 l-90 -3 2 147 c2 80 7 152 12 160 5 9 4 11 -3 6 -13 -8
-14 15 -4 50 6 17 14 21 46 20 24 -1 41 4 44 12 4 11 7 11 12 2 8 -13 102 -16
121 -5 5 4 9 2 9 -3 0 -5 12 -7 26 -4 16 3 30 -1 35 -9 6 -10 9 -11 9 -1 0 16
311 13 322 -3 5 -6 8 -6 8 2 0 9 43 11 159 11 87 -1 163 2 169 6 7 4 10 25 7
51 -2 30 0 45 8 45 9 0 9 2 1 8 -14 9 -13 74 1 84 6 4 -67 7 -161 6 -94 0
-176 2 -182 6 -6 3 -13 2 -17 -4 -4 -6 -10 -8 -14 -6 -4 3 -57 6 -117 7 l-110
1 2 92 1 93 -66 1 c-121 4 -124 5 -128 32 -1 14 -3 58 -2 98 l0 72 -53 1 c-29
1 -70 1 -90 0 -20 0 -40 4 -43 10 -7 10 -7 52 -1 291 l3 87 -39 -1 c-47 0 -50
2 -53 44 -2 18 -3 37 -4 41 -2 14 -92 2 -101 -14 -6 -9 -9 18 -9 71 1 47 1
102 0 122 l-1 38 -59 -2 c-33 -1 -58 -5 -55 -10 3 -4 0 -8 -5 -8 -6 0 -11 5
-11 10 0 6 -14 10 -30 10 -30 0 -30 1 -29 50 l2 50 61 1 c188 2 318 0 323 -5
3 -3 6 -45 5 -93 0 -48 2 -92 5 -98 2 -7 43 -12 109 -13 l105 -2 -2 101 c-1
55 1 102 3 105 10 10 386 9 380 -1 -8 -12 -10 -185 -2 -180 3 2 6 -5 6 -16 0
-10 -3 -19 -7 -19 -4 0 -6 -19 -6 -42 l1 -43 -42 -3 -42 -3 0 -75 c0 -57 3
-74 13 -69 6 4 4 0 -6 -9 -14 -11 -16 -19 -9 -32 6 -10 6 -31 -1 -56 -5 -21
-7 -41 -5 -44 8 -7 138 -10 138 -3 0 7 32 5 46 -3 6 -4 9 18 7 65 -5 116 -4
188 3 210 3 11 2 17 -3 14 -5 -4 -10 0 -10 8 0 8 4 15 9 15 4 0 6 15 4 33 -6
43 2 52 44 52 l35 0 0 121 c0 103 2 121 15 117 10 -3 11 -2 3 4 -9 7 -18 190
-14 293 1 8 2 43 2 78 1 46 5 62 16 62 8 0 12 -4 9 -8 -3 -5 33 -9 80 -9 50 0
87 4 91 10 4 6 7 55 7 109 l1 98 -35 1 c-19 1 -39 0 -45 -1 -5 -2 -31 -3 -57
-3 -32 1 -46 -3 -42 -11 3 -6 -2 -2 -10 8 -9 11 -16 14 -16 7 0 -7 -5 -9 -12
-5 -11 7 -53 10 -60 4 -11 -7 -38 -6 -38 2 0 6 -6 5 -15 -2 -11 -9 -15 -9 -15
-1 0 7 -5 9 -12 4 -7 -4 -17 -8 -23 -8 -6 0 -11 -40 -11 -97 -2 -93 -1 -98 20
-99 20 -2 20 -2 -2 -6 -22 -4 -23 -9 -21 -79 1 -41 -1 -77 -4 -81 -4 -3 -3
-11 2 -17 4 -6 6 -28 4 -48 -5 -33 -9 -38 -32 -39 -14 0 -82 -1 -151 -2 -76 0
-128 -5 -132 -11 -5 -8 -8 -8 -8 0 0 13 -78 12 -99 0 -10 -6 -12 -5 -7 2 5 9
-12 12 -61 12 -37 0 -75 0 -83 0 -180 2 -547 -7 -543 -13 3 -5 -6 -2 -20 8
-14 9 -27 12 -30 8 -3 -4 -70 -7 -149 -6 -78 1 -192 2 -253 2 -60 -1 -164 -1
-230 -2 -66 0 -122 -4 -125 -7 -3 -4 -16 -3 -30 2 -20 7 -22 11 -10 18 13 9
13 10 0 10 -9 0 -11 3 -5 8 16 12 19 102 3 102 -10 0 -9 3 2 11 11 8 12 12 3
16 -7 2 -13 9 -13 14 0 6 5 7 10 4 6 -4 10 11 11 37 0 24 1 80 2 125 1 46 -1
83 -4 83 -4 0 -10 7 -13 16 -3 8 -2 12 4 9 5 -3 9 14 9 42 0 26 1 71 3 98 2
28 1 64 -3 82 -4 18 -4 35 -1 38 10 10 11 35 1 29 -5 -3 -9 1 -9 10 0 8 6 17
13 19 8 4 8 8 2 14 -11 9 -17 45 -6 39 3 -2 6 18 6 44 1 27 -2 47 -5 45 -3 -2
-4 30 -2 71 2 48 -1 80 -8 90 -7 7 -8 14 -3 14 11 0 11 0 14 106 1 45 -2 87
-6 94 -6 9 -4 11 5 5 9 -6 11 -4 4 6 -4 8 -7 41 -6 74 6 118 7 335 2 335 -8 0
-4 235 4 248 4 7 4 12 -1 12 -4 0 -6 45 -3 101 3 56 2 103 -2 105 -5 3 -4 32
2 42 4 6 3 70 -2 78 -3 5 -4 18 -2 29 7 42 6 243 -1 255 -5 9 -4 11 3 6 7 -4
12 -2 12 3 0 6 -6 11 -12 11 -8 0 -9 3 -3 8 13 10 16 42 4 63 -6 12 -5 20 2
24 6 5 4 11 -7 19 -12 9 -14 15 -6 20 7 4 11 36 11 81 -1 41 3 79 7 86 4 7 3
10 -2 6 -5 -3 -9 27 -9 69 0 41 2 74 5 74 4 0 4 136 0 150 -1 3 -2 21 -2 40 0
19 -5 38 -12 42 -8 6 -8 8 1 8 7 0 11 24 12 73 0 39 1 104 1 142 2 103 2 107
-12 99 -7 -4 -5 2 4 13 21 23 23 46 7 75 -8 15 -8 19 0 13 9 -5 510 -8 596 -3
6 0 24 -1 40 -2 28 -1 64 -1 270 0 145 0 178 0 186 -5 4 -3 10 -2 13 3 7 12
76 2 76 -11 0 -6 8 -1 17 10 10 12 20 17 24 12 3 -6 53 -10 113 -11z m5726
-79 c0 -5 -4 -9 -8 -9 -5 0 -9 7 -9 15 0 8 4 12 9 9 4 -3 8 -9 8 -15z m-1005
-289 c3 -6 -1 -7 -9 -4 -18 7 -21 14 -7 14 6 0 13 -4 16 -10z m-1130 -18 c-3
-3 -11 0 -18 7 -9 10 -8 11 6 5 10 -3 15 -9 12 -12z m-189 -107 c-1 -8 -5 -17
-8 -21 -5 -4 -4 16 1 34 3 9 9 -1 7 -13z m-1241 -335 c-3 -5 -12 -10 -18 -10
-7 0 -6 4 3 10 19 12 23 12 15 0z m4262 -5 c0 -8 -4 -12 -9 -9 -5 3 -6 10 -3
15 9 13 12 11 12 -6z m-7872 -65 c3 -5 1 -10 -4 -10 -6 0 -11 5 -11 10 0 6 2
10 4 10 3 0 8 -4 11 -10z m5582 -15 c0 -8 -4 -12 -9 -9 -5 3 -6 10 -3 15 9 13
12 11 12 -6z m88 -23 c-3 -3 -11 0 -18 7 -9 10 -8 11 6 5 10 -3 15 -9 12 -12z
m-1155 -12 c-6 -11 -13 -20 -16 -20 -2 0 0 9 6 20 6 11 13 20 16 20 2 0 0 -9
-6 -20z m83 -245 c-3 -9 -8 -14 -10 -11 -3 3 -2 9 2 15 9 16 15 13 8 -4z
m-189 -11 c3 -8 2 -12 -4 -9 -6 3 -10 10 -10 16 0 14 7 11 14 -7z m1256 -34
c0 -5 -5 -10 -11 -10 -5 0 -7 5 -4 10 3 6 8 10 11 10 2 0 4 -4 4 -10z m-1605
-78 c-3 -3 -11 0 -18 7 -9 10 -8 11 6 5 10 -3 15 -9 12 -12z m310 8 c3 -5 1
-10 -4 -10 -6 0 -11 5 -11 10 0 6 2 10 4 10 3 0 8 -4 11 -10z m2699 -78 c3 -5
-1 -9 -9 -9 -8 0 -12 4 -9 9 3 4 7 8 9 8 2 0 6 -4 9 -8z m-3114 -27 c7 -9 8
-15 2 -15 -5 0 -12 7 -16 15 -3 8 -4 15 -2 15 2 0 9 -7 16 -15z m2940 -55 c0
-5 -2 -10 -4 -10 -3 0 -8 5 -11 10 -3 6 -1 10 4 10 6 0 11 -4 11 -10z m-215
-20 c3 -5 1 -10 -4 -10 -6 0 -11 5 -11 10 0 6 2 10 4 10 3 0 8 -4 11 -10z
m1363 -15 c-3 -3 -9 2 -12 12 -6 14 -5 15 5 6 7 -7 10 -15 7 -18z m-1208 -9
c0 -2 -7 -7 -16 -10 -8 -3 -12 -2 -9 4 6 10 25 14 25 6z m-953 -202 c-3 -3
-12 -4 -19 -1 -8 3 -5 6 6 6 11 1 17 -2 13 -5z m-622 -22 c-3 -3 -11 0 -18 7
-9 10 -8 11 6 5 10 -3 15 -9 12 -12z m705 -26 c0 5 79 9 179 9 120 0 177 -3
173 -10 -3 -5 1 -5 9 2 8 6 24 11 34 9 18 -2 20 -12 23 -76 2 -41 8 -81 15
-90 10 -13 10 -13 -4 -2 -14 10 -18 10 -23 -3 -3 -9 -2 -13 4 -10 6 3 7 -1 4
-9 -4 -10 -12 -13 -22 -8 -20 9 -209 9 -218 0 -3 -4 -16 -3 -28 2 -13 4 -29 5
-36 0 -7 -5 -23 -5 -34 -1 -22 8 -69 6 -93 -3 -8 -3 -11 -1 -8 5 6 9 -21 6
-62 -7 -7 -2 -13 1 -13 6 0 17 -58 11 -76 -7 -11 -11 -13 -18 -5 -21 6 -2 9
-7 6 -12 -2 -4 -7 -39 -10 -79 l-5 -71 33 -1 c17 0 44 -2 60 -3 15 -1 27 1 27
4 0 3 28 3 61 2 36 -2 59 0 56 5 -4 5 0 10 8 10 8 0 12 -4 9 -9 -3 -4 75 -8
173 -8 l178 0 -1 -45 -2 -45 54 0 54 0 0 81 0 81 -27 -2 c-54 -4 -79 0 -64 9
7 5 9 11 4 14 -5 3 -10 26 -12 51 l-2 45 103 0 c165 -1 190 1 184 17 -3 8 -1
14 4 14 6 0 10 -7 10 -16 0 -12 6 -15 26 -10 18 5 24 3 19 -5 -5 -8 -2 -8 11
-2 11 4 46 8 79 8 l60 0 5 -45 c3 -25 3 -68 0 -97 l-6 -52 50 -3 51 -3 -2
-184 c-1 -101 1 -189 3 -196 4 -9 46 -11 157 -9 84 1 154 3 157 4 3 1 10 1 15
0 25 -6 60 -6 65 1 3 4 3 47 0 97 -4 63 -1 93 7 101 14 13 26 15 19 2 -8 -13
256 -11 273 3 11 8 13 8 8 -1 -5 -8 5 -13 35 -15 l43 -3 0 -57 c0 -31 3 -59 6
-63 4 -3 2 -19 -4 -36 -10 -26 -25 -35 -52 -29 -10 2 -128 0 -195 -4 l-35 -2
0 -66 c0 -54 -3 -65 -15 -61 -8 3 -4 -3 9 -12 22 -17 22 -19 7 -30 -24 -18 -6
-22 87 -22 43 0 80 -3 84 -6 6 -7 4 -169 -2 -176 -2 -2 -42 -4 -88 -5 -76 -1
-83 1 -85 19 -1 16 1 17 9 5 9 -12 9 -11 4 5 -4 11 -8 41 -10 68 -2 26 -7 52
-11 59 -4 7 -3 8 4 4 7 -4 12 -1 12 8 0 15 -23 24 -68 24 -15 1 -20 -3 -15
-11 4 -7 1 -7 -10 1 -22 19 -40 7 -27 -19 8 -14 7 -19 -2 -20 -10 0 -10 -2 -1
-6 8 -3 10 -11 5 -21 -11 -22 -8 -204 3 -222 5 -8 4 -11 -2 -7 -6 4 -10 -12
-9 -45 2 -42 6 -52 24 -59 12 -5 24 -4 27 0 3 5 39 8 80 6 41 -2 75 -1 76 3 0
4 2 26 4 50 2 24 6 46 9 49 3 4 47 6 96 6 l90 0 1 206 c0 113 0 225 -1 249 -1
38 11 55 24 33 3 -5 36 -7 73 -6 38 2 75 2 83 -1 13 -3 15 -43 13 -290 -1
-157 -3 -288 -5 -290 -10 -9 -78 -11 -84 -3 -4 6 -11 6 -20 -2 -8 -6 -14 -7
-14 -2 0 5 -14 8 -31 5 -28 -4 -30 -7 -29 -41 1 -20 2 -64 1 -98 l-1 -62 -123
2 c-67 0 -129 -3 -136 -8 -9 -5 -12 -4 -8 1 3 6 -29 9 -84 7 -65 -2 -89 1 -89
10 0 9 -2 9 -8 0 -4 -7 -33 -11 -75 -10 -37 1 -67 -2 -67 -6 0 -5 -6 -5 -12
-2 -7 4 -2 -2 12 -13 14 -12 21 -24 17 -28 -4 -4 -7 -2 -7 4 0 7 -4 12 -10 12
-6 0 -10 -61 -10 -162 0 -90 0 -170 -1 -179 0 -12 -12 -18 -35 -21 -19 -2 -37
-2 -39 1 -3 2 -30 6 -60 7 -42 2 -55 -1 -56 -12 0 -8 -1 -49 -2 -91 l0 -78 44
-5 c25 -3 42 -9 39 -15 -8 -15 42 -19 51 -3 6 9 9 9 9 1 0 -7 10 -10 24 -7 24
4 25 4 24 -77 0 -66 3 -84 16 -91 21 -12 126 -16 119 -5 -6 10 49 -3 61 -14 5
-4 8 -34 7 -66 -2 -84 0 -422 2 -465 1 -20 -1 -34 -5 -32 -3 2 -9 0 -13 -6 -3
-5 -15 -10 -26 -10 -14 0 -18 -4 -13 -12 6 -10 5 -10 -7 -1 -10 8 -41 12 -77
11 -70 -2 -62 13 -65 -123 l-2 -70 -45 -5 c-25 -3 -69 -3 -98 1 -44 4 -51 3
-48 -10 5 -15 9 -109 7 -159 -1 -23 -3 -23 -98 -21 l-98 2 -2 -92 c-1 -51 -4
-95 -7 -99 -9 -8 -82 -17 -111 -12 -5 0 -50 2 -100 3 l-90 2 -1 43 c0 50 -15
63 -61 57 -35 -4 -34 -5 -37 65 -1 23 -5 25 -58 28 l-58 3 0 48 0 48 -80 0
c-71 -1 -78 -2 -68 -16 11 -14 10 -15 -5 -1 -22 20 -39 78 -26 86 5 3 6 10 3
16 -4 6 7 9 27 8 62 -4 81 -1 73 12 -5 7 -3 8 6 3 7 -4 33 -9 57 -10 35 -1 42
2 38 14 -7 26 -8 157 -1 170 4 6 18 11 32 11 13 0 24 5 24 10 0 6 5 10 11 10
5 0 7 -4 4 -10 -4 -6 20 -10 64 -10 l70 0 -1 -85 c0 -47 -4 -85 -8 -85 -3 0
-7 -6 -7 -13 0 -9 19 -14 65 -15 35 -1 68 -4 72 -7 5 -3 16 2 24 11 11 10 16
11 16 3 0 -27 15 4 16 34 1 18 3 34 4 37 3 8 0 62 -6 91 -5 26 -7 27 -87 28
-45 1 -85 5 -89 9 -7 7 -10 84 -9 202 l1 66 43 -1 c23 0 45 -4 49 -10 4 -5 8
1 9 15 2 31 2 29 -6 65 -5 23 -4 26 4 15 9 -13 11 -11 11 6 0 20 5 22 87 23
50 1 90 6 94 12 4 6 5 26 2 43 l-4 33 65 -2 c45 -2 63 1 59 9 -3 6 0 5 8 -1 7
-7 26 -13 42 -13 27 0 28 -2 22 -37 -3 -20 -8 -39 -10 -41 -2 -3 -24 -5 -47
-6 -40 -1 -43 -3 -43 -28 -1 -16 4 -28 9 -28 6 0 5 -5 -1 -11 -6 -6 -9 -17 -7
-24 3 -8 -4 -12 -18 -12 -66 -1 -79 -4 -75 -15 2 -7 0 -25 -4 -40 -5 -18 -3
-29 4 -32 7 -2 -18 -5 -55 -5 -62 -1 -68 -3 -65 -21 2 -11 6 -22 10 -26 3 -4
2 -15 -3 -25 -7 -12 -6 -19 3 -22 9 -3 9 -7 -2 -20 -10 -13 -10 -17 -1 -17 9
0 9 -4 2 -13 -7 -8 -7 -17 2 -29 10 -13 31 -17 94 -19 46 -1 85 1 89 4 3 4 13
2 22 -2 14 -8 16 1 14 90 l-3 99 44 0 c29 0 48 6 57 17 10 11 10 14 2 9 -9 -5
-13 1 -13 18 0 14 6 26 13 26 9 0 9 2 -1 9 -8 5 8 6 38 3 l52 -5 -3 59 -3 59
52 0 c39 0 52 3 53 15 0 8 0 51 0 94 -1 53 2 82 10 87 18 11 -45 19 -127 16
-69 -2 -72 -1 -70 20 0 13 6 23 11 23 7 0 7 3 0 8 -15 11 -22 68 -12 107 5 19
-1 20 -99 22 l-104 1 0 -96 0 -97 -192 -2 c-111 -2 -196 -7 -202 -13 -16 -16
-15 -49 2 -42 11 4 13 2 6 -9 -5 -8 -10 -27 -10 -44 -5 -84 -9 -103 -18 -97
-6 3 -196 7 -422 7 -226 1 -415 5 -422 8 -6 4 -13 3 -16 -1 -3 -5 -30 -8 -61
-7 -30 1 -55 -1 -55 -5 0 -4 -21 -4 -47 0 -27 4 -59 3 -72 -2 -17 -6 -27 -5
-32 3 -4 7 -14 9 -22 6 -18 -7 -27 12 -27 54 0 16 -5 29 -12 29 -10 0 -10 2 0
8 14 10 12 82 -3 82 -5 0 -3 5 5 10 10 6 -15 9 -76 8 -50 0 -96 2 -102 6 -6 4
-10 21 -8 39 3 21 -2 36 -13 44 -12 10 -13 12 -1 8 12 -4 15 4 15 37 0 24 3
48 7 54 5 7 -20 11 -75 12 -45 0 -93 2 -107 4 l-25 3 3 104 c1 72 -2 109 -10
119 -10 13 -10 14 0 8 7 -4 12 -1 12 9 0 10 -5 13 -12 9 -9 -5 -9 -2 1 9 12
15 11 17 -10 18 -17 1 -19 3 -6 6 12 3 17 15 17 44 0 46 -2 55 -12 51 -5 -1
-8 2 -8 8 0 5 -33 8 -80 6 -44 -2 -83 0 -86 5 -3 5 -7 58 -8 117 -1 60 -6 114
-10 120 -4 7 -4 12 1 12 4 0 9 22 9 50 1 31 -2 47 -9 43 -6 -4 -7 -1 -2 7 13
21 15 141 3 163 -8 15 -7 18 3 12 9 -6 11 1 7 31 -4 21 -9 48 -14 58 -4 11 -4
17 2 13 11 -6 13 348 2 358 -4 4 -3 17 1 29 4 11 7 90 7 174 -1 84 1 158 5
164 7 11 220 12 424 2 125 -6 139 -6 155 -2 11 2 14 -4 12 -24 -2 -14 2 -29 7
-33 6 -3 11 -12 11 -18 0 -8 -3 -7 -9 2 -5 8 -10 -58 -11 -165 -2 -263 3 -239
-50 -239 l-45 0 0 -97 c0 -53 -4 -100 -8 -104 -4 -5 -24 -7 -44 -6 -39 3 -57
-12 -43 -38 5 -9 5 -22 0 -30 -5 -8 -4 -22 1 -32 5 -10 6 -18 1 -18 -10 0 -7
-73 4 -91 4 -7 3 -10 -2 -7 -11 7 -12 -177 -1 -188 4 -4 7 -3 7 3 0 6 9 9 22
5 16 -4 19 -2 14 9 -6 10 -4 10 6 -1 15 -17 38 -24 38 -11 0 5 15 7 33 5 17
-1 40 -3 51 -3 15 -1 17 -8 15 -44 l-4 -43 107 0 c60 1 108 3 108 6 0 8 55 4
68 -4 7 -4 12 -3 12 2 0 11 40 10 58 -1 6 -5 12 -4 12 0 0 5 9 9 20 9 11 0 20
-5 20 -10 0 -5 7 -1 15 10 9 11 13 13 10 4 -4 -12 4 -15 33 -15 l38 -1 -1 52
c0 30 3 50 9 47 16 -10 86 -15 87 -6 0 4 2 49 4 98 l3 90 -49 3 -49 3 0 -40
c0 -46 -19 -63 -59 -51 -14 4 -35 4 -46 0 -11 -4 -28 -4 -37 1 -9 5 -19 5 -22
1 -5 -9 -64 -7 -73 2 -4 3 -12 1 -20 -5 -7 -6 -13 -7 -13 -2 0 5 -7 10 -15 10
-8 0 -15 -3 -15 -7 0 -6 -36 -6 -166 -1 -29 1 -31 3 -32 43 -1 23 -4 43 -6 46
-3 2 -1 14 4 27 5 13 6 26 3 29 -10 9 -3 120 7 130 6 5 15 4 25 -4 12 -10 15
-10 15 0 0 9 4 9 13 2 22 -19 32 1 34 72 1 49 -2 65 -9 55 -8 -11 -9 -10 -4 4
3 10 6 32 6 47 0 28 2 29 45 28 50 -1 68 8 45 22 -10 7 -11 10 -3 10 10 0 12
51 11 223 -1 122 -5 229 -9 237 -6 12 -24 15 -88 13 -46 -1 -83 2 -87 8 -3 6
-6 48 -7 94 -1 46 -4 83 -7 83 -3 0 -7 1 -10 2 -3 1 -24 3 -47 4 -28 2 -40 -1
-36 -8 4 -6 -1 -5 -10 3 -14 11 -20 11 -34 0 -12 -10 -15 -10 -9 -1 6 10 0 11
-26 6 -18 -4 -44 -5 -58 -4 -14 2 -98 3 -187 2 l-163 0 3 31 c2 18 0 44 -4 60
-5 18 -4 27 4 27 8 0 8 3 2 8 -6 4 -11 23 -10 42 0 34 2 36 30 32 17 -3 33
-10 37 -16 5 -6 8 -7 8 -1 0 6 66 11 173 13 259 4 299 3 316 -11 8 -6 12 -7 9
-1 -5 7 64 10 223 10 126 -1 229 1 229 4 0 3 29 3 65 0 39 -3 65 -2 65 4 0 6
5 5 12 -2 13 -13 32 -17 25 -4 -3 4 10 7 29 7 19 0 34 -3 34 -6 0 -11 64 -2
68 10 2 7 11 4 23 -10 10 -12 19 -18 19 -13z m1292 1 c38 -3 56 -1 51 6 -4 6
-1 7 7 2 16 -10 235 -9 251 0 7 5 8 -7 3 -40 -4 -33 -3 -46 4 -41 6 3 14 2 17
-4 4 -6 1 -9 -6 -8 -13 3 -19 -23 -19 -79 0 -22 -4 -23 -85 -21 -47 0 -88 -2
-92 -5 -3 -4 -10 -4 -15 0 -6 3 -53 5 -105 5 l-94 -1 2 98 c2 64 6 98 13 95 6
-2 37 -5 68 -7z m-2997 -37 c3 -5 1 -10 -4 -10 -6 0 -11 5 -11 10 0 6 2 10 4
10 3 0 8 -4 11 -10z m3373 -25 c-3 -3 -9 2 -12 12 -6 14 -5 15 5 6 7 -7 10
-15 7 -18z m-4164 -41 c3 -8 2 -12 -4 -9 -6 3 -10 10 -10 16 0 14 7 11 14 -7z
m4484 -81 c3 -37 2 -187 -2 -190 -7 -7 -133 -6 -144 1 -6 3 -13 2 -17 -4 -4
-6 -11 -8 -17 -4 -5 3 -52 6 -103 5 l-93 -2 -4 36 c-2 19 1 40 6 45 6 6 6 10
1 10 -14 0 -10 95 4 96 6 1 12 2 14 4 7 5 99 5 102 0 3 -4 25 -5 50 -3 33 4
45 1 45 -9 0 -9 2 -10 8 -1 8 13 92 21 109 10 6 -4 16 0 23 8 16 19 16 19 18
-2z m-1637 -26 c-10 -9 -11 -8 -5 6 3 10 9 15 12 12 3 -3 0 -11 -7 -18z m-346
-45 c-3 -3 -11 0 -18 7 -9 10 -8 11 6 5 10 -3 15 -9 12 -12z m1052 -48 c-3 -3
-12 -4 -19 -1 -8 3 -5 6 6 6 11 1 17 -2 13 -5z m50 -60 c-3 -3 -12 -4 -19 -1
-8 3 -5 6 6 6 11 1 17 -2 13 -5z m-2572 -154 c3 -5 1 -10 -4 -10 -6 0 -11 5
-11 10 0 6 2 10 4 10 3 0 8 -4 11 -10z m792 -80 c-2 -11 -6 -22 -9 -26 -4 -3
-5 2 -3 13 2 10 4 21 4 26 1 4 3 7 6 7 3 0 4 -9 2 -20z m-5184 -105 c-3 -9 -8
-14 -10 -11 -3 3 -2 9 2 15 9 16 15 13 8 -4z m6917 1 c0 -2 -8 -10 -17 -17
-16 -13 -17 -12 -4 4 13 16 21 21 21 13z m1310 -152 c0 -8 -19 -13 -24 -6 -3
5 1 9 9 9 8 0 15 -2 15 -3z m-3163 -129 c0 -8 -4 -12 -9 -9 -5 3 -6 10 -3 15
9 13 12 11 12 -6z m3013 -85 c0 -5 -2 -10 -4 -10 -3 0 -8 5 -11 10 -3 6 -1 10
4 10 6 0 11 -4 11 -10z m-4665 -18 c-3 -3 -11 0 -18 7 -9 10 -8 11 6 5 10 -3
15 -9 12 -12z m945 -98 c0 -8 -19 -13 -24 -6 -3 5 1 9 9 9 8 0 15 -2 15 -3z
m3664 -220 c3 -8 2 -12 -4 -9 -6 3 -10 10 -10 16 0 14 7 11 14 -7z m-2537
-120 c-3 -3 -12 -4 -19 -1 -8 3 -5 6 6 6 11 1 17 -2 13 -5z m-3437 -140 c0 -8
-19 -13 -24 -6 -3 5 1 9 9 9 8 0 15 -2 15 -3z m440 -90 c0 -8 -19 -13 -24 -6
-3 5 1 9 9 9 8 0 15 -2 15 -3z m938 -189 c-3 -3 -9 2 -12 12 -6 14 -5 15 5 6
7 -7 10 -15 7 -18z m-2030 -10 c-3 -3 -9 2 -12 12 -6 14 -5 15 5 6 7 -7 10
-15 7 -18z m1739 -1 c-3 -3 -12 -4 -19 -1 -8 3 -5 6 6 6 11 1 17 -2 13 -5z
m-1692 -42 c-3 -3 -11 0 -18 7 -9 10 -8 11 6 5 10 -3 15 -9 12 -12z m-80 -10
c-3 -3 -11 0 -18 7 -9 10 -8 11 6 5 10 -3 15 -9 12 -12z m-1395 -13 c0 -5 -4
-9 -8 -9 -5 0 -9 7 -9 15 0 8 4 12 9 9 4 -3 8 -9 8 -15z m2874 -5 c3 -8 2 -12
-4 -9 -6 3 -10 10 -10 16 0 14 7 11 14 -7z m414 -29 c-3 -3 -9 2 -12 12 -6 14
-5 15 5 6 7 -7 10 -15 7 -18z m3662 15 c0 -5 -5 -10 -11 -10 -5 0 -7 5 -4 10
3 6 8 10 11 10 2 0 4 -4 4 -10z m-4855 -10 c3 -6 -1 -7 -9 -4 -18 7 -21 14 -7
14 6 0 13 -4 16 -10z m-1495 -40 c0 -5 -2 -10 -4 -10 -3 0 -8 5 -11 10 -3 6
-1 10 4 10 6 0 11 -4 11 -10z m804 -8 c3 -5 -1 -9 -9 -9 -8 0 -12 4 -9 9 3 4
7 8 9 8 2 0 6 -4 9 -8z m1797 -15 c-10 -9 -11 -8 -5 6 3 10 9 15 12 12 3 -3 0
-11 -7 -18z m1554 -56 c-3 -6 -11 -11 -16 -11 -5 0 -4 6 3 14 14 16 24 13 13
-3z m-2625 -21 c0 -5 -2 -10 -4 -10 -3 0 -8 5 -11 10 -3 6 -1 10 4 10 6 0 11
-4 11 -10z m-1186 -78 c3 -5 -1 -9 -9 -9 -8 0 -12 4 -9 9 3 4 7 8 9 8 2 0 6
-4 9 -8z m3828 -16 c7 4 8 2 4 -5 -9 -13 -26 -5 -25 12 0 9 2 8 6 -1 2 -6 10
-9 15 -6z m-1 -89 c-10 -9 -11 -8 -5 6 3 10 9 15 12 12 3 -3 0 -11 -7 -18z
m1753 -43 c3 -8 2 -12 -4 -9 -6 3 -10 10 -10 16 0 14 7 11 14 -7z m-30 -30 c3
-8 2 -12 -4 -9 -6 3 -10 10 -10 16 0 14 7 11 14 -7z m-4546 -49 c-3 -3 -9 2
-12 12 -6 14 -5 15 5 6 7 -7 10 -15 7 -18z m2975 -58 c2 -7 3 -25 2 -42 -5
-68 -7 -111 -6 -121 1 -7 19 -11 47 -10 25 1 48 -2 50 -6 3 -5 12 -5 20 0 8 4
30 6 49 4 32 -4 35 -7 37 -41 3 -73 2 -72 48 -62 19 4 40 6 45 4 14 -4 6 -257
-10 -282 -5 -10 -27 -12 -76 -9 -38 3 -66 2 -64 -2 7 -11 -77 5 -105 20 -22
12 -24 12 -12 -2 11 -13 10 -16 -4 -14 -12 1 -17 -8 -18 -37 0 -20 3 -37 7
-37 4 0 3 -9 -3 -20 -8 -15 -8 -20 2 -21 11 0 11 -2 0 -6 -9 -4 -10 -8 -2 -18
8 -10 8 -15 0 -20 -8 -5 -8 -11 1 -21 9 -12 6 -14 -22 -15 -19 -1 -38 -1 -43
0 -4 1 -15 -4 -24 -11 -12 -10 -14 -10 -8 0 5 9 -5 12 -39 12 -28 0 -44 -4
-40 -10 3 -6 -1 -7 -9 -4 -19 7 -18 -6 -21 284 -1 124 -3 230 -5 235 -3 14 1
69 6 74 2 3 27 4 54 2 31 -1 50 2 50 9 0 6 -6 8 -12 4 -9 -5 -9 -2 1 9 7 9 10
17 6 17 -4 0 -3 6 3 13 10 11 8 92 -3 124 -5 16 92 16 98 0z m742 -17 c3 -5 1
-10 -4 -10 -6 0 -11 5 -11 10 0 6 2 10 4 10 3 0 8 -4 11 -10z m-658 -122 c-3
-8 -6 -5 -6 6 -1 11 2 17 5 13 3 -3 4 -12 1 -19z m1361 -33 c-3 -3 -9 2 -12
12 -6 14 -5 15 5 6 7 -7 10 -15 7 -18z m-673 -1 c8 3 15 2 15 -2 0 -4 21 -6
47 -4 27 1 86 2 133 1 47 0 90 0 95 0 57 5 139 5 148 -1 6 -3 20 -3 32 2 12 5
26 5 32 2 12 -8 26 -45 15 -38 -5 3 -8 -29 -8 -71 1 -68 -1 -76 -19 -80 -37
-7 -153 -5 -166 2 -8 6 -10 4 -4 -5 6 -9 4 -10 -10 -3 -10 6 -32 7 -51 3 -22
-5 -35 -4 -38 4 -3 7 -8 6 -15 -4 -7 -11 -7 -16 2 -20 7 -3 13 -11 15 -18 1
-8 -2 -11 -8 -7 -6 4 -10 -8 -10 -29 0 -36 0 -36 -44 -36 -36 0 -45 -4 -45
-17 -1 -73 -1 -73 -41 -73 -36 0 -38 -2 -42 -35 -2 -19 1 -40 6 -45 7 -7 -11
-10 -53 -10 -34 0 -72 -5 -83 -11 -15 -8 -19 -8 -14 0 10 15 -37 14 -53 -1 -7
-7 -12 -8 -11 -3 2 6 1 12 0 15 -1 3 -3 44 -4 92 -2 91 -6 105 -27 92 -16 -9
-78 -11 -72 -1 2 4 -2 7 -9 7 -8 0 -9 3 -3 8 10 7 15 192 5 192 -3 0 -4 21 -1
46 3 39 6 45 22 41 10 -3 19 -2 19 1 0 7 87 7 169 1 26 -2 35 1 33 11 -3 11 0
11 12 1 9 -7 23 -11 31 -7z m-3283 -398 c7 4 8 2 4 -5 -9 -13 -26 -5 -25 12 0
9 2 8 6 -1 2 -6 10 -9 15 -6z m503 -26 c3 -5 1 -10 -4 -10 -6 0 -11 5 -11 10
0 6 2 10 4 10 3 0 8 -4 11 -10z m2892 4 c-3 -3 -12 -4 -19 -1 -8 3 -5 6 6 6
11 1 17 -2 13 -5z m-2889 -49 c-3 -3 -9 2 -12 12 -6 14 -5 15 5 6 7 -7 10 -15
7 -18z m767 -5 c-3 -5 -12 -10 -18 -10 -7 0 -6 4 3 10 19 12 23 12 15 0z
m-1125 -40 c0 -5 -2 -10 -4 -10 -3 0 -8 5 -11 10 -3 6 -1 10 4 10 6 0 11 -4
11 -10z m-843 -35 c0 -8 -4 -12 -9 -9 -5 3 -6 10 -3 15 9 13 12 11 12 -6z
m3923 5 c0 -5 -2 -10 -4 -10 -3 0 -8 5 -11 10 -3 6 -1 10 4 10 6 0 11 -4 11
-10z m500 0 c0 -5 -2 -10 -4 -10 -3 0 -8 5 -11 10 -3 6 -1 10 4 10 6 0 11 -4
11 -10z m-30 -54 c0 -2 -9 -6 -20 -9 -11 -3 -18 -1 -14 4 5 9 34 13 34 5z
m-1562 -51 c-3 -3 -9 2 -12 12 -6 14 -5 15 5 6 7 -7 10 -15 7 -18z m2357 5 c3
-5 1 -10 -4 -10 -6 0 -11 5 -11 10 0 6 2 10 4 10 3 0 8 -4 11 -10z m-768 -25
c0 -8 -4 -12 -9 -9 -5 3 -6 10 -3 15 9 13 12 11 12 -6z m-1249 -49 c-1 -14 -5
-23 -9 -20 -7 4 0 44 7 44 2 0 3 -11 2 -24z m1427 -146 c3 -5 1 -10 -4 -10 -6
0 -11 5 -11 10 0 6 2 10 4 10 3 0 8 -4 11 -10z m-3105 -27 c0 -3 -7 -3 -15 1
-8 3 -15 0 -15 -6 0 -6 -3 -9 -6 -5 -11 10 6 26 21 20 8 -3 15 -7 15 -10z
m-1276 -329 c3 -8 2 -12 -4 -9 -6 3 -10 10 -10 16 0 14 7 11 14 -7z m-649 -32
c-3 -3 -11 0 -18 7 -9 10 -8 11 6 5 10 -3 15 -9 12 -12z m168 -17 c-3 -9 -8
-14 -10 -11 -3 3 -2 9 2 15 9 16 15 13 8 -4z m712 -73 c-3 -3 -11 0 -18 7 -9
10 -8 11 6 5 10 -3 15 -9 12 -12z m3051 -98 c1 -9 0 -13 -4 -10 -3 4 -7 14 -8
22 -1 9 0 13 4 10 3 -4 7 -14 8 -22z m-1976 -118 c0 -3 -4 -8 -10 -11 -5 -3
-10 -1 -10 4 0 6 5 11 10 11 6 0 10 -2 10 -4z m558 -241 c-3 -3 -9 2 -12 12
-6 14 -5 15 5 6 7 -7 10 -15 7 -18z m1482 -345 c0 -5 -5 -10 -11 -10 -5 0 -7
5 -4 10 3 6 8 10 11 10 2 0 4 -4 4 -10z m-949 -223 c1 -12 1 -38 1 -57 0 -29
3 -36 19 -36 10 0 19 4 19 8 0 4 9 8 20 8 11 0 20 -6 20 -12 0 -10 2 -10 8 -1
4 7 28 11 55 10 l47 -1 0 -47 0 -46 43 -1 c23 -1 61 -3 85 -4 23 -2 42 0 42 4
0 3 9 4 19 1 12 -3 17 -11 14 -19 -4 -10 0 -13 13 -8 16 5 16 4 4 -5 -9 -6
-15 -28 -16 -53 -1 -24 0 -38 2 -33 2 6 24 9 49 8 32 -1 48 4 55 15 10 18 6
-23 -10 -83 l-7 -31 53 2 c59 2 58 4 56 -78 0 -16 5 -29 11 -29 7 -1 19 -2 27
-3 8 -1 25 2 38 6 15 5 21 4 17 -2 -3 -6 -1 -10 5 -10 6 0 9 -17 6 -45 -2 -25
1 -45 5 -45 5 0 9 6 9 13 0 11 10 12 43 7 23 -3 57 -3 74 1 18 3 30 2 27 -2
-3 -5 0 -9 5 -9 6 0 11 5 11 12 0 6 8 4 19 -6 12 -11 21 -14 26 -7 9 16 54 9
59 -9 3 -11 9 -294 7 -385 0 -5 0 -70 -1 -142 0 -73 -4 -134 -8 -134 -4 -1
-43 -3 -87 -5 -44 -1 -84 -3 -88 -3 -5 -1 -7 -9 -6 -18 1 -10 1 -33 0 -51 -1
-33 -2 -33 -46 -31 -24 2 -48 0 -51 -4 -4 -4 -13 -2 -21 4 -7 6 -13 7 -13 2 0
-4 -20 -8 -45 -8 -25 0 -45 4 -45 9 0 5 -6 3 -13 -3 -8 -6 -17 -8 -20 -4 -12
11 -98 12 -91 1 5 -7 2 -8 -6 -3 -23 14 -100 15 -100 2 0 -8 -3 -8 -8 -2 -4 6
-27 11 -51 12 -88 4 -87 2 -83 97 1 47 -2 87 -7 91 -17 10 -153 7 -164 -4 -6
-6 -16 -11 -21 -11 -6 0 -4 5 4 10 10 6 -10 9 -65 9 -44 -1 -92 -1 -107 0
l-26 1 0 98 c1 93 0 97 -22 100 -12 2 -27 -1 -33 -7 -7 -7 -15 -7 -24 1 -10 8
-20 8 -37 0 -13 -6 -27 -8 -31 -4 -4 4 -104 7 -223 8 -196 1 -217 2 -216 17 1
9 -2 17 -7 17 -4 0 -6 10 -3 23 2 12 5 50 5 85 1 46 4 61 12 54 7 -5 23 -6 37
-2 14 4 37 3 52 -1 17 -5 33 -2 47 7 18 13 20 13 15 -1 -5 -11 -2 -14 10 -9
10 4 16 1 16 -7 0 -10 2 -11 8 -2 5 9 49 11 155 10 l147 -2 0 97 0 98 -291 -1
c-160 0 -293 1 -294 3 -2 2 -5 47 -7 100 -3 85 -2 96 11 85 12 -9 13 -9 7 1
-6 9 32 12 176 11 101 -1 225 -1 276 0 91 1 93 1 103 28 11 30 20 138 13 158
-4 9 -72 12 -290 13 -156 1 -288 3 -293 6 -4 3 -7 22 -5 43 2 21 3 64 3 95 l1
58 435 -1 435 -1 1 -21z m2726 -19 c-3 -8 -6 -5 -6 6 -1 11 2 17 5 13 3 -3 4
-12 1 -19z m-1090 -174 c-3 -3 -12 -4 -19 -1 -8 3 -5 6 6 6 11 1 17 -2 13 -5z
m-87 -24 c0 -5 -5 -10 -11 -10 -5 0 -7 5 -4 10 3 6 8 10 11 10 2 0 4 -4 4 -10z
m355 -10 c3 -5 1 -10 -4 -10 -6 0 -11 5 -11 10 0 6 2 10 4 10 3 0 8 -4 11 -10z
m320 -90 c-3 -5 -12 -10 -18 -10 -7 0 -6 4 3 10 19 12 23 12 15 0z m-2708 -32
c-3 -8 -6 -5 -6 6 -1 11 2 17 5 13 3 -3 4 -12 1 -19z m1823 -72 c0 -3 -4 -8
-10 -11 -5 -3 -10 -1 -10 4 0 6 5 11 10 11 6 0 10 -2 10 -4z m-135 -55 c3 -5
24 -9 48 -9 23 0 65 0 93 -1 l52 -1 -4 -32 c-11 -101 -12 -201 -2 -188 8 12 8
11 3 -5 -10 -30 -13 -65 -5 -60 7 4 130 8 173 6 13 -1 18 -8 16 -23 -2 -13 0
-29 4 -35 5 -7 5 -13 0 -13 -4 0 -7 -44 -6 -97 1 -54 3 -135 4 -180 0 -55 5
-83 12 -83 8 0 8 -3 2 -8 -13 -9 -15 -21 -17 -83 0 -30 -6 -53 -13 -55 -7 -3
-48 -6 -91 -7 -83 -2 -99 -9 -83 -39 7 -12 6 -18 -1 -18 -6 0 -11 -10 -10 -22
1 -13 2 -46 1 -73 l-1 -50 -84 0 c-46 0 -88 3 -92 8 -4 4 -12 7 -18 7 -6 0 -4
-5 4 -10 10 -7 -1 -9 -37 -5 -36 3 -53 1 -53 -6 0 -8 -4 -8 -12 -2 -7 6 -32 8
-55 7 -47 -4 -48 -3 -44 76 1 19 1 54 1 77 0 42 0 43 32 40 18 -2 43 0 55 4
12 5 24 5 27 1 2 -4 22 -6 44 -4 30 3 39 8 36 20 -11 58 -13 82 -6 78 6 -3 7
105 2 124 -7 23 -3 200 5 200 5 0 5 4 -1 10 -6 6 -8 33 -4 65 3 30 4 55 1 55
-7 0 -6 178 1 185 2 2 3 38 2 80 -2 68 5 91 21 66z m-101 -59 c3 -5 -1 -9 -9
-9 -8 0 -12 4 -9 9 3 4 7 8 9 8 2 0 6 -4 9 -8z m330 -148 c3 -8 2 -12 -4 -9
-6 3 -10 10 -10 16 0 14 7 11 14 -7z m-3519 -264 c3 -6 -1 -7 -9 -4 -18 7 -21
14 -7 14 6 0 13 -4 16 -10z m1205 -24 c0 -2 -7 -7 -16 -10 -8 -3 -12 -2 -9 4
6 10 25 14 25 6z m-845 -15 c3 -5 2 -12 -3 -15 -5 -3 -9 1 -9 9 0 17 3 19 12
6z m3352 -16 c0 -8 -4 -12 -9 -9 -5 3 -6 10 -3 15 9 13 12 11 12 -6z m-584
-40 c-3 -9 -8 -14 -10 -11 -3 3 -2 9 2 15 9 16 15 13 8 -4z m-1612 -18 c-10
-9 -11 -8 -5 6 3 10 9 15 12 12 3 -3 0 -11 -7 -18z m-817 -3 c3 -8 2 -12 -4
-9 -6 3 -10 10 -10 16 0 14 7 11 14 -7z m3027 -27 c-10 -9 -11 -8 -5 6 3 10 9
15 12 12 3 -3 0 -11 -7 -18z m-3044 -22 c-4 -8 -12 -15 -19 -14 -10 0 -10 2 0
6 6 2 12 12 12 21 0 8 3 13 6 9 4 -3 4 -13 1 -22z m-112 -25 c3 -6 -1 -7 -9
-4 -18 7 -21 14 -7 14 6 0 13 -4 16 -10z m989 -106 c3 -8 2 -12 -4 -9 -6 3
-10 10 -10 16 0 14 7 11 14 -7z m-477 -10 c-3 -3 -12 -4 -19 -1 -8 3 -5 6 6 6
11 1 17 -2 13 -5z m-70 -56 c-3 -7 -5 -2 -5 12 0 14 2 19 5 13 2 -7 2 -19 0
-25z m1957 -44 c3 -8 2 -12 -4 -9 -6 3 -10 10 -10 16 0 14 7 11 14 -7z m-1327
-36 c-3 -7 -5 -2 -5 12 0 14 2 19 5 13 2 -7 2 -19 0 -25z m-87 -62 c0 -2 -8
-10 -17 -17 -16 -13 -17 -12 -4 4 13 16 21 21 21 13z m1835 -126 c3 -5 1 -10
-4 -10 -6 0 -11 5 -11 10 0 6 2 10 4 10 3 0 8 -4 11 -10z m1532 -16 c-3 -3
-12 -4 -19 -1 -8 3 -5 6 6 6 11 1 17 -2 13 -5z m233 0 c0 -8 -19 -13 -24 -6
-3 5 1 9 9 9 8 0 15 -2 15 -3z m15 -44 c-3 -5 -1 -10 6 -10 7 0 10 -3 6 -6 -9
-9 -28 6 -22 17 4 5 8 9 11 9 3 0 2 -4 -1 -10z m-1401 -8 c3 -5 -1 -9 -9 -9
-8 0 -12 4 -9 9 3 4 7 8 9 8 2 0 6 -4 9 -8z m496 -52 c0 -5 -5 -10 -11 -10 -5
0 -7 5 -4 10 3 6 8 10 11 10 2 0 4 -4 4 -10z m245 1 c3 -5 2 -12 -3 -15 -5 -3
-9 1 -9 9 0 17 3 19 12 6z m213 -16 c-3 -3 -9 2 -12 12 -6 14 -5 15 5 6 7 -7
10 -15 7 -18z m517 -3 c-3 -3 -11 0 -18 7 -9 10 -8 11 6 5 10 -3 15 -9 12 -12z"/>
<path d="M2458 9172 c-77 -2 -89 -5 -99 -24 -6 -11 -7 -18 -2 -15 5 3 9 -10 9
-28 -1 -19 -5 -35 -9 -35 -5 0 -5 -5 -2 -10 4 -6 7 -76 8 -155 l1 -145 43 0
c28 0 43 4 43 13 0 8 4 7 10 -3 9 -13 12 -12 25 4 12 16 15 17 15 4 0 -16 26
-28 48 -21 6 3 12 20 12 38 0 18 6 36 13 38 10 4 10 6 0 6 -7 1 -13 12 -13 26
0 14 6 25 13 25 8 0 9 3 1 8 -6 4 -11 16 -11 27 0 11 5 23 11 27 8 5 7 8 -1 8
-10 0 -13 26 -13 98 0 53 -4 102 -8 107 -4 6 -44 9 -94 7z m-48 -22 c0 -5 -2
-10 -4 -10 -3 0 -8 5 -11 10 -3 6 -1 10 4 10 6 0 11 -4 11 -10z"/>
<path d="M1205 8866 c0 -52 3 -97 7 -101 5 -5 121 -7 176 -3 9 1 12 27 11 100
l-1 98 -96 0 -97 0 0 -94z"/>
<path d="M3361 8949 c11 -7 11 -9 1 -9 -8 0 -13 -10 -12 -22 1 -13 2 -53 1
-90 l-1 -66 -77 -1 c-43 0 -87 0 -98 0 -18 -1 -21 -8 -21 -45 0 -25 3 -43 7
-41 7 5 4 -40 -5 -53 -3 -6 2 -13 12 -17 16 -7 15 -8 -3 -15 -19 -6 -18 -8 5
-20 29 -16 62 -21 54 -8 -3 4 9 8 26 8 22 0 29 4 24 13 -6 9 -4 9 8 -1 13 -10
17 -10 21 0 4 10 6 10 6 1 1 -7 10 -13 21 -13 18 0 20 7 21 83 1 45 1 85 0 90
-1 8 -6 8 88 13 41 2 80 5 86 8 7 2 11 31 10 78 -4 133 8 119 -96 117 -56 -1
-86 -5 -78 -10z m-158 -364 c4 -8 3 -16 -1 -19 -4 -3 -9 4 -9 15 -2 23 3 25
10 4z"/>
<path d="M1420 8760 c-24 -6 -25 -9 -26 -82 0 -52 3 -75 10 -71 6 3 5 0 -1 -8
-7 -7 -13 -22 -13 -32 0 -14 4 -17 18 -12 9 4 22 7 27 7 6 0 45 -3 87 -6 l77
-5 3 96 c2 52 1 99 -2 104 -10 15 -81 14 -90 -1 -6 -8 -10 -10 -10 -4 0 14
-46 22 -80 14z"/>
<path d="M1981 8487 c-1 -56 -7 -104 -12 -108 -6 -3 -46 -5 -90 -5 -43 1 -79
-2 -79 -6 0 -4 -6 -5 -12 -3 -10 4 -13 -17 -13 -87 l0 -93 -92 0 -93 0 0 -392
c0 -367 1 -393 18 -394 9 -1 22 0 27 1 10 2 111 3 132 1 10 -1 12 -48 10 -199
l-2 -197 38 0 c26 0 37 4 38 15 0 10 2 11 6 3 3 -8 23 -13 48 -13 25 0 45 5
48 13 4 10 6 10 6 0 1 -7 7 -13 14 -13 9 0 11 -28 9 -112 -2 -62 -3 -120 -2
-128 2 -60 -3 -106 -11 -108 -5 -2 -1 -12 10 -21 15 -13 36 -16 94 -14 72 2
75 1 79 -22 3 -13 1 -28 -4 -33 -6 -6 -5 -13 3 -17 8 -6 10 -4 4 5 -5 9 -4 11
4 6 8 -5 9 -12 2 -20 -8 -10 -16 -150 -11 -181 2 -5 2 -13 2 -16 -1 -3 -3 -23
-6 -45 -2 -22 -1 -46 3 -53 5 -7 37 -12 88 -13 46 0 91 -7 104 -14 13 -7 19
-13 12 -14 -8 0 -12 -26 -12 -84 l0 -85 27 1 c15 0 32 -1 37 -2 6 -1 12 -1 15
0 17 9 130 5 130 -4 0 -6 5 -3 11 7 6 11 9 31 6 47 -3 15 -1 33 6 40 10 10 9
11 -3 5 -12 -7 -13 -6 -4 6 7 8 11 33 9 57 l-2 43 34 -6 c19 -3 32 -2 29 3 -2
4 8 7 22 6 15 -1 39 -3 54 -3 22 -1 26 -5 21 -18 -5 -16 -4 -15 9 1 8 10 20
16 25 13 15 -9 20 12 13 48 -3 17 -3 54 0 83 4 29 4 54 2 56 -2 2 -4 51 -5
109 -2 100 -1 105 17 95 11 -6 16 -6 12 0 -3 5 5 10 19 10 16 0 22 -5 18 -12
-4 -6 2 -4 12 4 10 8 16 10 12 4 -5 -8 7 -11 39 -9 25 2 48 6 51 9 3 3 6 95 5
203 0 109 2 192 4 186 7 -15 34 -17 34 -3 0 6 5 10 11 10 5 0 8 -4 5 -8 -3 -5
10 -9 28 -10 19 -1 38 -2 42 -3 5 -1 24 -1 42 0 l32 1 0 93 c0 50 -4 107 -9
125 -6 20 -6 30 0 27 5 -4 9 14 9 40 0 34 -3 44 -12 39 -9 -5 -8 -2 1 9 8 10
11 20 8 24 -4 3 -2 13 3 23 8 15 22 17 94 14 l84 -2 6 31 c3 18 6 140 7 272 1
165 5 245 12 254 9 12 9 13 -1 7 -10 -6 -13 6 -11 57 1 35 -1 68 -4 74 -3 5 0
22 8 37 8 14 10 24 5 21 -6 -4 -10 1 -10 9 0 15 -42 19 -156 17 l-40 -1 1 105
c1 91 -1 103 -14 92 -10 -8 -12 -8 -8 -1 9 15 -102 7 -121 -8 -7 -6 -15 -8
-19 -4 -3 3 -1 6 5 6 7 0 12 4 12 10 0 5 -7 7 -15 4 -21 -8 -48 3 -39 17 3 6
6 37 6 70 -1 115 4 105 -49 104 -27 0 -56 3 -65 7 -9 5 -19 4 -22 -1 -3 -4
-20 -7 -38 -4 -54 7 -137 1 -156 -10 -6 -4 -14 -2 -19 5 -10 15 -55 17 -65 3
-5 -7 -8 -7 -8 0 0 6 -17 9 -37 8 -136 -6 -161 -5 -173 2 -7 5 -11 4 -8 -1 4
-5 -32 -9 -82 -9 -52 0 -86 3 -83 9 4 5 1 6 -7 1 -15 -9 -62 -10 -126 -2 l-40
5 -3 -101z m489 -111 c0 -5 6 -3 13 3 8 6 16 9 18 6 3 -2 64 -5 137 -6 l132
-1 1 -91 c1 -51 1 -97 0 -102 -1 -7 30 -9 89 -7 100 5 95 8 91 -70 0 -16 4
-28 10 -28 5 0 7 -5 4 -11 -4 -6 -8 -26 -9 -44 l-1 -34 47 2 c27 1 48 0 48 -3
0 -3 24 -4 53 -2 l53 4 2 -159 c1 -87 1 -169 1 -183 -1 -14 -2 -75 -3 -136
l-1 -111 -103 2 -103 3 1 -67 c3 -144 8 -131 -52 -132 -29 -1 -63 0 -76 1 -13
1 -30 -4 -39 -12 -14 -11 -15 -11 -8 1 5 9 4 12 -3 7 -7 -4 -11 -63 -11 -169
0 -89 0 -173 0 -187 -1 -22 -5 -25 -34 -25 -18 1 -38 4 -45 9 -7 4 -12 3 -12
-3 0 -5 -12 -7 -27 -5 -35 6 -54 7 -72 2 -10 -2 -13 8 -13 35 0 20 1 107 1
192 l1 155 90 0 c50 0 90 3 91 8 6 71 5 291 -2 287 -5 -4 -5 3 0 17 6 17 4 26
-8 36 -9 7 -10 11 -3 7 8 -4 12 4 12 27 0 26 3 30 11 18 9 -12 10 -12 5 3 -3
10 -6 36 -6 56 l0 38 -56 -4 -57 -3 6 50 c6 46 -3 65 -18 40 -3 -5 -15 -6 -28
-1 -12 5 -30 7 -39 6 -10 -2 -18 2 -18 8 0 8 -3 8 -8 2 -12 -17 -65 -15 -79 3
-9 12 -12 13 -11 3 2 -10 -9 -14 -43 -14 -25 1 -55 4 -67 7 -24 8 -35 -16 -30
-67 3 -31 2 -32 -30 -29 -18 2 -39 -1 -47 -8 -9 -7 -15 -8 -20 0 -18 30 -23
-9 -22 -199 1 -142 5 -208 12 -204 5 3 4 0 -2 -8 -18 -19 -17 -83 1 -76 8 3
16 3 19 0 8 -7 133 -7 144 0 12 8 11 14 13 -175 1 -87 -1 -162 -4 -167 -4 -5
-2 -13 4 -16 8 -5 7 -11 -1 -21 -14 -18 -79 -19 -79 -1 0 9 -2 9 -8 0 -8 -13
-29 -13 -49 0 -8 5 -13 3 -13 -3 0 -8 -7 -9 -17 -5 -10 4 -22 8 -28 8 -6 0 -9
35 -7 90 2 62 0 87 -7 82 -6 -3 -11 -1 -11 4 0 6 5 11 11 11 7 0 9 32 6 93
l-3 92 -95 0 -95 0 2 35 c1 19 5 44 9 55 5 15 4 16 -3 6 -7 -10 -9 4 -6 45 l4
59 -68 2 c-37 1 -82 2 -99 2 l-33 1 0 289 0 289 91 1 c50 1 95 4 100 7 15 9 5
184 -12 195 -10 6 -11 9 -1 9 7 0 15 -6 17 -12 4 -9 25 -12 68 -11 34 1 64 3
67 4 3 0 20 0 38 -1 l33 -2 -2 96 c-1 62 -5 96 -13 97 -6 1 2 4 18 8 45 9 286
7 286 -3z m448 -71 c-3 -3 -9 2 -12 12 -6 14 -5 15 5 6 7 -7 10 -15 7 -18z
m-492 -704 c-3 -5 1 -12 10 -15 8 -3 13 -2 10 3 -3 4 19 8 48 7 52 -1 53 -1
45 -24 -6 -15 -5 -21 1 -17 6 3 10 2 10 -4 0 -5 -4 -21 -10 -36 -5 -14 -6 -24
-2 -21 5 3 8 -17 8 -43 l-1 -47 -57 2 c-32 2 -60 -1 -63 -5 -2 -5 -15 -6 -27
-4 -22 4 -23 9 -21 81 2 125 2 122 18 116 8 -4 15 -1 15 5 0 6 5 11 11 11 5 0
8 -4 5 -9z m-86 -75 c0 -2 -8 -10 -17 -17 -16 -13 -17 -12 -4 4 13 16 21 21
21 13z m-55 -106 c-3 -5 -12 -10 -18 -10 -7 0 -6 4 3 10 19 12 23 12 15 0z
m692 -52 c-3 -8 -6 -5 -6 6 -1 11 2 17 5 13 3 -3 4 -12 1 -19z m-977 -242 c0
-2 -7 -7 -16 -10 -8 -3 -12 -2 -9 4 6 10 25 14 25 6z m585 -501 c44 0 86 4 94
9 10 6 12 5 7 -2 -4 -7 -4 -12 1 -12 8 0 9 -168 1 -176 -7 -6 -288 -7 -295 0
-3 3 -13 2 -22 -3 -9 -4 -22 -6 -28 -5 -7 1 -31 2 -53 3 -32 1 -38 4 -33 18 4
11 3 14 -5 9 -7 -4 -12 -3 -12 3 0 5 5 13 10 16 13 8 13 52 0 60 -7 4 -7 11
-2 18 5 7 8 24 5 39 -3 21 0 26 14 24 10 -2 28 1 41 5 15 6 21 5 17 -1 -9 -14
18 -13 33 2 7 7 15 8 24 1 20 -14 101 -9 107 8 3 11 5 11 10 -2 5 -11 23 -15
86 -14z m180 -225 c-3 -5 -12 -10 -18 -10 -7 0 -6 4 3 10 19 12 23 12 15 0z
m-335 -240 c0 -5 -5 -10 -11 -10 -5 0 -7 5 -4 10 3 6 8 10 11 10 2 0 4 -4 4
-10z"/>
<path d="M1077 8096 c1 -49 6 -93 10 -97 5 -5 69 -9 143 -10 188 -1 180 -2
173 18 -4 9 -7 51 -7 92 l-1 76 -35 2 c-19 2 -91 4 -160 5 l-125 3 2 -89z"/>
<path d="M3684 8181 c-2 -3 -36 -4 -74 -3 -43 1 -70 -2 -70 -9 0 -5 -4 -8 -9
-5 -4 3 -6 -6 -3 -20 4 -20 7 -23 14 -12 7 9 8 7 2 -7 -4 -11 -8 -30 -8 -42
-1 -13 -4 -23 -8 -23 -4 0 -2 -12 4 -26 10 -21 9 -27 -3 -35 -9 -5 46 -9 147
-9 l162 0 5 33 c6 36 2 100 -7 115 -3 6 -2 12 4 14 5 1 6 8 2 15 -7 11 -148
24 -158 14z m61 -61 c3 -6 -1 -7 -9 -4 -18 7 -21 14 -7 14 6 0 13 -4 16 -10z"/>
<path d="M7138 7293 c7 -3 16 -2 19 1 4 3 -2 6 -13 5 -11 0 -14 -3 -6 -6z"/>
<path d="M6680 7040 c0 -5 5 -10 11 -10 5 0 7 5 4 10 -3 6 -8 10 -11 10 -2 0
-4 -4 -4 -10z"/>
<path d="M6700 7005 c0 -7 -6 -16 -12 -18 -10 -4 -9 -8 2 -16 8 -6 10 -11 4
-11 -15 0 -13 -132 1 -142 6 -5 5 -8 -3 -8 -8 0 -13 -13 -12 -37 0 -21 0 -57
-2 -81 -2 -31 0 -41 10 -37 9 3 10 0 3 -13 -8 -15 -3 -17 54 -16 34 1 68 5 75
9 8 5 11 4 7 -2 -4 -6 6 -10 26 -9 23 1 33 6 33 18 0 9 -4 14 -8 11 -5 -2 -6
8 -3 24 9 41 9 225 0 252 -5 18 -4 22 6 16 9 -6 10 -3 5 11 -4 10 -9 26 -10
34 -2 11 -17 15 -57 16 -30 1 -69 4 -86 7 -23 4 -33 1 -33 -8z m118 -70 c-3
-3 -9 2 -12 12 -6 14 -5 15 5 6 7 -7 10 -15 7 -18z"/>
<path d="M5496 6991 c-8 -29 -5 -81 5 -86 5 -4 9 -12 9 -18 0 -7 -4 -6 -10 3
-7 11 -9 -2 -9 -42 1 -32 5 -55 10 -52 10 6 0 -26 -14 -43 -6 -8 -6 -13 0 -13
13 0 11 -43 -2 -52 -6 -5 -6 -8 1 -8 6 0 9 -10 7 -24 -6 -28 14 -36 65 -25 21
5 32 3 32 -5 0 -6 5 -4 10 4 6 9 10 10 10 3 0 -8 9 -9 30 -3 19 5 28 5 25 -1
-4 -5 -1 -9 5 -9 20 0 33 58 17 78 -6 8 -6 12 1 12 12 0 11 178 -1 198 -5 7
-4 12 3 12 12 0 9 42 -4 72 -11 24 -184 22 -190 -1z"/>
<path d="M6880 5852 c0 -10 -27 -13 -152 -13 -22 0 -38 -5 -39 -12 -1 -7 -2
-30 -3 -52 l-1 -40 -200 -1 c-110 -1 -204 -3 -210 -4 -5 -1 -25 -1 -44 0 -25
1 -31 -1 -25 -12 5 -9 1 -8 -12 2 -17 14 -109 18 -239 9 -16 -1 -39 6 -55 16
-13 8 -13 7 -1 -8 9 -11 10 -17 2 -17 -6 0 -11 -17 -11 -39 0 -33 4 -39 24
-43 14 -3 30 -2 37 3 20 12 34 -12 30 -54 -2 -27 0 -38 8 -33 6 4 11 4 11 -1
0 -4 57 -8 128 -8 99 0 126 3 124 13 -1 8 2 11 8 7 6 -3 8 -9 6 -13 -3 -6 175
-7 234 -1 8 0 30 -2 49 -7 26 -5 32 -4 26 5 -5 10 -3 11 11 4 11 -5 37 -8 59
-8 l40 2 0 50 0 50 101 -1 101 -1 -1 72 c0 40 -4 73 -8 73 -4 0 -2 14 3 32 5
17 6 34 4 37 -3 2 -5 -1 -5 -7z m-250 -152 c0 -5 -2 -10 -4 -10 -3 0 -8 5 -11
10 -3 6 -1 10 4 10 6 0 11 -4 11 -10z m-60 -20 c0 -5 -2 -10 -4 -10 -3 0 -8 5
-11 10 -3 6 -1 10 4 10 6 0 11 -4 11 -10z m-360 -20 c0 -5 -5 -10 -11 -10 -5
0 -7 5 -4 10 3 6 8 10 11 10 2 0 4 -4 4 -10z"/>
<path d="M4811 2134 c0 -11 3 -14 6 -6 3 7 2 16 -1 19 -3 4 -6 -2 -5 -13z"/>
<path d="M8665 4850 c-9 -14 -3 -142 8 -167 6 -12 15 -19 23 -16 8 3 11 10 7
17 -4 6 0 5 9 -2 12 -10 55 -13 158 -13 77 1 144 2 148 2 23 4 27 -6 23 -57
-3 -52 -1 -56 15 -50 18 6 18 5 2 -8 -13 -9 -18 -26 -17 -57 0 -24 3 -39 5
-33 5 11 191 10 202 -1 3 -3 6 -63 6 -133 1 -70 5 -133 9 -139 5 -7 4 -13 -1
-13 -4 0 -7 -17 -5 -37 1 -20 -2 -42 -7 -48 -12 -15 -8 -15 104 -18 l88 -3 0
-139 c0 -93 3 -145 11 -154 9 -12 9 -13 -1 -7 -10 6 -12 -77 -12 -416 0 -233
0 -561 0 -730 l0 -308 -81 0 c-68 0 -80 2 -75 15 3 8 1 15 -4 15 -6 0 -10 -6
-10 -14 0 -8 -8 -17 -17 -20 -12 -5 -14 -9 -6 -14 13 -8 15 -68 10 -247 -1
-60 1 -122 5 -137 4 -19 3 -28 -5 -28 -8 0 -8 -3 -2 -8 12 -8 17 -64 6 -57 -4
2 -6 -18 -5 -45 3 -41 0 -52 -16 -60 -11 -6 -20 -7 -20 -2 0 8 -27 8 -67 1 -4
-1 -11 0 -15 1 -27 8 -88 4 -84 -6 2 -6 1 -15 -2 -20 -4 -5 -5 -87 -2 -182 5
-167 4 -172 -15 -173 -11 -1 -23 -1 -27 0 -42 6 -98 7 -98 1 0 -3 -10 -6 -22
-6 -22 1 -23 -2 -23 -92 0 -54 -4 -93 -10 -93 -18 -3 -80 -7 -138 -10 -47 -3
-56 -6 -51 -19 4 -8 6 -52 5 -96 l-2 -82 91 2 90 1 0 48 0 47 63 0 62 0 -1 35
c-1 20 -7 42 -13 49 -16 19 1 24 54 16 48 -7 44 -15 45 106 1 77 2 82 24 86
12 3 32 1 44 -3 12 -5 24 -4 26 0 3 5 17 6 31 4 57 -11 86 15 61 55 -4 7 -2
12 4 12 6 0 8 5 5 10 -6 10 -7 181 -2 275 l2 40 97 0 96 0 -3 292 c-3 246 -1
292 11 297 8 3 14 0 14 -7 0 -9 3 -8 9 1 5 9 33 14 80 15 59 2 69 0 54 -11 -9
-6 -13 -12 -7 -12 34 1 34 2 34 741 0 398 -2 793 -3 878 l-2 155 -87 0 c-47 1
-90 5 -95 9 -4 5 -8 79 -9 165 0 87 -1 172 -2 190 l-2 32 -85 0 c-101 0 -103
2 -99 120 1 41 1 77 -1 80 -2 4 -27 4 -54 0 -28 -3 -58 -2 -67 3 -10 6 -14 6
-11 0 3 -5 -9 -7 -29 -5 -19 2 -37 8 -40 13 -3 5 -5 47 -6 94 l-1 85 -188 0
c-108 -1 -191 -5 -194 -10z m202 -3742 c-3 -8 -6 -5 -6 6 -1 11 2 17 5 13 3
-3 4 -12 1 -19z m-147 -78 c0 -5 -2 -10 -4 -10 -3 0 -8 5 -11 10 -3 6 -1 10 4
10 6 0 11 -4 11 -10z"/>
<path d="M6284 3658 c3 -22 8 -43 11 -46 3 -3 -2 -14 -12 -24 -9 -10 -12 -18
-7 -18 5 0 9 -16 8 -35 -1 -19 2 -35 8 -35 5 0 6 -5 2 -11 -5 -9 1 -10 22 -5
40 10 84 11 112 2 13 -4 22 -3 22 3 0 5 9 8 21 6 20 -4 20 -1 16 97 l-5 101
-35 1 c-19 1 -33 -3 -30 -8 4 -5 1 -6 -5 -3 -5 4 -38 9 -71 12 l-62 4 5 -41z"/>
<path d="M2510 2912 c0 -4 -30 -8 -67 -7 l-68 0 -1 -45 c-1 -25 -3 -49 -4 -55
-1 -5 -1 -14 0 -20 1 -5 1 -62 0 -125 -1 -63 -1 -122 -1 -130 0 -8 1 -59 2
-112 l0 -96 80 1 c43 1 79 -1 79 -5 0 -4 7 -5 15 -2 13 5 15 27 16 113 0 58 0
113 0 121 0 8 0 75 -1 149 -1 100 2 136 12 142 11 7 10 9 -1 9 -9 0 -12 9 -9
30 3 16 3 28 0 26 -2 -3 -15 -1 -28 4 -13 5 -24 6 -24 2z m-103 -304 c-3 -8
-6 -5 -6 6 -1 11 2 17 5 13 3 -3 4 -12 1 -19z"/>
<path d="M6377 2702 c-26 -2 -35 -7 -30 -15 5 -9 3 -9 -8 -2 -8 6 -26 12 -40
13 -24 3 -26 0 -27 -38 -1 -26 2 -40 11 -40 8 0 9 -2 1 -8 -12 -8 -13 -50 -1
-69 4 -6 1 -14 -5 -16 -7 -3 35 -6 93 -6 84 -1 108 2 112 13 3 8 1 17 -6 20
-8 3 -9 5 -1 5 8 1 9 12 4 36 -5 20 -4 33 1 29 5 -3 9 13 9 34 0 39 -1 40 -37
43 -21 2 -55 3 -76 1z"/>
<path d="M8088 2297 c0 -12 -1 -37 -2 -55 -1 -17 -3 -32 -6 -32 -3 0 -3 -21 0
-47 l5 -46 90 0 90 0 0 99 0 99 -87 2 c-85 3 -88 2 -90 -20z m133 -154 c13
-16 12 -17 -3 -4 -10 7 -18 15 -18 17 0 8 8 3 21 -13z"/>
</g>
</svg>
