<?xml version="1.0" standalone="no"?>
<!DOCTYPE svg PUBLIC "-//W3C//DTD SVG 20010904//EN"
 "http://www.w3.org/TR/2001/REC-SVG-20010904/DTD/svg10.dtd">
<svg version="1.0" xmlns="http://www.w3.org/2000/svg"
 width="3200.000000pt" height="3200.000000pt" viewBox="0 0 3200.000000 3200.000000"
 preserveAspectRatio="xMidYMid meet">

<g transform="translate(0.000000,3200.000000) scale(0.100000,-0.100000)"
fill="#000000" stroke="none">
<path d="M9670 28990 c-2285 -43 -3181 -233 -4180 -888 -334 -218 -574 -415
-876 -716 -350 -351 -589 -655 -836 -1066 -494 -820 -683 -1647 -748 -3265
-26 -648 -30 -1548 -30 -7055 0 -6313 3 -6719 56 -7550 94 -1501 358 -2328
1034 -3235 165 -222 295 -372 524 -601 351 -350 655 -588 1066 -836 818 -493
1641 -682 3260 -748 690 -28 1558 -31 7495 -27 6020 4 6187 5 6850 37 1244 60
2044 224 2695 550 355 178 730 426 1060 700 161 134 536 509 670 669 400 483
702 993 885 1496 236 651 339 1401 387 2825 19 546 19 12895 0 13440 -45 1331
-136 2055 -338 2681 -177 551 -498 1115 -934 1640 -134 160 -509 535 -669 669
-524 435 -1095 760 -1640 935 -625 199 -1294 285 -2636 337 -339 13 -12428 20
-13095 8z m10110 -6740 l0 -1750 1750 0 1750 0 0 -6250 0 -6250 -1750 0 -1750
0 0 6250 0 6250 -4750 0 -4750 0 0 1750 0 1750 4750 0 4750 0 0 -1750z m-5870
-4125 c199 -20 339 -41 509 -76 1240 -250 2342 -950 3100 -1968 658 -884 1011
-1951 1011 -3056 0 -1729 -868 -3334 -2320 -4288 -1523 -1000 -3479 -1110
-5110 -287 -500 253 -913 552 -1315 955 -404 403 -701 812 -955 1316 -537
1062 -685 2287 -418 3454 132 580 375 1149 704 1653 882 1348 2337 2199 3952
2312 177 12 668 4 842 -15z"/>
</g>
</svg>
