<svg width="452" height="452" viewBox="0 0 452 452" fill="none" xmlns="http://www.w3.org/2000/svg">
<g filter="url(#filter0_d_2741_197)">
<path d="M18 154.8C18 105.515 18 80.8731 27.5914 62.0488C36.0283 45.4906 49.4906 32.0283 66.0488 23.5914C84.8731 14 109.515 14 158.8 14H293.2C342.485 14 367.127 14 385.951 23.5914C402.509 32.0283 415.972 45.4906 424.409 62.0488C434 80.8731 434 105.515 434 154.8V289.2C434 338.485 434 363.127 424.409 381.951C415.972 398.509 402.509 411.972 385.951 420.409C367.127 430 342.485 430 293.2 430H158.8C109.515 430 84.8731 430 66.0488 420.409C49.4906 411.972 36.0283 398.509 27.5914 381.951C18 363.127 18 338.485 18 289.2V154.8Z" fill="black"/>
<path d="M293.2 13C317.826 13 336.356 12.9991 351.08 14.2021C365.816 15.4061 376.829 17.8207 386.405 22.7002C403.152 31.2329 416.767 44.8483 425.3 61.5947C430.179 71.1712 432.594 82.1841 433.798 96.9199C435.001 111.644 435 130.174 435 154.8V289.2C435 313.826 435.001 332.356 433.798 347.08C432.594 361.816 430.179 372.829 425.3 382.405C416.767 399.152 403.152 412.767 386.405 421.3C376.829 426.179 365.816 428.594 351.08 429.798C336.356 431.001 317.826 431 293.2 431H158.8C134.174 431 115.644 431.001 100.92 429.798C86.1841 428.594 75.1712 426.179 65.5947 421.3C48.8483 412.767 35.2329 399.152 26.7002 382.405C21.8207 372.829 19.4061 361.816 18.2021 347.08C16.9991 332.356 17 313.826 17 289.2V154.8C17 130.174 16.9991 111.644 18.2021 96.9199C19.4061 82.1841 21.8207 71.1712 26.7002 61.5947C35.2329 44.8483 48.8483 31.2329 65.5947 22.7002C75.1712 17.8207 86.1841 15.4061 100.92 14.2021C115.644 12.9991 134.174 13 158.8 13H293.2Z" stroke="black" stroke-opacity="0.05" stroke-width="2"/>
</g>
<path fill-rule="evenodd" clip-rule="evenodd" d="M286 150V94H134V150H286ZM286 150V350H342V150L286 150ZM184 351.6C229.287 351.6 266 314.887 266 269.6C266 224.313 229.287 187.6 184 187.6C138.713 187.6 102 224.313 102 269.6C102 314.887 138.713 351.6 184 351.6Z" fill="url(#paint0_linear_2741_197)"/>
<defs>
<filter id="filter0_d_2741_197" x="0" y="0" width="452" height="452" filterUnits="userSpaceOnUse" color-interpolation-filters="sRGB">
<feFlood flood-opacity="0" result="BackgroundImageFix"/>
<feColorMatrix in="SourceAlpha" type="matrix" values="0 0 0 0 0 0 0 0 0 0 0 0 0 0 0 0 0 0 127 0" result="hardAlpha"/>
<feOffset dy="4"/>
<feGaussianBlur stdDeviation="8"/>
<feColorMatrix type="matrix" values="0 0 0 0 0 0 0 0 0 0 0 0 0 0 0 0 0 0 0.25 0"/>
<feBlend mode="normal" in2="BackgroundImageFix" result="effect1_dropShadow_2741_197"/>
<feBlend mode="normal" in="SourceGraphic" in2="effect1_dropShadow_2741_197" result="shape"/>
</filter>
<linearGradient id="paint0_linear_2741_197" x1="102" y1="94" x2="226.127" y2="395.652" gradientUnits="userSpaceOnUse">
<stop offset="0.499975" stop-color="white"/>
<stop offset="0.663679" stop-color="#FFEDBE"/>
<stop offset="0.839339" stop-color="#FFBCC3"/>
</linearGradient>
</defs>
</svg>
