<?xml version="1.0" standalone="no"?>
<!DOCTYPE svg PUBLIC "-//W3C//DTD SVG 20010904//EN"
 "http://www.w3.org/TR/2001/REC-SVG-20010904/DTD/svg10.dtd">
<svg version="1.0" xmlns="http://www.w3.org/2000/svg"
 width="1024.000000pt" height="1024.000000pt" viewBox="0 0 1024.000000 1024.000000"
 preserveAspectRatio="xMidYMid meet">

<g transform="translate(0.000000,1024.000000) scale(0.100000,-0.100000)"
fill="currentColor" stroke="none">
<path d="M3308 9572 l-628 -2 3 -90 2 -90 -267 0 -268 0 0 -85 0 -85 -39 0
c-21 0 -58 -3 -82 -6 l-44 -6 2 -83 3 -82 -62 -7 c-33 -3 -76 -6 -94 -6 l-34
0 0 -85 0 -85 -67 -2 c-38 0 -72 -2 -78 -3 -5 -2 -18 -3 -27 -4 -16 -1 -18
-12 -18 -86 l0 -85 -85 0 -85 0 0 -186 0 -187 -90 5 -90 5 -2 -266 -3 -266
-87 0 -88 0 0 -88 0 -88 -90 3 -90 3 0 -187 0 -188 179 0 180 0 -3 -87 -2 -88
-87 0 -87 0 -2 -175 -3 -175 -87 -3 -88 -3 -2 -177 -3 -177 -93 -3 -92 -3 0
-359 0 -359 95 2 95 2 0 -88 0 -88 90 3 90 3 0 -86 0 -86 83 -6 c45 -4 207 -7
360 -7 l277 0 0 -85 0 -85 -95 0 -95 0 0 -90 0 -90 -85 0 -84 0 -3 -92 -3 -93
-90 -3 -90 -3 2 -168 c3 -195 13 -179 -109 -177 l-68 2 0 -178 0 -178 -92 0
-93 0 2 -270 1 -270 -93 0 -94 0 -1 -715 -1 -715 91 0 90 0 0 -180 0 -180 90
0 90 0 0 -90 0 -90 89 0 c62 0 90 -4 93 -12 2 -7 3 -83 3 -168 l0 -155 -273
-3 -272 -2 0 -270 0 -270 4220 0 4220 0 0 270 0 269 -355 -6 -355 -6 0 182 0
181 90 -3 90 -4 0 179 0 178 85 0 85 0 0 175 0 175 28 1 c15 1 55 1 90 0 l62
0 0 180 0 180 88 -2 87 -2 3 182 2 181 85 0 c61 0 85 4 86 13 1 6 2 86 3 177
l1 165 90 0 90 0 5 180 5 180 88 3 87 3 0 264 c0 205 -3 265 -12 266 -7 0 -48
0 -90 -1 l-78 -1 -1 33 c0 18 0 61 1 95 l1 62 -1793 -2 -1793 -2 -3 -87 -3
-88 -94 4 -95 4 0 -184 0 -184 -91 0 -92 0 6 90 6 90 -92 0 -92 0 0 177 0 178
-87 -1 -88 0 0 173 0 173 -32 1 c-18 0 -59 0 -90 -1 l-58 -1 0 95 0 96 -85 0
-85 0 0 90 0 90 -90 0 -90 0 0 85 0 85 205 0 205 0 0 90 0 90 90 0 90 0 0 85
0 85 90 0 90 0 0 360 0 360 -90 0 -90 0 0 175 0 175 89 0 88 0 -1 -85 -1 -85
273 0 272 0 0 -360 0 -359 185 -1 185 0 0 95 0 95 90 0 90 0 0 89 0 88 92 -1
92 -1 -1 88 0 87 94 0 94 0 -2 58 c-1 31 -1 72 0 90 l1 32 1215 -2 1215 -3 0
93 0 92 85 0 85 0 0 113 c1 61 2 664 3 1339 l2 1228 -87 0 -88 0 0 90 0 90
-1947 0 -1948 0 2 -90 1 -90 -89 0 -89 0 0 -552 c0 -304 -3 -664 -7 -800 l-6
-248 -29 0 -28 0 0 174 0 173 -75 5 c-42 3 -78 7 -81 10 -3 3 -6 80 -7 169
l-2 164 -85 0 -85 0 -3 185 -2 185 -95 0 -95 -1 0 91 0 90 -90 -3 -90 -3 0 90
0 91 -85 0 -85 0 -2 33 c-1 17 0 58 1 90 l2 57 -185 0 -185 0 -3 93 -3 92
-627 -3z m630 -277 l-3 -95 95 0 95 0 -3 -85 -3 -85 95 0 95 0 -1 -92 -1 -93
84 -1 84 -2 3 -81 3 -81 89 0 90 0 0 -185 0 -185 90 0 90 0 0 -175 0 -175 85
0 85 0 0 -90 0 -91 -1695 3 -1695 3 0 350 0 350 87 0 88 0 3 96 3 97 86 1 c48
1 88 3 89 4 2 1 4 38 6 82 l4 80 87 3 87 3 0 95 0 96 90 -4 90 -3 0 86 0 86
355 1 355 1 0 -84 0 -85 53 -1 c28 -1 69 0 90 1 l37 2 0 -91 0 -91 88 0 87 0
-2 -185 -2 -185 92 0 92 0 -3 -265 -3 -265 96 0 95 0 0 355 0 354 -87 3 -88 3
-3 182 -2 182 -90 -6 -90 -6 0 89 0 89 -90 -3 -90 -3 0 95 0 96 356 0 355 0
-3 -95z m5202 5 l0 -90 28 -1 c15 0 55 0 89 1 l62 1 -2 -1155 -2 -1154 -29 -6
c-16 -3 -55 -6 -87 -6 l-59 0 0 -90 0 -90 -1215 0 -1215 0 0 -84 0 -83 -37 -7
c-21 -3 -62 -6 -90 -6 l-53 0 0 -84 0 -83 -37 -7 c-21 -3 -64 -6 -95 -6 l-58
0 0 -85 0 -85 -85 0 -86 0 3 265 3 265 -277 0 -278 0 0 91 0 91 -32 -2 c-18
-1 -59 -2 -90 -1 l-58 1 0 175 0 175 90 0 90 0 0 274 0 273 -90 -2 -90 -3 0
714 0 714 90 0 90 0 0 90 0 90 1760 0 1760 0 0 -90z m-5707 -1706 l1997 -7 0
-81 0 -81 -2085 -3 -2085 -4 0 94 0 93 87 -2 c49 -2 987 -6 2086 -9z m1575
-353 c9 -1 12 -132 12 -620 l0 -619 -75 -7 c-41 -4 -81 -5 -90 -1 -13 5 -15
-18 -15 -174 l0 -180 -90 0 -90 0 0 -85 0 -85 -92 0 -93 0 3 -95 3 -95 -180 0
-181 0 0 -85 0 -85 -535 0 -535 0 0 85 0 85 -180 0 -180 0 0 95 0 95 -85 0
-85 0 0 85 0 85 -90 0 -90 0 0 180 0 179 -87 -2 -88 -2 -3 178 -2 177 90 0 90
0 0 270 0 270 28 1 c15 1 55 2 90 2 l62 1 0 173 0 173 358 2 c336 3 2102 2
2130 -1z m-2673 -2046 l-5 -85 96 0 96 0 -4 -90 -3 -90 60 -1 c33 -1 65 -2 70
-4 6 -1 18 -3 28 -3 15 -2 17 -13 17 -91 l0 -89 90 0 90 -1 0 90 0 89 535 0
536 0 -3 -87 -3 -88 -87 -3 -87 -3 2 -82 2 -82 88 -3 c65 -2 87 0 88 10 1 7 2
43 3 80 1 37 4 69 7 73 4 3 44 7 90 8 l84 2 3 88 3 87 37 2 c20 1 61 1 90 1
l52 -1 0 89 0 89 85 0 85 0 0 -85 0 -85 91 0 90 0 -2 -91 -2 -92 92 2 91 2 0
-90 0 -91 85 0 85 0 0 -182 0 -183 90 1 90 1 0 -179 0 -179 90 3 90 3 0 -178
0 -177 90 2 90 3 0 -90 0 -90 -90 2 -91 2 3 -180 3 -179 -77 0 c-42 0 -83 -3
-92 -6 -14 -5 -16 -31 -16 -180 l0 -174 -85 0 -85 0 0 180 0 180 -85 0 -85 0
0 535 0 535 -95 0 -95 0 -2 -307 c0 -170 -2 -312 -3 -318 -2 -5 -3 -229 -4
-497 l-1 -488 -90 0 -90 0 0 90 0 90 -85 0 -85 0 0 91 0 90 -355 -3 -355 -3 0
-87 c0 -49 -3 -88 -7 -88 -5 0 -125 -1 -268 -1 l-260 -1 0 91 0 91 -267 -3
-268 -2 0 92 0 91 -182 0 -183 0 -2 175 -2 176 95 -2 94 -2 0 363 0 362 -95 0
-95 0 0 -270 0 -270 -90 0 -91 0 1 -247 c0 -137 0 -256 0 -265 0 -16 -11 -18
-85 -18 l-85 0 0 -101 0 -100 270 3 270 3 0 -89 0 -89 265 7 265 7 0 -91 0
-90 -90 0 -90 0 0 -264 0 -263 -31 -7 c-17 -3 -58 -6 -90 -6 l-59 0 0 -175 0
-175 -42 0 c-753 -5 -848 -4 -849 5 0 6 0 48 1 95 l1 85 -180 -3 -181 -3 0 85
0 86 -90 0 -90 0 0 173 c0 97 4 177 10 183 6 6 -28 8 -90 6 l-100 -3 0 536 0
536 90 -3 90 -3 2 269 3 268 88 0 87 -1 0 173 0 173 90 7 90 8 0 177 c0 162 1
178 18 178 9 -1 50 0 90 1 l72 2 0 85 0 85 78 1 c42 1 82 1 88 0 8 -1 11 26
11 86 l-2 88 93 3 92 3 0 179 0 178 180 2 180 1 -5 -86z m6995 -1070 l0 -97
48 2 c26 2 64 2 85 1 l37 -1 0 -85 0 -85 -85 0 -85 0 0 -180 0 -180 -90 0 -90
0 -2 -177 -3 -176 -87 -1 -88 0 0 -178 0 -178 -42 -2 c-24 -1 -64 -1 -90 0
l-48 2 0 -180 0 -180 -90 0 -90 0 0 -180 0 -180 -37 -1 c-21 0 -60 -1 -88 -2
l-50 -2 -3 -172 -2 -173 -90 0 -90 0 -2 -172 -3 -171 -25 -5 c-14 -2 -780 -6
-1702 -9 l-1678 -4 0 175 0 176 90 0 90 0 0 175 0 175 90 0 90 0 0 185 0 185
88 0 89 0 -1 178 -1 177 90 -1 90 -1 -3 179 -2 178 97 0 98 0 -2 270 -2 270
97 0 98 0 -1 173 0 172 88 3 87 3 0 89 0 90 1533 2 c842 2 1567 4 1610 6 l77
3 0 -96z m-5210 -1610 l0 -85 91 0 90 0 -3 -90 -3 -90 55 -1 c30 -1 70 0 88 1
l32 2 0 -266 0 -266 -85 0 -85 0 0 175 0 175 -91 0 -91 0 3 38 c1 20 1 61 0
90 l-1 52 -90 0 -90 0 0 90 0 90 -89 0 -89 0 -1 -95 -1 -95 90 0 90 0 1 -147
c0 -82 1 -170 1 -198 1 -27 0 -80 0 -117 l-2 -68 -89 0 -89 0 3 180 3 180 -92
0 -91 0 0 -176 0 -176 -357 -5 -358 -5 0 266 0 266 90 0 90 0 0 95 0 94 352 1
c193 0 353 2 354 3 1 1 3 36 5 77 1 41 4 78 6 83 2 4 83 7 179 7 l174 0 0 -85z
m540 -1150 l0 -175 -597 0 c-329 0 -772 -3 -985 -7 l-388 -6 0 181 0 181 985
1 985 1 0 -176z m-2150 -90 l0 -85 -127 0 c-71 0 -311 -3 -535 -7 l-408 -6 0
91 0 91 535 1 535 0 0 -85z"/>
<path d="M6179 8850 c-2 -11 -5 -68 -7 -122 l-2 -58 -102 0 -101 0 6 -127 c4
-71 7 -393 7 -718 l0 -590 95 3 95 3 0 182 0 182 265 1 265 2 1 -112 c0 -61 0
-144 -1 -183 l-1 -73 95 0 96 0 0 720 0 720 -91 0 -90 0 3 88 2 87 -267 0
c-147 0 -267 -2 -268 -5z m351 -435 l0 -84 86 -3 86 -3 0 -180 0 -180 -266 -3
-266 -2 2 182 3 183 87 0 88 0 0 88 0 87 90 0 90 0 0 -85z"/>
<path d="M7224 8851 c-2 -2 -4 -365 -4 -805 l0 -802 186 2 186 2 -1 266 -1
266 180 0 180 0 1 53 c1 28 0 69 -1 90 l-2 37 101 0 101 0 0 360 0 360 -100 0
-100 0 3 85 c2 53 -1 86 -8 87 -22 4 -717 3 -721 -1z m551 -383 c-2 -18 -3
-99 -4 -180 l-1 -148 -90 0 -90 0 0 175 1 174 52 4 c141 10 135 11 132 -25z"/>
<path d="M8320 8678 l0 -178 43 -2 c23 -1 60 -2 82 -2 l40 -1 5 -425 c3 -234
3 -433 1 -442 -3 -15 -15 -18 -87 -18 l-84 0 0 -185 0 -186 133 5 c72 2 193 5
268 5 l136 1 1 181 0 180 -27 -1 c-14 -1 -54 -2 -89 -1 l-62 1 2 437 3 436 85
1 85 1 0 185 0 185 -268 0 -267 0 0 -177z"/>
<path d="M3047 7062 c-5 -10 -2 -160 3 -166 3 -2 124 -5 270 -7 l265 -4 0 90
0 90 -267 2 c-147 2 -269 -1 -271 -5z"/>
<path d="M4120 6974 l0 -94 270 0 270 0 0 94 0 94 -270 0 -270 0 0 -94z"/>
<path d="M3309 6710 l-86 -5 -1 -177 -2 -178 95 0 95 0 0 179 c0 99 -3 181 -7
183 -5 2 -47 1 -94 -2z"/>
<path d="M4304 6711 c-2 -2 -4 -87 -4 -188 l0 -183 33 4 c17 3 58 5 90 5 l57
1 0 179 0 180 -86 3 c-47 2 -88 1 -90 -1z"/>
<path d="M3949 6338 c-1 -7 -2 -86 -3 -175 l-1 -163 87 0 87 0 3 -92 3 -93 90
0 90 0 3 183 2 182 -90 0 -90 0 0 85 0 85 -90 0 c-65 0 -90 -4 -91 -12z"/>
<path d="M3224 5815 c-2 -9 1 -152 4 -167 1 -4 41 -9 90 -10 l87 -3 -1 -87 -1
-88 146 0 c80 -1 239 -2 353 -3 202 -2 208 -1 209 18 0 11 1 53 3 93 l3 72
-354 0 -353 0 0 93 0 92 -91 0 c-52 0 -93 -4 -95 -10z"/>
<path d="M2933 4742 l-63 -3 0 -84 0 -85 90 0 90 0 0 89 0 89 -27 -2 c-16 0
-56 -2 -90 -4z"/>
<path d="M3054 4571 c-2 -2 -4 -44 -4 -93 l0 -88 360 0 360 0 -2 90 -1 90
-355 2 c-194 2 -356 1 -358 -1z"/>
<path d="M7200 3058 l0 -88 -88 0 -89 0 -1 -180 0 -180 36 0 c21 0 61 -3 90
-6 l52 -7 0 -89 c0 -78 2 -89 16 -84 9 3 94 6 190 6 l174 0 0 85 0 85 88 0 87
0 0 182 0 183 -87 -3 -88 -3 0 90 0 90 -190 3 -190 3 0 -87z"/>
<path d="M3409 2255 c0 0 -1 -42 -3 -93 l-2 -93 90 3 91 3 3 87 3 87 -91 3
c-49 2 -90 3 -91 3z"/>
</g>
</svg>
